<svg id="icons_spite_red_instruments_45" xmlns="http://www.w3.org/2000/svg" width="195" height="90" viewBox="0 0 195 90">
  <g id="icons_spite_red_instruments_45_hover" transform="translate(-574 -344)">
    <g id="icon_forex">
      <rect id="Rectangle_1" data-name="Rectangle 1" width="45" height="45" transform="translate(574 344)" fill="#d4d4d4" opacity="0"/>
      <path id="Icn_Forex" d="M18.891,37.282V10.245H14.674a1.062,1.062,0,1,1,0-2.123h4.217V5.479a1.062,1.062,0,1,1,2.124,0V30.942h4.153a1.06,1.06,0,1,1,0,2.119H21.015v4.22a1.062,1.062,0,0,1-2.124,0Zm-13.438-1.8v-4.45H1.062a1.062,1.062,0,1,1,0-2.123H5.447V3.153a1.062,1.062,0,0,1,2.124,0V14.7h4.04a1.059,1.059,0,1,1,0,2.118H7.576v18.66a1.062,1.062,0,1,1-2.123,0ZM32.73,33.169V8.516H28.513a1.062,1.062,0,0,1,0-2.124h4.212V1.062a1.062,1.062,0,1,1,2.123,0V20.191h4.085a1.059,1.059,0,1,1,0,2.118H34.854v10.86a1.062,1.062,0,1,1-2.124,0Z" transform="translate(577 347)" fill="#e8e8e8"/>
    </g>
    <g id="icon_indicies" transform="translate(50)">
      <rect id="Rectangle_1-2" data-name="Rectangle 1" width="45" height="45" transform="translate(574 344)" fill="#d4d4d4" opacity="0"/>
      <path id="Icn_Indicies" d="M14067.246,4476.525a1.032,1.032,0,0,1-.807-.382,1.061,1.061,0,0,1-.237-.665v-32.785a1.047,1.047,0,1,1,2.095,0v5.383h2.838a1.049,1.049,0,1,1,0,2.1h-2.838v4.487h2.838a1.051,1.051,0,0,1,0,2.1h-2.842v4.487h2.838a1.049,1.049,0,1,1,0,2.1h-2.838v4.491h2.838a1.049,1.049,0,1,1,0,2.1h-2.838v4.487h31.737a1.049,1.049,0,1,1,0,2.1Zm6.957-11.456c0-.347.1-.474.535-1.093.145-.206.927-1.289.927-1.289s2.024-2.774,2.781-3.808c2-2.739,4-5.454,4.042-5.51a1.04,1.04,0,0,1,.7-.417,1,1,0,0,1,.148-.011,1.026,1.026,0,0,1,.634.216l8.408,6.462,6.724-13.268a1.045,1.045,0,1,1,1.876.92l-7.3,14.414a1.04,1.04,0,0,1-1.4.46,1.314,1.314,0,0,1-.166-.106l-8.567-6.575-.085.117c-3.281,4.47-6.919,9.442-7.294,10a1.05,1.05,0,0,1-.913.538l.07.025A1.1,1.1,0,0,1,14074.2,4465.07Z" transform="translate(-13487.202 -4092.646)" fill="#e8e8e8" stroke="rgba(0,0,0,0)" stroke-width="1"/>
    </g>
    <g id="icon_commodities" transform="translate(100)">
      <rect id="Rectangle_1-3" data-name="Rectangle 1" width="45" height="45" transform="translate(574 344)" fill="#d4d4d4" opacity="0"/>
      <path id="Icn_Commodities" d="M989.248,2301.816l-2.176-2.6-2.221,2.563a64.843,64.843,0,0,0-5.265,7.062l-.516.8-.252-.919c-.926-3.381-3.984-7.187-4.586-7.914l-.837-1-.857.986c-.5.573-4.854,5.712-4.854,9.657a5.7,5.7,0,0,0,7.436,5.385l.868-.277-.345.843a18.6,18.6,0,0,0-1.384,6.535,12.823,12.823,0,0,0,12.785,12.676h.113a12.846,12.846,0,0,0,12.676-12.672C999.838,2314.784,990.331,2303.119,989.248,2301.816Zm-15.863,12.158a3.547,3.547,0,0,1-3.553-3.524c0-1.971,1.668-4.918,3.532-7.293,1.654,2.186,3.574,5.363,3.574,7.294A3.545,3.545,0,0,1,973.385,2313.974Zm13.661,19.51h0a10.609,10.609,0,0,1-10.637-10.551c0-6,5.422-14.4,10.071-19.77l.561-.649.551.659c3.748,4.484,10.1,13.692,10.1,19.759A10.608,10.608,0,0,1,987.046,2333.484Z" transform="translate(-387.684 -1951.212)" fill="#e8e8e8"/>
    </g>
    <g id="icon_crypto" transform="translate(150)">
      <rect id="Rectangle_1-4" data-name="Rectangle 1" width="45" height="45" transform="translate(574 344)" fill="#d4d4d4" opacity="0"/>
      <path id="Icn_Crypto" d="M36.4,32.549c-4.412,0-10.238-4.6-14.5-11.788A29.387,29.387,0,0,1,17.682,8.746a13.912,13.912,0,0,1,.114-3.63l-1.228.9C13.194,8.858,13.961,16.08,18.409,23.6a30.659,30.659,0,0,0,5.831,7.258L26,32.471H0V26H4.6V16.789h4.41V12.184h3.608c-.154-3.3.765-5.99,2.724-7.636l.038-.039,4.3-3.18a4.134,4.134,0,0,1,.919-.674c4.451-2.507,11.968,2.4,17.143,11.118,5.141,8.756,5.716,17.554,1.268,20.1a5.079,5.079,0,0,1-2.526.674ZM21.557,2.262l-.651.486c-1.113,1.087-1.611,3.144-1.379,5.8A27.962,27.962,0,0,0,23.51,19.786c4.487,7.6,11.123,12.35,14.535,10.441l0,0c3.411-1.909,2.488-9.955-2-17.521-3.8-6.436-9.2-10.852-12.81-10.852h-.018A3.6,3.6,0,0,0,21.557,2.262ZM1.919,30.6H21.324a28.006,28.006,0,0,1-2.3-2.733H1.919Zm4.6-4.6,0,.036H17.682c-.307-.487-.615-.973-.922-1.5-.23-.447-.459-.861-.691-1.271H6.521Zm0-4.606H15.15A21,21,0,0,1,14,18.662l-7.477,0Zm4.448-4.606h2.453a18.731,18.731,0,0,1-.613-2.733h-1.84ZM33.89,25.295l-1.064-1.773-1.541.879c-.258.148-.692-.1-.966-.559s-.285-.948-.028-1.1l.8-.459L25.063,12.232l-.8.459c-.259.148-.693-.1-.966-.562s-.287-.948-.028-1.1l1.541-.879L23.744,8.381c-.273-.456-.285-.948-.025-1.1s.694.1.966.559l1.062,1.773.538-.3L25.224,7.538c-.276-.456-.285-.948-.028-1.1s.694.1.968.559l1.062,1.77.269-.151C28.57,8,30.367,9.045,31.5,10.936a5.942,5.942,0,0,1,.882,2.664A6.264,6.264,0,0,1,35.6,16.454c1.349,2.25,1.409,4.675.131,5.406l-.489.278,1.064,1.776c.272.456.285.948.025,1.1s-.694-.1-.965-.562L34.3,22.676l-.539.308,1.065,1.773c.274.456.284.948.027,1.1a.336.336,0,0,1-.168.042A1.1,1.1,0,0,1,33.89,25.295Zm-2.1-10.007-2.807,1.6,2.952,4.917,2.807-1.6c.814-.466.863-1.867,0-3.3a3.164,3.164,0,0,0-2.37-1.762A1.168,1.168,0,0,0,31.792,15.288Zm-3.3-5.014L25.9,11.752l2.179,3.633,2.587-1.477c.613-.347.665-1.374.018-2.449a2.311,2.311,0,0,0-1.747-1.3A.891.891,0,0,0,28.489,10.275Z" transform="translate(576 350)" fill="#e8e8e8"/>
    </g>
  </g>
  <g id="icons_spite_red_instruments_45-2" data-name="icons_spite_red_instruments_45" transform="translate(-574 -299)">
    <g id="icon_forex-2" data-name="icon_forex">
      <rect id="Rectangle_1-5" data-name="Rectangle 1" width="45" height="45" transform="translate(574 344)" fill="#d4d4d4" opacity="0"/>
      <path id="Icn_Forex-2" data-name="Icn_Forex" d="M18.891,37.282V10.245H14.674a1.062,1.062,0,1,1,0-2.123h4.217V5.479a1.062,1.062,0,1,1,2.124,0V30.942h4.153a1.06,1.06,0,1,1,0,2.119H21.015v4.22a1.062,1.062,0,0,1-2.124,0Zm-13.438-1.8v-4.45H1.062a1.062,1.062,0,1,1,0-2.123H5.447V3.153a1.062,1.062,0,0,1,2.124,0V14.7h4.04a1.059,1.059,0,1,1,0,2.118H7.576v18.66a1.062,1.062,0,1,1-2.123,0ZM32.73,33.169V8.516H28.513a1.062,1.062,0,0,1,0-2.124h4.212V1.062a1.062,1.062,0,1,1,2.123,0V20.191h4.085a1.059,1.059,0,1,1,0,2.118H34.854v10.86a1.062,1.062,0,1,1-2.124,0Z" transform="translate(577 347)" fill="#be0000"/>
    </g>
    <g id="icon_indicies-2" data-name="icon_indicies" transform="translate(50)">
      <rect id="Rectangle_1-6" data-name="Rectangle 1" width="45" height="45" transform="translate(574 344)" fill="#d4d4d4" opacity="0"/>
      <path id="Icn_Indicies-2" data-name="Icn_Indicies" d="M14067.246,4476.525a1.032,1.032,0,0,1-.807-.382,1.061,1.061,0,0,1-.237-.665v-32.785a1.047,1.047,0,1,1,2.095,0v5.383h2.838a1.049,1.049,0,1,1,0,2.1h-2.838v4.487h2.838a1.051,1.051,0,0,1,0,2.1h-2.842v4.487h2.838a1.049,1.049,0,1,1,0,2.1h-2.838v4.491h2.838a1.049,1.049,0,1,1,0,2.1h-2.838v4.487h31.737a1.049,1.049,0,1,1,0,2.1Zm6.957-11.456c0-.347.1-.474.535-1.093.145-.206.927-1.289.927-1.289s2.024-2.774,2.781-3.808c2-2.739,4-5.454,4.042-5.51a1.04,1.04,0,0,1,.7-.417,1,1,0,0,1,.148-.011,1.026,1.026,0,0,1,.634.216l8.408,6.462,6.724-13.268a1.045,1.045,0,1,1,1.876.92l-7.3,14.414a1.04,1.04,0,0,1-1.4.46,1.314,1.314,0,0,1-.166-.106l-8.567-6.575-.085.117c-3.281,4.47-6.919,9.442-7.294,10a1.05,1.05,0,0,1-.913.538l.07.025A1.1,1.1,0,0,1,14074.2,4465.07Z" transform="translate(-13487.202 -4092.646)" fill="#be0000" stroke="rgba(229,186,186,0)" stroke-width="1"/>
    </g>
    <g id="icon_commodities-2" data-name="icon_commodities" transform="translate(100)">
      <rect id="Rectangle_1-7" data-name="Rectangle 1" width="45" height="45" transform="translate(574 344)" fill="#d4d4d4" opacity="0"/>
      <path id="Icn_Commodities-2" data-name="Icn_Commodities" d="M989.248,2301.816l-2.176-2.6-2.221,2.563a64.843,64.843,0,0,0-5.265,7.062l-.516.8-.252-.919c-.926-3.381-3.984-7.187-4.586-7.914l-.837-1-.857.986c-.5.573-4.854,5.712-4.854,9.657a5.7,5.7,0,0,0,7.436,5.385l.868-.277-.345.843a18.6,18.6,0,0,0-1.384,6.535,12.823,12.823,0,0,0,12.785,12.676h.113a12.846,12.846,0,0,0,12.676-12.672C999.838,2314.784,990.331,2303.119,989.248,2301.816Zm-15.863,12.158a3.547,3.547,0,0,1-3.553-3.524c0-1.971,1.668-4.918,3.532-7.293,1.654,2.186,3.574,5.363,3.574,7.294A3.545,3.545,0,0,1,973.385,2313.974Zm13.661,19.51h0a10.609,10.609,0,0,1-10.637-10.551c0-6,5.422-14.4,10.071-19.77l.561-.649.551.659c3.748,4.484,10.1,13.692,10.1,19.759A10.608,10.608,0,0,1,987.046,2333.484Z" transform="translate(-387.684 -1951.212)" fill="#be0000" stroke="rgba(229,186,186,0)" stroke-width="1"/>
    </g>
    <g id="icon_crypto-2" data-name="icon_crypto" transform="translate(150)">
      <rect id="Rectangle_1-8" data-name="Rectangle 1" width="45" height="45" transform="translate(574 344)" fill="#d4d4d4" opacity="0"/>
      <path id="Icn_Crypto-2" data-name="Icn_Crypto" d="M36.4,32.549c-4.412,0-10.238-4.6-14.5-11.788A29.387,29.387,0,0,1,17.682,8.746a13.912,13.912,0,0,1,.114-3.63l-1.228.9C13.194,8.858,13.961,16.08,18.409,23.6a30.659,30.659,0,0,0,5.831,7.258L26,32.471H0V26H4.6V16.789h4.41V12.184h3.608c-.154-3.3.765-5.99,2.724-7.636l.038-.039,4.3-3.18a4.134,4.134,0,0,1,.919-.674c4.451-2.507,11.968,2.4,17.143,11.118,5.141,8.756,5.716,17.554,1.268,20.1a5.079,5.079,0,0,1-2.526.674ZM21.557,2.262l-.651.486c-1.113,1.087-1.611,3.144-1.379,5.8A27.962,27.962,0,0,0,23.51,19.786c4.487,7.6,11.123,12.35,14.535,10.441l0,0c3.411-1.909,2.488-9.955-2-17.521-3.8-6.436-9.2-10.852-12.81-10.852h-.018A3.6,3.6,0,0,0,21.557,2.262ZM1.919,30.6H21.324a28.006,28.006,0,0,1-2.3-2.733H1.919Zm4.6-4.6,0,.036H17.682c-.307-.487-.615-.973-.922-1.5-.23-.447-.459-.861-.691-1.271H6.521Zm0-4.606H15.15A21,21,0,0,1,14,18.662l-7.477,0Zm4.448-4.606h2.453a18.731,18.731,0,0,1-.613-2.733h-1.84ZM33.89,25.295l-1.064-1.773-1.541.879c-.258.148-.692-.1-.966-.559s-.285-.948-.028-1.1l.8-.459L25.063,12.232l-.8.459c-.259.148-.693-.1-.966-.562s-.287-.948-.028-1.1l1.541-.879L23.744,8.381c-.273-.456-.285-.948-.025-1.1s.694.1.966.559l1.062,1.773.538-.3L25.224,7.538c-.276-.456-.285-.948-.028-1.1s.694.1.968.559l1.062,1.77.269-.151C28.57,8,30.367,9.045,31.5,10.936a5.942,5.942,0,0,1,.882,2.664A6.264,6.264,0,0,1,35.6,16.454c1.349,2.25,1.409,4.675.131,5.406l-.489.278,1.064,1.776c.272.456.285.948.025,1.1s-.694-.1-.965-.562L34.3,22.676l-.539.308,1.065,1.773c.274.456.284.948.027,1.1a.336.336,0,0,1-.168.042A1.1,1.1,0,0,1,33.89,25.295Zm-2.1-10.007-2.807,1.6,2.952,4.917,2.807-1.6c.814-.466.863-1.867,0-3.3a3.164,3.164,0,0,0-2.37-1.762A1.168,1.168,0,0,0,31.792,15.288Zm-3.3-5.014L25.9,11.752l2.179,3.633,2.587-1.477c.613-.347.665-1.374.018-2.449a2.311,2.311,0,0,0-1.747-1.3A.891.891,0,0,0,28.489,10.275Z" transform="translate(576 350)" fill="#be0000"/>
    </g>
  </g>
</svg>
