<svg id="icons_spite_ourcompany_200" xmlns="http://www.w3.org/2000/svg" width="600" height="200.002" viewBox="0 0 600 200.002">
  <g id="icons_spite_ourcompany_200-2" data-name="icons_spite_ourcompany_200" transform="translate(0 100)">
    <g id="icons_spite_technology_icon_trusted">
      <rect id="Rectangle_2" data-name="Rectangle 2" width="200" height="100" fill="#e2e2e2" opacity="0"/>
      <g id="Icn_Trusted" transform="translate(53.998 8)">
        <path id="Grey_Shape" d="M40.709,91.44a1.272,1.272,0,1,1,.311-2.525,43.935,43.935,0,0,0,13.666-.565A43.449,43.449,0,0,0,58.5,4.168,1.288,1.288,0,0,1,59.223,1.7,45.988,45.988,0,0,1,46.1,91.755,46.462,46.462,0,0,1,40.709,91.44ZM22.838,85.5A45.984,45.984,0,0,1,41.418.006a1.276,1.276,0,1,1,.234,2.542A43.42,43.42,0,0,0,24.16,83.3a1.269,1.269,0,0,1,.637,1.1,1.281,1.281,0,0,1-1.291,1.285A1.316,1.316,0,0,1,22.838,85.5Z" transform="translate(0 0.029)" fill="#5f5f5f"/>
        <path id="Color_Shape" d="M985.516,543.88a3.953,3.953,0,0,0-1.776-2.9l-1.125-.673.192-.366a5.71,5.71,0,0,0-.271-5.733l-.057-.077-1.694-1.855-.124-.128-.106-.087a4.251,4.251,0,0,0-.917-.589,4.653,4.653,0,0,0-1.243-4.136l-1.907-1.925-.113-.106a3.247,3.247,0,0,0-1.211-.684,4.5,4.5,0,0,0-1.278-3.427l-1.9-2.153-.119-.125-.108-.093a3.209,3.209,0,0,0-1.036-.592,4.638,4.638,0,0,0-1.3-4.089l-1.926-1.894-.093-.087a3.414,3.414,0,0,0-1.367-.71l.076-15.86a1.31,1.31,0,1,0-2.62-.013l-.08,16.413-16.665,27.2a2.674,2.674,0,0,0-.261,2.233l.88,2.683a2.915,2.915,0,0,0,1.311,1.617l4.21,2.44a1.755,1.755,0,0,1,.671,2.354l-.963,1.807a1.758,1.758,0,0,1-1.554.933,1.733,1.733,0,0,1-.809-.2l-5.291-2.752a6.814,6.814,0,0,1-2.661-2.48l-2.972-4.845a6.225,6.225,0,0,1-.458-5.586l7.439-15.631V508.673a1.31,1.31,0,1,0-2.62,0v12.553l-7.625,16.1a6.764,6.764,0,0,0-.022,5.087v4.273a9.261,9.261,0,0,0,1.3,4.736l6.424,10.807a5.558,5.558,0,0,1,.779,2.834v17.895a1.31,1.31,0,1,0,2.62,0V564.512a6.161,6.161,0,0,0-.864-3.143l-6.425-10.806a8.667,8.667,0,0,1-1.176-3.592l1.659,2.7a7.417,7.417,0,0,0,2.9,2.7l6.027,3.136a4.1,4.1,0,0,0,5.515-1.712L956,551.517a4.1,4.1,0,0,0-1.566-5.5l-3.774-2.186a2.316,2.316,0,0,1-1.04-1.282l-.348-1.063a2.064,2.064,0,0,1,.2-1.727l15.865-25.889a.917.917,0,0,1,.4.186L967.715,516a2.17,2.17,0,0,1,.308,2.463l-1.777,3.145-5.532,9.593a1.267,1.267,0,1,0,2.195,1.267l6.844-11.865a.642.642,0,0,1,.355.134l1.938,2.195.073.075c.773.744.907,1.371.419,2.059l-5.06,8.775a1.268,1.268,0,0,0,2.2,1.261l4.653-8.069a.666.666,0,0,1,.377.172l2,2.009a1.36,1.36,0,0,1,.353,1.884c-.024.035-.051.071-.111.149l-3.149,5.462a1.2,1.2,0,0,0-.048,1.11.993.993,0,0,0,.464.621.86.86,0,0,0,.386.121h.014a1.256,1.256,0,0,0,1.38-.587l2.448-4.245a1.105,1.105,0,0,1,.493.272l1.573,1.707a3.221,3.221,0,0,1,.08,3.052l-.258.483a3.9,3.9,0,0,0-.708-.069,3.857,3.857,0,0,0-.724.068,3.709,3.709,0,0,0-2.451,1.643l-1.4,2.248a2.237,2.237,0,0,0-.112.233,3.278,3.278,0,0,0-.156.321c-.046.117-.087.236-.123.359-.029.1-.05.209-.094.408a1.441,1.441,0,0,0-.042.2l-.017.226.009,0v.017a3.956,3.956,0,0,0-.691.069,3.7,3.7,0,0,0-2.444,1.636l-1.471,2.224a3.705,3.705,0,0,0-.575,2.354l.008.186.026.015a3.9,3.9,0,0,0,.893,1.964c-.02.016-.148.106-.148.106a3.72,3.72,0,0,0-.4.317,3.1,3.1,0,0,0-.558.632l-1.477,2.224a3.76,3.76,0,0,0-.577,2.389,3.9,3.9,0,0,0,1.619,2.795,3.681,3.681,0,0,0-.767.82l-.078.127-1.288,2.286a3.687,3.687,0,0,0-.528,2.308,3.944,3.944,0,0,0,1.779,2.91l.062.048v6.28a1.267,1.267,0,0,0,2.533,0v-5.59a3.983,3.983,0,0,0,.444-.059,3.708,3.708,0,0,0,2.421-1.6l.077-.123,1.274-2.294a3.554,3.554,0,0,1,2.126-4.38l1.476-2.223a3.755,3.755,0,0,0,.576-2.393,3.888,3.888,0,0,0-.287-1.094,3.665,3.665,0,0,0,1.649-1.378l1.469-2.222a3.74,3.74,0,0,0,.574-2.392,3.852,3.852,0,0,0-.257-1,3.674,3.674,0,0,0,1.61-1.369l1.39-2.231A3.686,3.686,0,0,0,985.516,543.88Zm-12.79,21.891h-.005l-1.31,2.321a1.482,1.482,0,0,1-.973.637,1.718,1.718,0,0,1-1.227-.237l-.1-.078-.055-.04a1.707,1.707,0,0,1-.792-1.262,1.457,1.457,0,0,1,.223-.943l1.31-2.321a1.565,1.565,0,0,1,.208-.238,1.889,1.889,0,0,1,.242-.178l.151-.094a1.584,1.584,0,0,1,.682-.154,1.713,1.713,0,0,1,.358.05l.862.451a1.7,1.7,0,0,1,.644,1.143A1.466,1.466,0,0,1,972.726,565.771Zm3.657-6.691h0l-1.491,2.242a1.477,1.477,0,0,1-.982.652,1.7,1.7,0,0,1-.311.029,1.777,1.777,0,0,1-.379-.055l-.014-.012-.089-.071-.1-.06a3.65,3.65,0,0,0-.715-.317l-2.2-1.451a1.706,1.706,0,0,1-.791-1.262,1.451,1.451,0,0,1,.216-.932l1.49-2.242a1.441,1.441,0,0,1,.259-.261c.042-.033.079-.066.13-.1l.181-.121a1.507,1.507,0,0,1,.414-.167,1.662,1.662,0,0,1,.309-.028,1.733,1.733,0,0,1,.939.279l2.556,1.687a1.7,1.7,0,0,1,.791,1.263A1.447,1.447,0,0,1,976.383,559.08Zm3.4-7.079h-.005l-1.483,2.239a1.477,1.477,0,0,1-.982.652,1.69,1.69,0,0,1-.311.029,1.747,1.747,0,0,1-.945-.284l-3.728-2.4a1.709,1.709,0,0,1-.792-1.263,1.458,1.458,0,0,1,.216-.932l1.482-2.239a1.481,1.481,0,0,1,.983-.652,1.607,1.607,0,0,1,.31-.029,1.739,1.739,0,0,1,.945.284l.284.183a1.724,1.724,0,0,0,.155.121l.013.014.026.017a3.208,3.208,0,0,0,.265.2l.753.448.774.5.028.018.029.017.514.3.884.568a1.7,1.7,0,0,1,.791,1.263A1.455,1.455,0,0,1,979.783,552Zm3.286-6.948h-.005l-1.376,2.211a1.481,1.481,0,0,1-.983.652,1.679,1.679,0,0,1-.309.029,1.747,1.747,0,0,1-.945-.284l-.115-.069-.776-.5-.028-.018-.029-.018-.514-.3-.818-.527a1.682,1.682,0,0,1-.456-.985,1.514,1.514,0,0,1,.027-.416,1.335,1.335,0,0,1,.112-.327,1.435,1.435,0,0,1,.088-.2l1.377-2.211a1.482,1.482,0,0,1,.983-.652,1.6,1.6,0,0,1,.3-.028,1.732,1.732,0,0,1,.247.035,1.536,1.536,0,0,1,.166.024l.121.03a1.833,1.833,0,0,1,.419.193l1.955,1.163a1.731,1.731,0,0,1,.782,1.256A1.466,1.466,0,0,1,983.069,545.053Z" transform="translate(-914.535 -494.274)" fill="#1863e4"/>
      </g>
    </g>
    <g id="icons_spite_technology_icon_pro" transform="translate(201)">
      <rect id="Rectangle_2-2" data-name="Rectangle 2" width="200" height="100" transform="translate(-1)" fill="#e2e2e2" opacity="0"/>
      <g id="Icn_Professional" transform="translate(52 8)">
        <g id="Grey_Shape-2" data-name="Grey_Shape">
          <path id="Path" d="M1482.978,1282.567a46,46,0,1,0-90.012,16.169,1.283,1.283,0,1,0,2.453-.753,43.449,43.449,0,1,1,83.32.007,1.279,1.279,0,0,0,1.214,1.659h.01a1.283,1.283,0,0,0,1.231-.907A46.088,46.088,0,0,0,1482.978,1282.567Z" transform="translate(-1391.078 -1239.675)" fill="#5f5f5f"/>
          <path id="Path-2" data-name="Path" d="M1467.669,1298.239a1.27,1.27,0,0,0-.94.42,43.357,43.357,0,0,1-64.325,0,1.27,1.27,0,0,0-.939-.42,1.293,1.293,0,0,0-.955,2.16,45.968,45.968,0,0,0,68.113,0A1.293,1.293,0,0,0,1467.669,1298.239Z" transform="translate(-1388.565 -1223.49)" fill="#5f5f5f"/>
          <line id="Path-3" data-name="Path" x2="78" transform="translate(7.5 68.5)" fill="none" stroke="#5f5f5f" stroke-linecap="round" stroke-width="2"/>
        </g>
        <g id="Color_Shape-2" data-name="Color_Shape">
          <path id="Color_Shape-3" data-name="Color_Shape" d="M1456.288,1262.826h-14.709v-2.9a3.415,3.415,0,0,0-3.406-3.405h-10.89a3.422,3.422,0,0,0-3.412,3.412v2.888h-14.709a2.326,2.326,0,0,0-2.327,2.327v17.936h.856v16.455a2.329,2.329,0,0,0,2.328,2.328h45.407a2.329,2.329,0,0,0,2.328-2.328v-16.455h.857v-17.934A2.328,2.328,0,0,0,1456.288,1262.826Zm-30.476-2.407a1.785,1.785,0,0,1,1.783-1.783h10.572a1.474,1.474,0,0,1,1.473,1.473v2.751h-13.828Zm30,39.125a.389.389,0,0,1-.388.388h-45.407a.389.389,0,0,1-.388-.388v-16.455H1429.4l3.335-5.835,3.334,5.835h19.749Zm.859-18.474h-19.265l-4.677-7.975-4.839,7.975h-19.12v-15.915a.389.389,0,0,1,.388-.389h47.125a.39.39,0,0,1,.388.389Z" transform="translate(-1386.723 -1238.378)" fill="#1863e4"/>
        </g>
      </g>
    </g>
    <g id="icons_spite_technology_icon_inno" transform="translate(415 -1)">
      <rect id="Rectangle_2-3" data-name="Rectangle 2" width="200" height="100" transform="translate(-15 1)" fill="#e2e2e2" opacity="0"/>
      <g id="Icn_Innovative" transform="translate(39 7.998)">
        <path id="Grey_Shape-3" data-name="Grey_Shape" d="M39.117,92.058a1.286,1.286,0,1,1,.406-2.54,43.155,43.155,0,0,0,6.514.5,43.781,43.781,0,0,0,43.4-38.483A1.28,1.28,0,0,1,90.7,50.4h0a1.285,1.285,0,0,1,1.283,1.421,46.231,46.231,0,0,1-52.873,40.24ZM1.289,42.9A1.287,1.287,0,0,1,.006,41.5,46.27,46.27,0,0,1,59.6,2.036a1.287,1.287,0,1,1-.777,2.453A43.685,43.685,0,0,0,2.566,41.743,1.285,1.285,0,0,1,1.295,42.9Z" transform="translate(0 0)" fill="#5f5f5f"/>
        <g id="Color_Shape-4" data-name="Color_Shape" transform="translate(4.704 13.747)">
          <path id="Path-4" data-name="Path" d="M1523.459,1307.79l-.74-3.536a18.5,18.5,0,0,0,3.869-2.647l3.012,1.977a1.963,1.963,0,0,0,2.718-.567v0l3.221-4.928a1.964,1.964,0,0,0-.567-2.718h0l-3.033-1.982a18.547,18.547,0,0,0,.9-4.613l3.536-.74a1.964,1.964,0,0,0,1.519-2.325l-1.208-5.766a1.965,1.965,0,0,0-1.92-1.562,2.034,2.034,0,0,0-.4.042l-3.536.741a18.519,18.519,0,0,0-2.648-3.879l1.979-3a1.964,1.964,0,0,0-.568-2.718h0l-4.931-3.24a1.962,1.962,0,0,0-2.718.568h0l-1.984,3.025a18.537,18.537,0,0,0-4.607-.871l-.74-3.536a1.964,1.964,0,0,0-1.92-1.562,2.015,2.015,0,0,0-.4.041l-5.766,1.208a1.965,1.965,0,0,0-1.519,2.324l.741,3.536a18.486,18.486,0,0,0-3.869,2.647l-3.013-1.977a1.962,1.962,0,0,0-2.718.568h0l-3.24,4.931a1.964,1.964,0,0,0,.568,2.718h0l3.033,1.983a18.486,18.486,0,0,0-.881,4.608l-3.536.74a1.965,1.965,0,0,0-1.52,2.324l1.208,5.766a1.965,1.965,0,0,0,1.92,1.562,1.908,1.908,0,0,0,.4-.042l3.537-.74a18.508,18.508,0,0,0,2.648,3.879l-1.979,3a1.964,1.964,0,0,0,.568,2.718h0l4.928,3.221a1.963,1.963,0,0,0,2.719-.568h0l1.983-3.034a18.541,18.541,0,0,0,4.612.9l.741,3.537a1.964,1.964,0,0,0,1.919,1.561,2.008,2.008,0,0,0,.4-.042l5.766-1.208A1.964,1.964,0,0,0,1523.459,1307.79Zm-2.282-3.214.741,3.536a.378.378,0,0,1-.056.293.374.374,0,0,1-.246.167l-5.765,1.208a.375.375,0,0,1-.082.01.39.39,0,0,1-.378-.31l-.74-3.536a1.577,1.577,0,0,0-1.439-1.249,16.931,16.931,0,0,1-4.22-.822,1.555,1.555,0,0,0-.494-.08,1.574,1.574,0,0,0-1.318.713l-1.984,3.033a.393.393,0,0,1-.327.177.386.386,0,0,1-.212-.064l-4.929-3.222a.388.388,0,0,1-.115-.533l1.979-3a1.576,1.576,0,0,0-.137-1.913,16.978,16.978,0,0,1-2.424-3.548,1.573,1.573,0,0,0-1.4-.86,1.635,1.635,0,0,0-.323.034l-3.536.741a.509.509,0,0,1-.082.008.39.39,0,0,1-.378-.31l-1.208-5.765a.389.389,0,0,1,.3-.46l3.536-.741a1.574,1.574,0,0,0,1.249-1.444,16.992,16.992,0,0,1,.806-4.216,1.574,1.574,0,0,0-.635-1.807l-3.034-1.984a.389.389,0,0,1-.114-.536l3.243-4.936a.391.391,0,0,1,.327-.176.379.379,0,0,1,.21.063l3.011,1.977a1.576,1.576,0,0,0,1.911-.139,16.926,16.926,0,0,1,3.541-2.421,1.575,1.575,0,0,0,.823-1.725l-.74-3.536a.387.387,0,0,1,.3-.46l5.765-1.208a.4.4,0,0,1,.082-.008h0a.388.388,0,0,1,.378.309l.741,3.536a1.573,1.573,0,0,0,1.446,1.249,17.052,17.052,0,0,1,4.215.8,1.571,1.571,0,0,0,1.8-.634l1.987-3.027a.393.393,0,0,1,.327-.177.375.375,0,0,1,.208.063l4.936,3.243a.376.376,0,0,1,.167.246.372.372,0,0,1-.052.287l-1.979,3a1.577,1.577,0,0,0,.138,1.913,16.912,16.912,0,0,1,2.423,3.549,1.576,1.576,0,0,0,1.4.859,1.547,1.547,0,0,0,.322-.034l3.537-.741a.457.457,0,0,1,.081-.009.392.392,0,0,1,.379.31l1.208,5.765a.387.387,0,0,1-.056.293.377.377,0,0,1-.246.167l-3.536.741a1.577,1.577,0,0,0-1.249,1.438,16.93,16.93,0,0,1-.823,4.22,1.574,1.574,0,0,0,.634,1.813l3.035,1.983a.389.389,0,0,1,.111.539l-3.221,4.929a.393.393,0,0,1-.327.176.377.377,0,0,1-.209-.062l-3.013-1.977a1.572,1.572,0,0,0-1.91.139,16.993,16.993,0,0,1-3.541,2.421A1.576,1.576,0,0,0,1521.176,1304.576Z" transform="translate(-1490.518 -1241.826)" fill="#1863e4"/>
          <path id="Path-5" data-name="Path" d="M1511.641,1276.223a8.837,8.837,0,1,0,8.639,7.027A8.849,8.849,0,0,0,1511.641,1276.223Zm6.069,12.812a7.215,7.215,0,0,1-4.59,3.134,7.364,7.364,0,0,1-1.5.156,7.289,7.289,0,0,1-7.1-5.775,7.263,7.263,0,0,1,5.618-8.6,7.25,7.25,0,0,1,8.6,5.618A7.219,7.219,0,0,1,1517.71,1289.034Z" transform="translate(-1487.923 -1239.232)" fill="#1863e4"/>
          <path id="Path-6" data-name="Path" d="M1531.95,1251.873l1.547,2.821a16.525,16.525,0,0,0-2.619,3.261l-3.071-.909a1.75,1.75,0,0,0-2.17,1.189h0l-1.468,5.033a1.748,1.748,0,0,0,1.188,2.169h0l3.1.9a16.484,16.484,0,0,0,.427,4.163l-2.821,1.547a1.75,1.75,0,0,0-.693,2.374l2.522,4.6a1.751,1.751,0,0,0,1.536.908,1.732,1.732,0,0,0,.838-.216l2.822-1.547a16.48,16.48,0,0,0,3.256,2.612l-.9,3.079a1.749,1.749,0,0,0,1.187,2.17h0l5.033,1.468a1.745,1.745,0,0,0,2.17-1.187v0l.9-3.1c.137,0,.274.006.409.006a16.458,16.458,0,0,0,3.754-.434l1.547,2.821a1.749,1.749,0,0,0,2.375.693l4.6-2.522a1.749,1.749,0,0,0,.693-2.374l-1.547-2.821a16.476,16.476,0,0,0,2.619-3.261l3.072.908a1.748,1.748,0,0,0,2.168-1.188h0l1.484-5.042a1.75,1.75,0,0,0-1.188-2.17h0l-3.091-.907a16.517,16.517,0,0,0-.45-4.151l2.821-1.547a1.749,1.749,0,0,0,.693-2.374l-2.522-4.6a1.749,1.749,0,0,0-2.374-.692l-2.822,1.547a16.463,16.463,0,0,0-3.256-2.612l.9-3.08a1.751,1.751,0,0,0-1.188-2.169h0l-5.042-1.484a1.723,1.723,0,0,0-.492-.071l.047,1.582,5.047,1.485a.173.173,0,0,1,.119.213l-.905,3.079a1.575,1.575,0,0,0,.689,1.787,14.948,14.948,0,0,1,2.946,2.363,1.575,1.575,0,0,0,1.89.287l2.822-1.547a.154.154,0,0,1,.081-.022.175.175,0,0,1,.155.089l2.522,4.6a.173.173,0,0,1-.069.236l-2.821,1.547a1.575,1.575,0,0,0-.774,1.748,14.966,14.966,0,0,1,.407,3.755,1.576,1.576,0,0,0,1.132,1.54l3.094.91a.173.173,0,0,1,.12.213l-1.484,5.042,0,.006a.177.177,0,0,1-.189.118h-.022l-3.071-.909a1.569,1.569,0,0,0-1.789.688,14.987,14.987,0,0,1-2.37,2.949,1.574,1.574,0,0,0-.288,1.891l1.547,2.821a.174.174,0,0,1-.069.236l-4.6,2.522a.154.154,0,0,1-.081.022.174.174,0,0,1-.155-.091l-1.547-2.821a1.577,1.577,0,0,0-1.74-.776,14.9,14.9,0,0,1-3.4.392c-.124,0-.246,0-.369,0h-.04a1.578,1.578,0,0,0-1.512,1.134l-.9,3.1a.175.175,0,0,1-.19.119h-.026l-5.035-1.468a.173.173,0,0,1-.119-.214l.9-3.078a1.578,1.578,0,0,0-.689-1.788,14.89,14.89,0,0,1-2.946-2.362,1.574,1.574,0,0,0-1.89-.287l-2.821,1.547a.177.177,0,0,1-.082.022.174.174,0,0,1-.155-.091l-2.522-4.6a.174.174,0,0,1,.069-.236l2.821-1.548a1.572,1.572,0,0,0,.776-1.738,14.942,14.942,0,0,1-.387-3.766,1.575,1.575,0,0,0-1.133-1.551l-3.1-.9a.174.174,0,0,1-.119-.217l1.469-5.034a.176.176,0,0,1,.189-.12h.022l3.071.909a1.577,1.577,0,0,0,1.789-.688,14.929,14.929,0,0,1,2.37-2.95,1.575,1.575,0,0,0,.287-1.891l-1.547-2.822a.17.17,0,0,1-.014-.133.168.168,0,0,1,.083-.1l4.6-2.523a.165.165,0,0,1,.081-.022.176.176,0,0,1,.155.091l1.547,2.822a1.578,1.578,0,0,0,1.381.818,1.556,1.556,0,0,0,.363-.044,14.975,14.975,0,0,1,3.449-.4l.31,0h.033a1.577,1.577,0,0,0,1.512-1.134l.9-3.1a.176.176,0,0,1,.166-.126v-1.575a1.751,1.751,0,0,0-1.678,1.259v0l-.9,3.1c-.114,0-.229,0-.343,0a16.446,16.446,0,0,0-3.812.447l-1.547-2.822a1.746,1.746,0,0,0-2.375-.692l-4.6,2.522A1.749,1.749,0,0,0,1531.95,1251.873Z" transform="translate(-1483.418 -1245.686)" fill="#5f5f5f"/>
          <path id="Path-7" data-name="Path" d="M1538.97,1257.456a7.867,7.867,0,1,0,3.776-.97A7.87,7.87,0,0,0,1538.97,1257.456Zm9.3,3.874a6.291,6.291,0,1,1-5.527-3.27A6.3,6.3,0,0,1,1548.273,1261.33Z" transform="translate(-1481.139 -1243.404)" fill="#5f5f5f"/>
        </g>
      </g>
    </g>
  </g>
  <g id="icons_spite_ourcompany_200_hover">
    <g id="icons_spite_technology_icon_trusted-2" data-name="icons_spite_technology_icon_trusted">
      <rect id="Rectangle_2-4" data-name="Rectangle 2" width="200" height="100" fill="#e2e2e2" opacity="0"/>
      <g id="Icn_Trusted-2" data-name="Icn_Trusted" transform="translate(53.998 8)">
        <path id="Grey_Shape-4" data-name="Grey_Shape" d="M40.709,91.44a1.272,1.272,0,1,1,.311-2.525,43.935,43.935,0,0,0,13.666-.565A43.449,43.449,0,0,0,58.5,4.168,1.288,1.288,0,0,1,59.223,1.7,45.988,45.988,0,0,1,46.1,91.755,46.462,46.462,0,0,1,40.709,91.44ZM22.838,85.5A45.984,45.984,0,0,1,41.418.006a1.276,1.276,0,1,1,.234,2.542A43.42,43.42,0,0,0,24.16,83.3a1.269,1.269,0,0,1,.637,1.1,1.281,1.281,0,0,1-1.291,1.285A1.316,1.316,0,0,1,22.838,85.5Z" transform="translate(0 0.029)" fill="#5f5f5f"/>
        <path id="Color_Shape-5" data-name="Color_Shape" d="M985.516,543.88a3.953,3.953,0,0,0-1.776-2.9l-1.125-.673.192-.366a5.71,5.71,0,0,0-.271-5.733l-.057-.077-1.694-1.855-.124-.128-.106-.087a4.251,4.251,0,0,0-.917-.589,4.653,4.653,0,0,0-1.243-4.136l-1.907-1.925-.113-.106a3.247,3.247,0,0,0-1.211-.684,4.5,4.5,0,0,0-1.278-3.427l-1.9-2.153-.119-.125-.108-.093a3.209,3.209,0,0,0-1.036-.592,4.638,4.638,0,0,0-1.3-4.089l-1.926-1.894-.093-.087a3.414,3.414,0,0,0-1.367-.71l.076-15.86a1.31,1.31,0,1,0-2.62-.013l-.08,16.413-16.665,27.2a2.674,2.674,0,0,0-.261,2.233l.88,2.683a2.915,2.915,0,0,0,1.311,1.617l4.21,2.44a1.755,1.755,0,0,1,.671,2.354l-.963,1.807a1.758,1.758,0,0,1-1.554.933,1.733,1.733,0,0,1-.809-.2l-5.291-2.752a6.814,6.814,0,0,1-2.661-2.48l-2.972-4.845a6.225,6.225,0,0,1-.458-5.586l7.439-15.631V508.673a1.31,1.31,0,1,0-2.62,0v12.553l-7.625,16.1a6.764,6.764,0,0,0-.022,5.087v4.273a9.261,9.261,0,0,0,1.3,4.736l6.424,10.807a5.558,5.558,0,0,1,.779,2.834v17.895a1.31,1.31,0,1,0,2.62,0V564.512a6.161,6.161,0,0,0-.864-3.143l-6.425-10.806a8.667,8.667,0,0,1-1.176-3.592l1.659,2.7a7.417,7.417,0,0,0,2.9,2.7l6.027,3.136a4.1,4.1,0,0,0,5.515-1.712L956,551.517a4.1,4.1,0,0,0-1.566-5.5l-3.774-2.186a2.316,2.316,0,0,1-1.04-1.282l-.348-1.063a2.064,2.064,0,0,1,.2-1.727l15.865-25.889a.917.917,0,0,1,.4.186L967.715,516a2.17,2.17,0,0,1,.308,2.463l-1.777,3.145-5.532,9.593a1.267,1.267,0,1,0,2.195,1.267l6.844-11.865a.642.642,0,0,1,.355.134l1.938,2.195.073.075c.773.744.907,1.371.419,2.059l-5.06,8.775a1.268,1.268,0,0,0,2.2,1.261l4.653-8.069a.666.666,0,0,1,.377.172l2,2.009a1.36,1.36,0,0,1,.353,1.884c-.024.035-.051.071-.111.149l-3.149,5.462a1.2,1.2,0,0,0-.048,1.11.993.993,0,0,0,.464.621.86.86,0,0,0,.386.121h.014a1.256,1.256,0,0,0,1.38-.587l2.448-4.245a1.105,1.105,0,0,1,.493.272l1.573,1.707a3.221,3.221,0,0,1,.08,3.052l-.258.483a3.9,3.9,0,0,0-.708-.069,3.857,3.857,0,0,0-.724.068,3.709,3.709,0,0,0-2.451,1.643l-1.4,2.248a2.237,2.237,0,0,0-.112.233,3.278,3.278,0,0,0-.156.321c-.046.117-.087.236-.123.359-.029.1-.05.209-.094.408a1.441,1.441,0,0,0-.042.2l-.017.226.009,0v.017a3.956,3.956,0,0,0-.691.069,3.7,3.7,0,0,0-2.444,1.636l-1.471,2.224a3.705,3.705,0,0,0-.575,2.354l.008.186.026.015a3.9,3.9,0,0,0,.893,1.964c-.02.016-.148.106-.148.106a3.72,3.72,0,0,0-.4.317,3.1,3.1,0,0,0-.558.632l-1.477,2.224a3.76,3.76,0,0,0-.577,2.389,3.9,3.9,0,0,0,1.619,2.795,3.681,3.681,0,0,0-.767.82l-.078.127-1.288,2.286a3.687,3.687,0,0,0-.528,2.308,3.944,3.944,0,0,0,1.779,2.91l.062.048v6.28a1.267,1.267,0,0,0,2.533,0v-5.59a3.983,3.983,0,0,0,.444-.059,3.708,3.708,0,0,0,2.421-1.6l.077-.123,1.274-2.294a3.554,3.554,0,0,1,2.126-4.38l1.476-2.223a3.755,3.755,0,0,0,.576-2.393,3.888,3.888,0,0,0-.287-1.094,3.665,3.665,0,0,0,1.649-1.378l1.469-2.222a3.74,3.74,0,0,0,.574-2.392,3.852,3.852,0,0,0-.257-1,3.674,3.674,0,0,0,1.61-1.369l1.39-2.231A3.686,3.686,0,0,0,985.516,543.88Zm-12.79,21.891h-.005l-1.31,2.321a1.482,1.482,0,0,1-.973.637,1.718,1.718,0,0,1-1.227-.237l-.1-.078-.055-.04a1.707,1.707,0,0,1-.792-1.262,1.457,1.457,0,0,1,.223-.943l1.31-2.321a1.565,1.565,0,0,1,.208-.238,1.889,1.889,0,0,1,.242-.178l.151-.094a1.584,1.584,0,0,1,.682-.154,1.713,1.713,0,0,1,.358.05l.862.451a1.7,1.7,0,0,1,.644,1.143A1.466,1.466,0,0,1,972.726,565.771Zm3.657-6.691h0l-1.491,2.242a1.477,1.477,0,0,1-.982.652,1.7,1.7,0,0,1-.311.029,1.777,1.777,0,0,1-.379-.055l-.014-.012-.089-.071-.1-.06a3.65,3.65,0,0,0-.715-.317l-2.2-1.451a1.706,1.706,0,0,1-.791-1.262,1.451,1.451,0,0,1,.216-.932l1.49-2.242a1.441,1.441,0,0,1,.259-.261c.042-.033.079-.066.13-.1l.181-.121a1.507,1.507,0,0,1,.414-.167,1.662,1.662,0,0,1,.309-.028,1.733,1.733,0,0,1,.939.279l2.556,1.687a1.7,1.7,0,0,1,.791,1.263A1.447,1.447,0,0,1,976.383,559.08Zm3.4-7.079h-.005l-1.483,2.239a1.477,1.477,0,0,1-.982.652,1.69,1.69,0,0,1-.311.029,1.747,1.747,0,0,1-.945-.284l-3.728-2.4a1.709,1.709,0,0,1-.792-1.263,1.458,1.458,0,0,1,.216-.932l1.482-2.239a1.481,1.481,0,0,1,.983-.652,1.607,1.607,0,0,1,.31-.029,1.739,1.739,0,0,1,.945.284l.284.183a1.724,1.724,0,0,0,.155.121l.013.014.026.017a3.208,3.208,0,0,0,.265.2l.753.448.774.5.028.018.029.017.514.3.884.568a1.7,1.7,0,0,1,.791,1.263A1.455,1.455,0,0,1,979.783,552Zm3.286-6.948h-.005l-1.376,2.211a1.481,1.481,0,0,1-.983.652,1.679,1.679,0,0,1-.309.029,1.747,1.747,0,0,1-.945-.284l-.115-.069-.776-.5-.028-.018-.029-.018-.514-.3-.818-.527a1.682,1.682,0,0,1-.456-.985,1.514,1.514,0,0,1,.027-.416,1.335,1.335,0,0,1,.112-.327,1.435,1.435,0,0,1,.088-.2l1.377-2.211a1.482,1.482,0,0,1,.983-.652,1.6,1.6,0,0,1,.3-.028,1.732,1.732,0,0,1,.247.035,1.536,1.536,0,0,1,.166.024l.121.03a1.833,1.833,0,0,1,.419.193l1.955,1.163a1.731,1.731,0,0,1,.782,1.256A1.466,1.466,0,0,1,983.069,545.053Z" transform="translate(-914.535 -494.274)" fill="#1863e4"/>
      </g>
    </g>
    <g id="icons_spite_technology_icon_pro-2" data-name="icons_spite_technology_icon_pro" transform="translate(201)">
      <rect id="Rectangle_2-5" data-name="Rectangle 2" width="200" height="100" transform="translate(-1)" fill="#e2e2e2" opacity="0"/>
      <g id="Icn_Professional-2" data-name="Icn_Professional" transform="translate(52 8)">
        <g id="Grey_Shape-5" data-name="Grey_Shape">
          <path id="Path-8" data-name="Path" d="M1482.978,1282.567a46,46,0,1,0-90.012,16.169,1.283,1.283,0,1,0,2.453-.753,43.449,43.449,0,1,1,83.32.007,1.279,1.279,0,0,0,1.214,1.659h.01a1.283,1.283,0,0,0,1.231-.907A46.088,46.088,0,0,0,1482.978,1282.567Z" transform="translate(-1391.078 -1239.675)" fill="#5f5f5f"/>
          <path id="Path-9" data-name="Path" d="M1467.669,1298.239a1.27,1.27,0,0,0-.94.42,43.357,43.357,0,0,1-64.325,0,1.27,1.27,0,0,0-.939-.42,1.293,1.293,0,0,0-.955,2.16,45.968,45.968,0,0,0,68.113,0A1.293,1.293,0,0,0,1467.669,1298.239Z" transform="translate(-1388.565 -1223.49)" fill="#5f5f5f"/>
          <line id="Path-10" data-name="Path" x2="78" transform="translate(7.5 68.5)" fill="none" stroke="#5f5f5f" stroke-linecap="round" stroke-width="2"/>
        </g>
        <g id="Color_Shape-6" data-name="Color_Shape">
          <path id="Color_Shape-7" data-name="Color_Shape" d="M1456.288,1262.826h-14.709v-2.9a3.415,3.415,0,0,0-3.406-3.405h-10.89a3.422,3.422,0,0,0-3.412,3.412v2.888h-14.709a2.326,2.326,0,0,0-2.327,2.327v17.936h.856v16.455a2.329,2.329,0,0,0,2.328,2.328h45.407a2.329,2.329,0,0,0,2.328-2.328v-16.455h.857v-17.934A2.328,2.328,0,0,0,1456.288,1262.826Zm-30.476-2.407a1.785,1.785,0,0,1,1.783-1.783h10.572a1.474,1.474,0,0,1,1.473,1.473v2.751h-13.828Zm30,39.125a.389.389,0,0,1-.388.388h-45.407a.389.389,0,0,1-.388-.388v-16.455H1429.4l3.335-5.835,3.334,5.835h19.749Zm.859-18.474h-19.265l-4.677-7.975-4.839,7.975h-19.12v-15.915a.389.389,0,0,1,.388-.389h47.125a.39.39,0,0,1,.388.389Z" transform="translate(-1386.723 -1238.378)" fill="#1863e4"/>
        </g>
      </g>
    </g>
    <g id="icons_spite_technology_icon_inno-2" data-name="icons_spite_technology_icon_inno" transform="translate(415 -1)">
      <rect id="Rectangle_2-6" data-name="Rectangle 2" width="200" height="100" transform="translate(-15 1)" fill="#e2e2e2" opacity="0"/>
      <g id="Icn_Innovative-2" data-name="Icn_Innovative" transform="translate(39 7.998)">
        <path id="Grey_Shape-6" data-name="Grey_Shape" d="M39.117,92.058a1.286,1.286,0,1,1,.406-2.54,43.155,43.155,0,0,0,6.514.5,43.781,43.781,0,0,0,43.4-38.483A1.28,1.28,0,0,1,90.7,50.4h0a1.285,1.285,0,0,1,1.283,1.421,46.231,46.231,0,0,1-52.873,40.24ZM1.289,42.9A1.287,1.287,0,0,1,.006,41.5,46.27,46.27,0,0,1,59.6,2.036a1.287,1.287,0,1,1-.777,2.453A43.685,43.685,0,0,0,2.566,41.743,1.285,1.285,0,0,1,1.295,42.9Z" transform="translate(0 0)" fill="#5f5f5f"/>
        <g id="Color_Shape-8" data-name="Color_Shape" transform="translate(4.704 13.747)">
          <path id="Path-11" data-name="Path" d="M1523.459,1307.79l-.74-3.536a18.5,18.5,0,0,0,3.869-2.647l3.012,1.977a1.963,1.963,0,0,0,2.718-.567v0l3.221-4.928a1.964,1.964,0,0,0-.567-2.718h0l-3.033-1.982a18.547,18.547,0,0,0,.9-4.613l3.536-.74a1.964,1.964,0,0,0,1.519-2.325l-1.208-5.766a1.965,1.965,0,0,0-1.92-1.562,2.034,2.034,0,0,0-.4.042l-3.536.741a18.519,18.519,0,0,0-2.648-3.879l1.979-3a1.964,1.964,0,0,0-.568-2.718h0l-4.931-3.24a1.962,1.962,0,0,0-2.718.568h0l-1.984,3.025a18.537,18.537,0,0,0-4.607-.871l-.74-3.536a1.964,1.964,0,0,0-1.92-1.562,2.015,2.015,0,0,0-.4.041l-5.766,1.208a1.965,1.965,0,0,0-1.519,2.324l.741,3.536a18.486,18.486,0,0,0-3.869,2.647l-3.013-1.977a1.962,1.962,0,0,0-2.718.568h0l-3.24,4.931a1.964,1.964,0,0,0,.568,2.718h0l3.033,1.983a18.486,18.486,0,0,0-.881,4.608l-3.536.74a1.965,1.965,0,0,0-1.52,2.324l1.208,5.766a1.965,1.965,0,0,0,1.92,1.562,1.908,1.908,0,0,0,.4-.042l3.537-.74a18.508,18.508,0,0,0,2.648,3.879l-1.979,3a1.964,1.964,0,0,0,.568,2.718h0l4.928,3.221a1.963,1.963,0,0,0,2.719-.568h0l1.983-3.034a18.541,18.541,0,0,0,4.612.9l.741,3.537a1.964,1.964,0,0,0,1.919,1.561,2.008,2.008,0,0,0,.4-.042l5.766-1.208A1.964,1.964,0,0,0,1523.459,1307.79Zm-2.282-3.214.741,3.536a.378.378,0,0,1-.056.293.374.374,0,0,1-.246.167l-5.765,1.208a.375.375,0,0,1-.082.01.39.39,0,0,1-.378-.31l-.74-3.536a1.577,1.577,0,0,0-1.439-1.249,16.931,16.931,0,0,1-4.22-.822,1.555,1.555,0,0,0-.494-.08,1.574,1.574,0,0,0-1.318.713l-1.984,3.033a.393.393,0,0,1-.327.177.386.386,0,0,1-.212-.064l-4.929-3.222a.388.388,0,0,1-.115-.533l1.979-3a1.576,1.576,0,0,0-.137-1.913,16.978,16.978,0,0,1-2.424-3.548,1.573,1.573,0,0,0-1.4-.86,1.635,1.635,0,0,0-.323.034l-3.536.741a.509.509,0,0,1-.082.008.39.39,0,0,1-.378-.31l-1.208-5.765a.389.389,0,0,1,.3-.46l3.536-.741a1.574,1.574,0,0,0,1.249-1.444,16.992,16.992,0,0,1,.806-4.216,1.574,1.574,0,0,0-.635-1.807l-3.034-1.984a.389.389,0,0,1-.114-.536l3.243-4.936a.391.391,0,0,1,.327-.176.379.379,0,0,1,.21.063l3.011,1.977a1.576,1.576,0,0,0,1.911-.139,16.926,16.926,0,0,1,3.541-2.421,1.575,1.575,0,0,0,.823-1.725l-.74-3.536a.387.387,0,0,1,.3-.46l5.765-1.208a.4.4,0,0,1,.082-.008h0a.388.388,0,0,1,.378.309l.741,3.536a1.573,1.573,0,0,0,1.446,1.249,17.052,17.052,0,0,1,4.215.8,1.571,1.571,0,0,0,1.8-.634l1.987-3.027a.393.393,0,0,1,.327-.177.375.375,0,0,1,.208.063l4.936,3.243a.376.376,0,0,1,.167.246.372.372,0,0,1-.052.287l-1.979,3a1.577,1.577,0,0,0,.138,1.913,16.912,16.912,0,0,1,2.423,3.549,1.576,1.576,0,0,0,1.4.859,1.547,1.547,0,0,0,.322-.034l3.537-.741a.457.457,0,0,1,.081-.009.392.392,0,0,1,.379.31l1.208,5.765a.387.387,0,0,1-.056.293.377.377,0,0,1-.246.167l-3.536.741a1.577,1.577,0,0,0-1.249,1.438,16.93,16.93,0,0,1-.823,4.22,1.574,1.574,0,0,0,.634,1.813l3.035,1.983a.389.389,0,0,1,.111.539l-3.221,4.929a.393.393,0,0,1-.327.176.377.377,0,0,1-.209-.062l-3.013-1.977a1.572,1.572,0,0,0-1.91.139,16.993,16.993,0,0,1-3.541,2.421A1.576,1.576,0,0,0,1521.176,1304.576Z" transform="translate(-1490.518 -1241.826)" fill="#1863e4"/>
          <path id="Path-12" data-name="Path" d="M1511.641,1276.223a8.837,8.837,0,1,0,8.639,7.027A8.849,8.849,0,0,0,1511.641,1276.223Zm6.069,12.812a7.215,7.215,0,0,1-4.59,3.134,7.364,7.364,0,0,1-1.5.156,7.289,7.289,0,0,1-7.1-5.775,7.263,7.263,0,0,1,5.618-8.6,7.25,7.25,0,0,1,8.6,5.618A7.219,7.219,0,0,1,1517.71,1289.034Z" transform="translate(-1487.923 -1239.232)" fill="#1863e4"/>
          <path id="Path-13" data-name="Path" d="M1531.95,1251.873l1.547,2.821a16.525,16.525,0,0,0-2.619,3.261l-3.071-.909a1.75,1.75,0,0,0-2.17,1.189h0l-1.468,5.033a1.748,1.748,0,0,0,1.188,2.169h0l3.1.9a16.484,16.484,0,0,0,.427,4.163l-2.821,1.547a1.75,1.75,0,0,0-.693,2.374l2.522,4.6a1.751,1.751,0,0,0,1.536.908,1.732,1.732,0,0,0,.838-.216l2.822-1.547a16.48,16.48,0,0,0,3.256,2.612l-.9,3.079a1.749,1.749,0,0,0,1.187,2.17h0l5.033,1.468a1.745,1.745,0,0,0,2.17-1.187v0l.9-3.1c.137,0,.274.006.409.006a16.458,16.458,0,0,0,3.754-.434l1.547,2.821a1.749,1.749,0,0,0,2.375.693l4.6-2.522a1.749,1.749,0,0,0,.693-2.374l-1.547-2.821a16.476,16.476,0,0,0,2.619-3.261l3.072.908a1.748,1.748,0,0,0,2.168-1.188h0l1.484-5.042a1.75,1.75,0,0,0-1.188-2.17h0l-3.091-.907a16.517,16.517,0,0,0-.45-4.151l2.821-1.547a1.749,1.749,0,0,0,.693-2.374l-2.522-4.6a1.749,1.749,0,0,0-2.374-.692l-2.822,1.547a16.463,16.463,0,0,0-3.256-2.612l.9-3.08a1.751,1.751,0,0,0-1.188-2.169h0l-5.042-1.484a1.723,1.723,0,0,0-.492-.071l.047,1.582,5.047,1.485a.173.173,0,0,1,.119.213l-.905,3.079a1.575,1.575,0,0,0,.689,1.787,14.948,14.948,0,0,1,2.946,2.363,1.575,1.575,0,0,0,1.89.287l2.822-1.547a.154.154,0,0,1,.081-.022.175.175,0,0,1,.155.089l2.522,4.6a.173.173,0,0,1-.069.236l-2.821,1.547a1.575,1.575,0,0,0-.774,1.748,14.966,14.966,0,0,1,.407,3.755,1.576,1.576,0,0,0,1.132,1.54l3.094.91a.173.173,0,0,1,.12.213l-1.484,5.042,0,.006a.177.177,0,0,1-.189.118h-.022l-3.071-.909a1.569,1.569,0,0,0-1.789.688,14.987,14.987,0,0,1-2.37,2.949,1.574,1.574,0,0,0-.288,1.891l1.547,2.821a.174.174,0,0,1-.069.236l-4.6,2.522a.154.154,0,0,1-.081.022.174.174,0,0,1-.155-.091l-1.547-2.821a1.577,1.577,0,0,0-1.74-.776,14.9,14.9,0,0,1-3.4.392c-.124,0-.246,0-.369,0h-.04a1.578,1.578,0,0,0-1.512,1.134l-.9,3.1a.175.175,0,0,1-.19.119h-.026l-5.035-1.468a.173.173,0,0,1-.119-.214l.9-3.078a1.578,1.578,0,0,0-.689-1.788,14.89,14.89,0,0,1-2.946-2.362,1.574,1.574,0,0,0-1.89-.287l-2.821,1.547a.177.177,0,0,1-.082.022.174.174,0,0,1-.155-.091l-2.522-4.6a.174.174,0,0,1,.069-.236l2.821-1.548a1.572,1.572,0,0,0,.776-1.738,14.942,14.942,0,0,1-.387-3.766,1.575,1.575,0,0,0-1.133-1.551l-3.1-.9a.174.174,0,0,1-.119-.217l1.469-5.034a.176.176,0,0,1,.189-.12h.022l3.071.909a1.577,1.577,0,0,0,1.789-.688,14.929,14.929,0,0,1,2.37-2.95,1.575,1.575,0,0,0,.287-1.891l-1.547-2.822a.17.17,0,0,1-.014-.133.168.168,0,0,1,.083-.1l4.6-2.523a.165.165,0,0,1,.081-.022.176.176,0,0,1,.155.091l1.547,2.822a1.578,1.578,0,0,0,1.381.818,1.556,1.556,0,0,0,.363-.044,14.975,14.975,0,0,1,3.449-.4l.31,0h.033a1.577,1.577,0,0,0,1.512-1.134l.9-3.1a.176.176,0,0,1,.166-.126v-1.575a1.751,1.751,0,0,0-1.678,1.259v0l-.9,3.1c-.114,0-.229,0-.343,0a16.446,16.446,0,0,0-3.812.447l-1.547-2.822a1.746,1.746,0,0,0-2.375-.692l-4.6,2.522A1.749,1.749,0,0,0,1531.95,1251.873Z" transform="translate(-1483.418 -1245.686)" fill="#5f5f5f"/>
          <path id="Path-14" data-name="Path" d="M1538.97,1257.456a7.867,7.867,0,1,0,3.776-.97A7.87,7.87,0,0,0,1538.97,1257.456Zm9.3,3.874a6.291,6.291,0,1,1-5.527-3.27A6.3,6.3,0,0,1,1548.273,1261.33Z" transform="translate(-1481.139 -1243.404)" fill="#5f5f5f"/>
        </g>
      </g>
    </g>
  </g>
</svg>
