<svg id="icons_spite_technology_200" xmlns="http://www.w3.org/2000/svg" width="1200" height="200.433" viewBox="0 0 1200 200.433">
  <g id="icons_spite_technology_200_01">
    <g id="icons_spite_technology_200-2" data-name="icons_spite_technology_200" transform="translate(0 100)">
      <g id="icons_spite_technology_icon_3000">
        <rect id="Rectangle_2" data-name="Rectangle 2" width="200" height="100" fill="#e2e2e2" opacity="0"/>
        <g id="Icn_1000" transform="translate(0 -1)">
          <path id="Circle" d="M45.912,89.124A43.3,43.3,0,1,1,85.4,27.934a1.252,1.252,0,0,0,1.145.749h0A1.283,1.283,0,0,0,87.7,26.867a45.837,45.837,0,1,0,.013,37.893,1.271,1.271,0,0,0-1.171-1.778h0a1.252,1.252,0,0,0-1.145.749A43.434,43.434,0,0,1,45.912,89.124Z" transform="translate(54 9.002)" fill="#8c8c8c"/>
          <g id="Path_16" data-name="Path 16" transform="translate(67 54.555)" fill="#1863e4">
            <path d="M 54.18109130859375 13.08599662780762 C 52.08597183227539 13.08599662780762 50.46744155883789 12.08860683441162 49.37045288085938 10.12151718139648 C 48.28683090209961 8.178377151489258 47.72604370117188 5.34149694442749 47.70366287231445 1.689687013626099 L 47.70366287231445 -2.995592832565308 C 47.70366287231445 -6.707912921905518 48.24450302124023 -9.584672927856445 49.31115341186523 -11.54597282409668 C 50.39128112792969 -13.53204250335693 52.01849365234375 -14.5390625 54.1475715637207 -14.5390625 C 56.24221420288086 -14.5390625 57.85774230957031 -13.56661319732666 58.94930267333984 -11.64872264862061 C 60.02765274047852 -9.754022598266602 60.5914306640625 -6.960052967071533 60.62499237060547 -3.344422817230225 L 60.62500381469727 1.469327092170715 C 60.62500381469727 5.254726886749268 60.08125305175781 8.162457466125488 59.00884246826172 10.11173725128174 C 57.92307281494141 12.08531665802002 56.29878234863281 13.08599662780762 54.18109130859375 13.08599662780762 Z M 54.1475715637207 -12.38598251342773 C 52.74420166015625 -12.38598251342773 51.70331192016602 -11.68162250518799 50.96542358398438 -10.23266315460205 C 50.22350311279297 -8.775822639465332 49.83051300048828 -6.570542812347412 49.79737091064453 -3.678072929382324 L 49.79738235473633 1.714357018470764 C 49.79738235473633 4.656257152557373 50.17967224121094 6.960697174072266 50.93362426757813 8.563687324523926 C 51.6834716796875 10.15793704986572 52.74573135375977 10.93291664123535 54.18109130859375 10.93291664123535 C 55.57224273681641 10.93291664123535 56.60736083984375 10.19926738739014 57.3455810546875 8.690056800842285 C 58.0880241394043 7.172246932983398 58.47567367553711 4.905006885528564 58.49776077270508 1.951307058334351 L 58.49776077270508 -3.295522928237915 C 58.49776077270508 -6.309932708740234 58.12689208984375 -8.610993385314941 57.39546203613281 -10.13480281829834 C 56.66836166381836 -11.64961338043213 55.60596084594727 -12.38598251342773 54.1475715637207 -12.38598251342773 Z M 38.51690292358398 13.08599662780762 C 36.42178344726563 13.08599662780762 34.80325317382813 12.08860683441162 33.70626068115234 10.12151718139648 C 32.62264251708984 8.178377151489258 32.06185150146484 5.34149694442749 32.03947067260742 1.689687013626099 L 32.03947067260742 -2.995592832565308 C 32.03947067260742 -6.707912921905518 32.5803108215332 -9.584672927856445 33.6469612121582 -11.54597282409668 C 34.72709274291992 -13.53204250335693 36.35430145263672 -14.5390625 38.48338317871094 -14.5390625 C 40.57803344726563 -14.5390625 42.19356155395508 -13.56661319732666 43.28511428833008 -11.64872264862061 C 44.36346435546875 -9.754033088684082 44.92724227905273 -6.960062980651855 44.9608039855957 -3.344422817230225 L 44.96081161499023 1.469327092170715 C 44.96081161499023 5.254716873168945 44.41706085205078 8.162446975708008 43.34466171264648 10.11173725128174 C 42.25889205932617 12.08531665802002 40.63460159301758 13.08599662780762 38.51690292358398 13.08599662780762 Z M 38.48338317871094 -12.38598251342773 C 37.08002090454102 -12.38598251342773 36.03913116455078 -11.68162250518799 35.30123138427734 -10.23266315460205 C 34.55931091308594 -8.775822639465332 34.16632080078125 -6.570542812347412 34.13318252563477 -3.678072929382324 L 34.13319396972656 1.714357018470764 C 34.13319396972656 4.656257152557373 34.51548385620117 6.960697174072266 35.26943206787109 8.563687324523926 C 36.01928329467773 10.15793704986572 37.08154296875 10.93291664123535 38.51690292358398 10.93291664123535 C 39.90805435180664 10.93291664123535 40.94317245483398 10.19926738739014 41.68140411376953 8.690056800842285 C 42.42383193969727 7.172246932983398 42.81148147583008 4.905006885528564 42.83358383178711 1.951307058334351 L 42.83358383178711 -3.295522928237915 C 42.83358383178711 -6.309913158416748 42.46271133422852 -8.610973358154297 41.73128128051758 -10.13480281829834 C 41.00417327880859 -11.64961338043213 39.9417724609375 -12.38598251342773 38.48338317871094 -12.38598251342773 Z M 22.85271263122559 13.08599662780762 C 20.75759315490723 13.08599662780762 19.13906288146973 12.08860683441162 18.04208183288574 10.12151718139648 C 16.95845222473145 8.178386688232422 16.39766311645508 5.341506958007813 16.37528228759766 1.689687013626099 L 16.37528228759766 -2.995592832565308 C 16.37528228759766 -6.707912921905518 16.91612243652344 -9.584672927856445 17.98277282714844 -11.54597282409668 C 19.06290245056152 -13.53204250335693 20.69011306762695 -14.5390625 22.81919288635254 -14.5390625 C 24.91383171081543 -14.5390625 26.52936172485352 -13.56661319732666 27.62092208862305 -11.64872264862061 C 28.69927215576172 -9.754022598266602 29.26305198669434 -6.960052967071533 29.29661178588867 -3.344422817230225 L 29.29662322998047 1.469327092170715 C 29.29662322998047 5.254716873168945 28.75287246704102 8.162446975708008 27.68047332763672 10.11173725128174 C 26.59470176696777 12.08531665802002 24.97041320800781 13.08599662780762 22.85271263122559 13.08599662780762 Z M 22.81919288635254 -12.38598251342773 C 21.41583251953125 -12.38598251342773 20.37494277954102 -11.68162250518799 19.63704299926758 -10.23266315460205 C 18.89512252807617 -8.775822639465332 18.50213241577148 -6.570542812347412 18.46899223327637 -3.678072929382324 L 18.46900177001953 1.714357018470764 C 18.46900177001953 4.656257152557373 18.85129165649414 6.960697174072266 19.6052417755127 8.563687324523926 C 20.35509300231934 10.15793704986572 21.4173526763916 10.93291664123535 22.85271263122559 10.93291664123535 C 24.24386215209961 10.93291664123535 25.27898216247559 10.19926738739014 26.0172119140625 8.690056800842285 C 26.75964164733887 7.172246932983398 27.14729309082031 4.905006885528564 27.16939163208008 1.951307058334351 L 27.16939163208008 -3.295522928237915 C 27.16939163208008 -6.309913158416748 26.79852294921875 -8.610973358154297 26.06709289550781 -10.13480281829834 C 25.3399829864502 -11.64961338043213 24.2775821685791 -12.38598251342773 22.81919288635254 -12.38598251342773 Z M 9.157242774963379 12.7200174331665 L 9.032242774963379 12.7200174331665 L 7.155002593994141 12.7200174331665 L 7.030002593994141 12.7200174331665 L 7.030002593994141 12.5950174331665 L 7.030002593994141 -11.15810585021973 L 1.695422530174255 -8.555883407592773 L 1.515622496604919 -8.468182563781738 L 1.515622496604919 -8.668232917785645 L 1.515622496604919 -10.75429248809814 L 1.515622496604919 -10.83304309844971 L 1.586662530899048 -10.86704254150391 L 8.659822463989258 -14.25233268737793 L 8.685412406921387 -14.26458263397217 L 8.71378231048584 -14.26458263397217 L 9.032242774963379 -14.26458263397217 L 9.157242774963379 -14.26458263397217 L 9.157242774963379 -14.13958263397217 L 9.157242774963379 12.5950174331665 L 9.157242774963379 12.7200174331665 Z" stroke="none"/>
            <path d="M 54.18109130859375 12.96099662780762 C 56.25946426391602 12.96099662780762 57.83220291137695 11.99115753173828 58.89932250976563 10.05148696899414 C 59.9664421081543 8.111806869506836 60.50000381469727 5.251087188720703 60.50000381469727 1.469327092170715 L 60.50000381469727 -3.343262910842896 C 60.46648406982422 -6.954233169555664 59.91336059570313 -9.702113151550293 58.84066390991211 -11.58689308166504 C 57.76795196533203 -13.47167301177979 56.20359420776367 -14.4140625 54.1475715637207 -14.4140625 C 52.05803298950195 -14.4140625 50.48249435424805 -13.43812274932861 49.42096328735352 -11.486252784729 C 48.35943222045898 -9.53437328338623 47.82866287231445 -6.704153060913086 47.82866287231445 -2.995592832565308 L 47.82866287231445 1.68891704082489 C 47.85101318359375 5.336487293243408 48.40133285522461 8.127057075500488 49.47962188720703 10.06063747406006 C 50.55792236328125 11.99420738220215 52.12507247924805 12.96099662780762 54.18109130859375 12.96099662780762 M 54.1475715637207 -12.51098251342773 C 55.64488220214844 -12.51098251342773 56.76509094238281 -11.73695278167725 57.50815200805664 -10.18889331817627 C 58.2512321472168 -8.640823364257813 58.62276077270508 -6.343032836914063 58.62276077270508 -3.295522928237915 L 58.62276077270508 1.952247023582458 C 58.60042190551758 4.938766956329346 58.21212387084961 7.203017234802246 57.4578742980957 8.744976997375488 C 56.70363235473633 10.28693675994873 55.61137390136719 11.05791664123535 54.18109130859375 11.05791664123535 C 52.70612335205078 11.05791664123535 51.58593368530273 10.24423694610596 50.82051086425781 8.616887092590332 C 50.05509185791016 6.989527225494385 49.67238235473633 4.688686847686768 49.67238235473633 1.714357018470764 L 49.67238235473633 -3.679502964019775 C 49.70590209960938 -6.605032920837402 50.09978103637695 -8.808333396911621 50.85403060913086 -10.28939247131348 C 51.60827255249023 -11.77045249938965 52.70612335205078 -12.51098251342773 54.1475715637207 -12.51098251342773 M 38.51690292358398 12.96099662780762 C 40.59527206420898 12.96099662780762 42.16802215576172 11.99115753173828 43.23514175415039 10.05148696899414 C 44.30225372314453 8.111806869506836 44.83581161499023 5.251087188720703 44.83581161499023 1.469327092170715 L 44.83581161499023 -3.343262910842896 C 44.80229187011719 -6.954233169555664 44.24918365478516 -9.702113151550293 43.17647171020508 -11.58689308166504 C 42.1037712097168 -13.47167301177979 40.53940200805664 -14.4140625 38.48338317871094 -14.4140625 C 36.39384078979492 -14.4140625 34.81830215454102 -13.43812274932861 33.75677108764648 -11.486252784729 C 32.69524383544922 -9.53437328338623 32.16447067260742 -6.704153060913086 32.16447067260742 -2.995592832565308 L 32.16447067260742 1.68891704082489 C 32.18682098388672 5.336487293243408 32.73714065551758 8.127057075500488 33.81543350219727 10.06063747406006 C 34.89373397827148 11.99420738220215 36.46089172363281 12.96099662780762 38.51690292358398 12.96099662780762 M 38.48338317871094 -12.51098251342773 C 39.9807014465332 -12.51098251342773 41.10090255737305 -11.73695278167725 41.84397125244141 -10.18889331817627 C 42.58704376220703 -8.640823364257813 42.95858383178711 -6.343032836914063 42.95858383178711 -3.295522928237915 L 42.95858383178711 1.952247023582458 C 42.93623352050781 4.938766956329346 42.54793167114258 7.203017234802246 41.79369354248047 8.744976997375488 C 41.03944396972656 10.28693675994873 39.94718170166016 11.05791664123535 38.51690292358398 11.05791664123535 C 37.04193115234375 11.05791664123535 35.9217414855957 10.24423694610596 35.15632247924805 8.616887092590332 C 34.39090347290039 6.989527225494385 34.00819396972656 4.688686847686768 34.00819396972656 1.714357018470764 L 34.00819396972656 -3.679502964019775 C 34.04171371459961 -6.605032920837402 34.43559265136719 -8.808333396911621 35.18984222412109 -10.28939247131348 C 35.944091796875 -11.77045249938965 37.04193115234375 -12.51098251342773 38.48338317871094 -12.51098251342773 M 22.85271263122559 12.96099662780762 C 24.93108177185059 12.96099662780762 26.50383186340332 11.99115753173828 27.57095336914063 10.05148696899414 C 28.63806343078613 8.111806869506836 29.17162322998047 5.251087188720703 29.17162322998047 1.469327092170715 L 29.17162322998047 -3.343262910842896 C 29.13810157775879 -6.954233169555664 28.58498191833496 -9.702113151550293 27.51228332519531 -11.58689308166504 C 26.43957328796387 -13.47167301177979 24.87521171569824 -14.4140625 22.81919288635254 -14.4140625 C 20.72965240478516 -14.4140625 19.15411186218262 -13.43812274932861 18.09258270263672 -11.486252784729 C 17.03105163574219 -9.53437328338623 16.50028228759766 -6.704153060913086 16.50028228759766 -2.995592832565308 L 16.50028228759766 1.68891704082489 C 16.52263259887695 5.336487293243408 17.07295227050781 8.127057075500488 18.15125274658203 10.06063747406006 C 19.22954177856445 11.99420738220215 20.79669189453125 12.96099662780762 22.85271263122559 12.96099662780762 M 22.81919288635254 -12.51098251342773 C 24.31651306152344 -12.51098251342773 25.43671226501465 -11.73695278167725 26.17978286743164 -10.18889331817627 C 26.9228515625 -8.640823364257813 27.29439163208008 -6.343032836914063 27.29439163208008 -3.295522928237915 L 27.29439163208008 1.952247023582458 C 27.27204322814941 4.938766956329346 26.88374328613281 7.203017234802246 26.12950325012207 8.744976997375488 C 25.37525177001953 10.28693675994873 24.28299331665039 11.05791664123535 22.85271263122559 11.05791664123535 C 21.37774276733398 11.05791664123535 20.25755310058594 10.24423694610596 19.49213218688965 8.616887092590332 C 18.72671318054199 6.989527225494385 18.34400177001953 4.688686847686768 18.34400177001953 1.714357018470764 L 18.34400177001953 -3.679502964019775 C 18.37752342224121 -6.605032920837402 18.77140235900879 -8.808333396911621 19.5256519317627 -10.28939247131348 C 20.27990341186523 -11.77045249938965 21.37774276733398 -12.51098251342773 22.81919288635254 -12.51098251342773 M 9.032242774963379 12.5950174331665 L 9.032242774963379 -14.13958263397217 L 8.71378231048584 -14.13958263397217 L 1.640622496604919 -10.75429248809814 L 1.640622496604919 -8.668232917785645 L 7.155002593994141 -11.35816287994385 L 7.155002593994141 12.5950174331665 L 9.032242774963379 12.5950174331665 M 54.18109130859375 13.21099662780762 C 52.03726196289063 13.21099662780762 50.38199234008789 12.19202709197998 49.26128387451172 10.18239688873291 C 48.16728210449219 8.220657348632813 47.60117340087891 5.363556861877441 47.57866287231445 1.690447092056274 L 47.57866287231445 -2.995592832565308 C 47.57866287231445 -6.729012966156006 48.12461090087891 -9.625863075256348 49.20134353637695 -11.60569286346436 C 50.30502319335938 -13.63508319854736 51.96918106079102 -14.6640625 54.1475715637207 -14.6640625 C 56.29044342041016 -14.6640625 57.94252395629883 -13.67036247253418 59.05793380737305 -11.71055316925049 C 60.14694213867188 -9.79713249206543 60.71623229980469 -6.982742786407471 60.74999237060547 -3.345582962036133 L 60.75000381469727 1.469327092170715 C 60.75000381469727 5.276037216186523 60.20104217529297 8.204036712646484 59.11836242675781 10.1719970703125 C 58.00895309448242 12.18852710723877 56.34781265258789 13.21099662780762 54.18109130859375 13.21099662780762 Z M 54.1475715637207 -12.26098251342773 C 52.79576110839844 -12.26098251342773 51.79130172729492 -11.57896327972412 51.07681274414063 -10.17594337463379 C 50.34369277954102 -8.736382484436035 49.95528411865234 -6.549703121185303 49.92236328125 -3.676642894744873 L 49.92238235473633 1.714357018470764 C 49.92238235473633 4.637717247009277 50.3006706237793 6.924267292022705 51.0467414855957 8.510486602783203 C 51.77386093139648 10.05641746520996 52.79912185668945 10.80791664123535 54.18109130859375 10.80791664123535 C 55.51975250244141 10.80791664123535 56.51814270019531 10.09718704223633 57.23330307006836 8.635127067565918 C 57.96744155883789 7.13426685333252 58.35081100463867 4.885197162628174 58.37277221679688 1.950377106666565 L 58.37276077270508 -3.295522928237915 C 58.37276077270508 -6.29105281829834 58.00603103637695 -8.573923110961914 57.28277206420898 -10.08071327209473 C 56.57857131958008 -11.54781246185303 55.55304336547852 -12.26098251342773 54.1475715637207 -12.26098251342773 Z M 38.51690292358398 13.21099662780762 C 36.37307357788086 13.21099662780762 34.71780395507813 12.19202709197998 33.59709167480469 10.18239688873291 C 32.50309371948242 8.220657348632813 31.93698310852051 5.363556861877441 31.91447257995605 1.690447092056274 L 31.91447257995605 -2.995592832565308 C 31.91447257995605 -6.729012966156006 32.46042251586914 -9.625863075256348 33.53715133666992 -11.60569286346436 C 34.64083099365234 -13.63508319854736 36.30499267578125 -14.6640625 38.48338317871094 -14.6640625 C 40.62626266479492 -14.6640625 42.27834320068359 -13.67036247253418 43.39374160766602 -11.71055316925049 C 44.48275375366211 -9.79714298248291 45.05204391479492 -6.982762813568115 45.0858039855957 -3.345582962036133 L 45.08581161499023 1.469327092170715 C 45.08581161499023 5.276027202606201 44.5368537902832 8.20402717590332 43.45418167114258 10.17198753356934 C 42.34477233886719 12.18852710723877 40.68363189697266 13.21099662780762 38.51690292358398 13.21099662780762 Z M 38.48338317871094 -12.26098251342773 C 37.13158416748047 -12.26098251342773 36.12712097167969 -11.57896327972412 35.41262435913086 -10.17594337463379 C 34.67950439453125 -8.736382484436035 34.29109191894531 -6.549703121185303 34.25817108154297 -3.676642894744873 L 34.25819396972656 1.714357018470764 C 34.25819396972656 4.637717247009277 34.63648223876953 6.924267292022705 35.38255310058594 8.510486602783203 C 36.10967254638672 10.05641746520996 37.13493347167969 10.80791664123535 38.51690292358398 10.80791664123535 C 39.85556411743164 10.80791664123535 40.85395431518555 10.09718704223633 41.56912231445313 8.635127067565918 C 42.30325317382813 7.134276866912842 42.68662261962891 4.885197162628174 42.70859146118164 1.950377106666565 L 42.70858383178711 -3.295522928237915 C 42.70858383178711 -6.291032791137695 42.34185409545898 -8.57390308380127 41.61859130859375 -10.08071327209473 C 40.91438293457031 -11.54781246185303 39.88884353637695 -12.26098251342773 38.48338317871094 -12.26098251342773 Z M 22.85271263122559 13.21099662780762 C 20.70887184143066 13.21099662780762 19.05361175537109 12.19202709197998 17.93291282653809 10.18239688873291 C 16.83891296386719 8.220666885375977 16.27279281616211 5.363566875457764 16.25028228759766 1.690447092056274 L 16.25028228759766 -2.995592832565308 C 16.25028228759766 -6.729012966156006 16.79623222351074 -9.625863075256348 17.87296295166016 -11.60569286346436 C 18.97664260864258 -13.63508319854736 20.64080238342285 -14.6640625 22.81919288635254 -14.6640625 C 24.96206283569336 -14.6640625 26.61414337158203 -13.67036247253418 27.72955322265625 -11.71055316925049 C 28.81856155395508 -9.79713249206543 29.38785171508789 -6.982742786407471 29.42161178588867 -3.345582962036133 L 29.42162322998047 1.469327092170715 C 29.42162322998047 5.276027202606201 28.87266159057617 8.20402717590332 27.78999328613281 10.17198753356934 C 26.68058204650879 12.18852710723877 25.01944160461426 13.21099662780762 22.85271263122559 13.21099662780762 Z M 22.81919288635254 -12.26098251342773 C 21.46739196777344 -12.26098251342773 20.46293258666992 -11.57896327972412 19.74843215942383 -10.17594337463379 C 19.01531219482422 -8.736382484436035 18.62690162658691 -6.549703121185303 18.5939826965332 -3.676642894744873 L 18.59400177001953 1.714357018470764 C 18.59400177001953 4.637717247009277 18.97229194641113 6.924267292022705 19.71836280822754 8.510486602783203 C 20.44548225402832 10.05641746520996 21.47074317932129 10.80791664123535 22.85271263122559 10.80791664123535 C 24.19137191772461 10.80791664123535 25.18976211547852 10.09718704223633 25.90493202209473 8.635127067565918 C 26.63906288146973 7.134276866912842 27.02243232727051 4.885197162628174 27.04440307617188 1.950377106666565 L 27.04439163208008 -3.295522928237915 C 27.04439163208008 -6.291032791137695 26.67766189575195 -8.57390308380127 25.95440292358398 -10.08071327209473 C 25.25019264221191 -11.54781246185303 24.22465324401855 -12.26098251342773 22.81919288635254 -12.26098251342773 Z M 9.282242774963379 12.8450174331665 L 9.032242774963379 12.8450174331665 L 7.155002593994141 12.8450174331665 L 6.905002593994141 12.8450174331665 L 6.905002593994141 12.5950174331665 L 6.905002593994141 -10.9580545425415 L 1.750232458114624 -8.44354248046875 L 1.390622496604919 -8.268122673034668 L 1.390622496604919 -8.668232917785645 L 1.390622496604919 -10.75429248809814 L 1.390622496604919 -10.91180324554443 L 1.532692551612854 -10.97979259490967 L 8.605852127075195 -14.36508274078369 L 8.657042503356934 -14.38958263397217 L 8.71378231048584 -14.38958263397217 L 9.032242774963379 -14.38958263397217 L 9.282242774963379 -14.38958263397217 L 9.282242774963379 -14.13958263397217 L 9.282242774963379 12.5950174331665 L 9.282242774963379 12.8450174331665 Z" stroke="none" fill="#1863e4"/>
          </g>
          <path id="Path" d="M83.071,37.621H63.6a1.287,1.287,0,0,1,0-2.541h19.47a1.287,1.287,0,0,1,0,2.541Z" transform="translate(69.847 18.484)" fill="#1863e4"/>
          <path id="Path-2" data-name="Path" d="M20.551,2.541H1.082A1.189,1.189,0,0,1,0,1.27,1.189,1.189,0,0,1,1.082,0h19.47a1.189,1.189,0,0,1,1.082,1.27A1.189,1.189,0,0,1,20.551,2.541Z" transform="translate(144.454 44.018) rotate(90)" fill="#1863e4"/>
        </g>
      </g>
      <g id="icons_spite_technology_icon_speed" transform="translate(201)">
        <rect id="Rectangle_2-2" data-name="Rectangle 2" width="200" height="100" transform="translate(-1)" fill="#e2e2e2" opacity="0"/>
        <g id="Icn_Speed" transform="translate(13 1)">
          <path id="Circle-2" data-name="Circle" d="M.294,81.157a1.309,1.309,0,1,1,2.032-1.651A43.349,43.349,0,1,0,4.343,23.051a1.265,1.265,0,0,1-.943.42,1.315,1.315,0,0,1-.971-2.2A45.849,45.849,0,0,1,34.864,6.509V2.621H29.622a1.311,1.311,0,0,1,0-2.621h13.1a1.311,1.311,0,0,1,0,2.621H37.485V6.509c.274.008.55.018.825.03A45.975,45.975,0,1,1,.294,81.157Z" transform="translate(49.137)" fill="#8c8c8c"/>
          <path id="Color_Shape" d="M17.337,45.225a1.311,1.311,0,0,1,0-2.621H41.909a1.311,1.311,0,0,1,0,2.621ZM25.161,34.57a1.31,1.31,0,1,1,0-2.62h25.8a1.31,1.31,0,0,1,0,2.62Zm57.875-.7L71.006,21.844A1.306,1.306,0,1,1,72.854,20L83.967,31.109l21.44-21.426a1.306,1.306,0,0,1,1.847,1.847L84.9,33.888a1.346,1.346,0,0,1-.931.38A1.272,1.272,0,0,1,83.036,33.874ZM23.588,23.916a1.311,1.311,0,0,1,0-2.621H43.639a1.311,1.311,0,0,1,0,2.621Zm-13.1-10.641a1.31,1.31,0,1,1,0-2.62H50.964a1.31,1.31,0,0,1,0,2.62ZM1.311,2.621A1.311,1.311,0,0,1,1.311,0h45.04a1.311,1.311,0,1,1,0,2.621Z" transform="translate(0 29.905)" fill="#1863e4"/>
        </g>
      </g>
      <g id="icons_spite_technology_icon_price" transform="translate(415 -1)">
        <rect id="Rectangle_2-3" data-name="Rectangle 2" width="200" height="100" transform="translate(-15 1)" fill="#e2e2e2" opacity="0"/>
        <g id="Icn_Price" transform="translate(39 9)">
          <path id="Circle-3" data-name="Circle" d="M42.475,91.544A45.851,45.851,0,0,1,36.274.978a1.271,1.271,0,0,1,.509,2.491,43.341,43.341,0,1,0,18.07,0,1.263,1.263,0,0,1-1.017-1.233A1.292,1.292,0,0,1,55.373.966a45.85,45.85,0,0,1-9.519,90.7C44.738,91.666,43.609,91.626,42.475,91.544Zm2.5-57.26a3.153,3.153,0,0,1-2.16-2.122,3.185,3.185,0,0,1,1.766-3.85V1.271a1.271,1.271,0,1,1,2.542,0l-.013,27.042a3.224,3.224,0,0,1,1.919,2.91,3.174,3.174,0,0,1-3.173,3.18A3.4,3.4,0,0,1,44.979,34.285Z" transform="translate(0)" fill="#8c8c8c"/>
          <path id="Color_Shape-2" data-name="Color_Shape" d="M2.364,46.109A2.359,2.359,0,0,1,0,43.746V11.685A4.122,4.122,0,0,1,1.156,8.813L9.391.147a.461.461,0,0,1,.789.318V2.828a.5.5,0,0,1-.127.317L3,10.566a1.66,1.66,0,0,0-.444,1.118V43.568h21.6V11.685a1.6,1.6,0,0,0-.445-1.118L16.66,3.145a.5.5,0,0,1-.127-.317V.465A.455.455,0,0,1,17.32.147l8.234,8.667A4.139,4.139,0,0,1,26.7,11.685V43.746a2.359,2.359,0,0,1-2.364,2.363ZM12.455,39.4v-.918a4.711,4.711,0,0,1-3.733-4.606.97.97,0,0,1,.977-.989.988.988,0,0,1,.99.989,2.756,2.756,0,0,0,1.766,2.556V31.01a4.714,4.714,0,0,1,0-9.222v-.906a.981.981,0,0,1,.99-.99,1,1,0,0,1,.989.99v.895a4.725,4.725,0,0,1,3.733,4.617.989.989,0,1,1-1.978,0,2.756,2.756,0,0,0-1.767-2.556v5.418a4.713,4.713,0,0,1,.012,9.222V39.4a.99.99,0,1,1-1.979,0Zm1.967-2.968a2.74,2.74,0,0,0,0-5.123ZM10.689,26.394a2.761,2.761,0,0,0,1.766,2.567V23.839A2.728,2.728,0,0,0,10.689,26.394Z" transform="translate(32.5 17.796)" fill="#1863e4"/>
        </g>
      </g>
    </g>
    <g id="icons_spite_technology_200_hover">
      <g id="icons_spite_technology_icon_3000-2" data-name="icons_spite_technology_icon_3000">
        <rect id="Rectangle_2-4" data-name="Rectangle 2" width="200" height="100" fill="#e2e2e2" opacity="0"/>
        <g id="Icn_1000-2" data-name="Icn_1000" transform="translate(0 -1)">
          <path id="Circle-4" data-name="Circle" d="M45.912,89.124A43.3,43.3,0,1,1,85.4,27.934a1.252,1.252,0,0,0,1.145.749h0A1.283,1.283,0,0,0,87.7,26.867a45.837,45.837,0,1,0,.013,37.893,1.271,1.271,0,0,0-1.171-1.778h0a1.252,1.252,0,0,0-1.145.749A43.434,43.434,0,0,1,45.912,89.124Z" transform="translate(54 9.002)" fill="#8c8c8c"/>
          <g id="Path_16-2" data-name="Path 16" transform="translate(67 54.555)" fill="#1863e4">
            <path d="M 54.18109130859375 13.08599662780762 C 52.08597183227539 13.08599662780762 50.46744155883789 12.08860683441162 49.37045288085938 10.12151718139648 C 48.28683090209961 8.178377151489258 47.72604370117188 5.34149694442749 47.70366287231445 1.689687013626099 L 47.70366287231445 -2.995592832565308 C 47.70366287231445 -6.707912921905518 48.24450302124023 -9.584672927856445 49.31115341186523 -11.54597282409668 C 50.39128112792969 -13.53204250335693 52.01849365234375 -14.5390625 54.1475715637207 -14.5390625 C 56.24221420288086 -14.5390625 57.85774230957031 -13.56661319732666 58.94930267333984 -11.64872264862061 C 60.02765274047852 -9.754022598266602 60.5914306640625 -6.960052967071533 60.62499237060547 -3.344422817230225 L 60.62500381469727 1.469327092170715 C 60.62500381469727 5.254726886749268 60.08125305175781 8.162457466125488 59.00884246826172 10.11173725128174 C 57.92307281494141 12.08531665802002 56.29878234863281 13.08599662780762 54.18109130859375 13.08599662780762 Z M 54.1475715637207 -12.38598251342773 C 52.74420166015625 -12.38598251342773 51.70331192016602 -11.68162250518799 50.96542358398438 -10.23266315460205 C 50.22350311279297 -8.775822639465332 49.83051300048828 -6.570542812347412 49.79737091064453 -3.678072929382324 L 49.79738235473633 1.714357018470764 C 49.79738235473633 4.656257152557373 50.17967224121094 6.960697174072266 50.93362426757813 8.563687324523926 C 51.6834716796875 10.15793704986572 52.74573135375977 10.93291664123535 54.18109130859375 10.93291664123535 C 55.57224273681641 10.93291664123535 56.60736083984375 10.19926738739014 57.3455810546875 8.690056800842285 C 58.0880241394043 7.172246932983398 58.47567367553711 4.905006885528564 58.49776077270508 1.951307058334351 L 58.49776077270508 -3.295522928237915 C 58.49776077270508 -6.309932708740234 58.12689208984375 -8.610993385314941 57.39546203613281 -10.13480281829834 C 56.66836166381836 -11.64961338043213 55.60596084594727 -12.38598251342773 54.1475715637207 -12.38598251342773 Z M 38.51690292358398 13.08599662780762 C 36.42178344726563 13.08599662780762 34.80325317382813 12.08860683441162 33.70626068115234 10.12151718139648 C 32.62264251708984 8.178377151489258 32.06185150146484 5.34149694442749 32.03947067260742 1.689687013626099 L 32.03947067260742 -2.995592832565308 C 32.03947067260742 -6.707912921905518 32.5803108215332 -9.584672927856445 33.6469612121582 -11.54597282409668 C 34.72709274291992 -13.53204250335693 36.35430145263672 -14.5390625 38.48338317871094 -14.5390625 C 40.57803344726563 -14.5390625 42.19356155395508 -13.56661319732666 43.28511428833008 -11.64872264862061 C 44.36346435546875 -9.754033088684082 44.92724227905273 -6.960062980651855 44.9608039855957 -3.344422817230225 L 44.96081161499023 1.469327092170715 C 44.96081161499023 5.254716873168945 44.41706085205078 8.162446975708008 43.34466171264648 10.11173725128174 C 42.25889205932617 12.08531665802002 40.63460159301758 13.08599662780762 38.51690292358398 13.08599662780762 Z M 38.48338317871094 -12.38598251342773 C 37.08002090454102 -12.38598251342773 36.03913116455078 -11.68162250518799 35.30123138427734 -10.23266315460205 C 34.55931091308594 -8.775822639465332 34.16632080078125 -6.570542812347412 34.13318252563477 -3.678072929382324 L 34.13319396972656 1.714357018470764 C 34.13319396972656 4.656257152557373 34.51548385620117 6.960697174072266 35.26943206787109 8.563687324523926 C 36.01928329467773 10.15793704986572 37.08154296875 10.93291664123535 38.51690292358398 10.93291664123535 C 39.90805435180664 10.93291664123535 40.94317245483398 10.19926738739014 41.68140411376953 8.690056800842285 C 42.42383193969727 7.172246932983398 42.81148147583008 4.905006885528564 42.83358383178711 1.951307058334351 L 42.83358383178711 -3.295522928237915 C 42.83358383178711 -6.309913158416748 42.46271133422852 -8.610973358154297 41.73128128051758 -10.13480281829834 C 41.00417327880859 -11.64961338043213 39.9417724609375 -12.38598251342773 38.48338317871094 -12.38598251342773 Z M 22.85271263122559 13.08599662780762 C 20.75759315490723 13.08599662780762 19.13906288146973 12.08860683441162 18.04208183288574 10.12151718139648 C 16.95845222473145 8.178386688232422 16.39766311645508 5.341506958007813 16.37528228759766 1.689687013626099 L 16.37528228759766 -2.995592832565308 C 16.37528228759766 -6.707912921905518 16.91612243652344 -9.584672927856445 17.98277282714844 -11.54597282409668 C 19.06290245056152 -13.53204250335693 20.69011306762695 -14.5390625 22.81919288635254 -14.5390625 C 24.91383171081543 -14.5390625 26.52936172485352 -13.56661319732666 27.62092208862305 -11.64872264862061 C 28.69927215576172 -9.754022598266602 29.26305198669434 -6.960052967071533 29.29661178588867 -3.344422817230225 L 29.29662322998047 1.469327092170715 C 29.29662322998047 5.254716873168945 28.75287246704102 8.162446975708008 27.68047332763672 10.11173725128174 C 26.59470176696777 12.08531665802002 24.97041320800781 13.08599662780762 22.85271263122559 13.08599662780762 Z M 22.81919288635254 -12.38598251342773 C 21.41583251953125 -12.38598251342773 20.37494277954102 -11.68162250518799 19.63704299926758 -10.23266315460205 C 18.89512252807617 -8.775822639465332 18.50213241577148 -6.570542812347412 18.46899223327637 -3.678072929382324 L 18.46900177001953 1.714357018470764 C 18.46900177001953 4.656257152557373 18.85129165649414 6.960697174072266 19.6052417755127 8.563687324523926 C 20.35509300231934 10.15793704986572 21.4173526763916 10.93291664123535 22.85271263122559 10.93291664123535 C 24.24386215209961 10.93291664123535 25.27898216247559 10.19926738739014 26.0172119140625 8.690056800842285 C 26.75964164733887 7.172246932983398 27.14729309082031 4.905006885528564 27.16939163208008 1.951307058334351 L 27.16939163208008 -3.295522928237915 C 27.16939163208008 -6.309913158416748 26.79852294921875 -8.610973358154297 26.06709289550781 -10.13480281829834 C 25.3399829864502 -11.64961338043213 24.2775821685791 -12.38598251342773 22.81919288635254 -12.38598251342773 Z M 9.157242774963379 12.7200174331665 L 9.032242774963379 12.7200174331665 L 7.155002593994141 12.7200174331665 L 7.030002593994141 12.7200174331665 L 7.030002593994141 12.5950174331665 L 7.030002593994141 -11.15810585021973 L 1.695422530174255 -8.555883407592773 L 1.515622496604919 -8.468182563781738 L 1.515622496604919 -8.668232917785645 L 1.515622496604919 -10.75429248809814 L 1.515622496604919 -10.83304309844971 L 1.586662530899048 -10.86704254150391 L 8.659822463989258 -14.25233268737793 L 8.685412406921387 -14.26458263397217 L 8.71378231048584 -14.26458263397217 L 9.032242774963379 -14.26458263397217 L 9.157242774963379 -14.26458263397217 L 9.157242774963379 -14.13958263397217 L 9.157242774963379 12.5950174331665 L 9.157242774963379 12.7200174331665 Z" stroke="none"/>
            <path d="M 54.18109130859375 12.96099662780762 C 56.25946426391602 12.96099662780762 57.83220291137695 11.99115753173828 58.89932250976563 10.05148696899414 C 59.9664421081543 8.111806869506836 60.50000381469727 5.251087188720703 60.50000381469727 1.469327092170715 L 60.50000381469727 -3.343262910842896 C 60.46648406982422 -6.954233169555664 59.91336059570313 -9.702113151550293 58.84066390991211 -11.58689308166504 C 57.76795196533203 -13.47167301177979 56.20359420776367 -14.4140625 54.1475715637207 -14.4140625 C 52.05803298950195 -14.4140625 50.48249435424805 -13.43812274932861 49.42096328735352 -11.486252784729 C 48.35943222045898 -9.53437328338623 47.82866287231445 -6.704153060913086 47.82866287231445 -2.995592832565308 L 47.82866287231445 1.68891704082489 C 47.85101318359375 5.336487293243408 48.40133285522461 8.127057075500488 49.47962188720703 10.06063747406006 C 50.55792236328125 11.99420738220215 52.12507247924805 12.96099662780762 54.18109130859375 12.96099662780762 M 54.1475715637207 -12.51098251342773 C 55.64488220214844 -12.51098251342773 56.76509094238281 -11.73695278167725 57.50815200805664 -10.18889331817627 C 58.2512321472168 -8.640823364257813 58.62276077270508 -6.343032836914063 58.62276077270508 -3.295522928237915 L 58.62276077270508 1.952247023582458 C 58.60042190551758 4.938766956329346 58.21212387084961 7.203017234802246 57.4578742980957 8.744976997375488 C 56.70363235473633 10.28693675994873 55.61137390136719 11.05791664123535 54.18109130859375 11.05791664123535 C 52.70612335205078 11.05791664123535 51.58593368530273 10.24423694610596 50.82051086425781 8.616887092590332 C 50.05509185791016 6.989527225494385 49.67238235473633 4.688686847686768 49.67238235473633 1.714357018470764 L 49.67238235473633 -3.679502964019775 C 49.70590209960938 -6.605032920837402 50.09978103637695 -8.808333396911621 50.85403060913086 -10.28939247131348 C 51.60827255249023 -11.77045249938965 52.70612335205078 -12.51098251342773 54.1475715637207 -12.51098251342773 M 38.51690292358398 12.96099662780762 C 40.59527206420898 12.96099662780762 42.16802215576172 11.99115753173828 43.23514175415039 10.05148696899414 C 44.30225372314453 8.111806869506836 44.83581161499023 5.251087188720703 44.83581161499023 1.469327092170715 L 44.83581161499023 -3.343262910842896 C 44.80229187011719 -6.954233169555664 44.24918365478516 -9.702113151550293 43.17647171020508 -11.58689308166504 C 42.1037712097168 -13.47167301177979 40.53940200805664 -14.4140625 38.48338317871094 -14.4140625 C 36.39384078979492 -14.4140625 34.81830215454102 -13.43812274932861 33.75677108764648 -11.486252784729 C 32.69524383544922 -9.53437328338623 32.16447067260742 -6.704153060913086 32.16447067260742 -2.995592832565308 L 32.16447067260742 1.68891704082489 C 32.18682098388672 5.336487293243408 32.73714065551758 8.127057075500488 33.81543350219727 10.06063747406006 C 34.89373397827148 11.99420738220215 36.46089172363281 12.96099662780762 38.51690292358398 12.96099662780762 M 38.48338317871094 -12.51098251342773 C 39.9807014465332 -12.51098251342773 41.10090255737305 -11.73695278167725 41.84397125244141 -10.18889331817627 C 42.58704376220703 -8.640823364257813 42.95858383178711 -6.343032836914063 42.95858383178711 -3.295522928237915 L 42.95858383178711 1.952247023582458 C 42.93623352050781 4.938766956329346 42.54793167114258 7.203017234802246 41.79369354248047 8.744976997375488 C 41.03944396972656 10.28693675994873 39.94718170166016 11.05791664123535 38.51690292358398 11.05791664123535 C 37.04193115234375 11.05791664123535 35.9217414855957 10.24423694610596 35.15632247924805 8.616887092590332 C 34.39090347290039 6.989527225494385 34.00819396972656 4.688686847686768 34.00819396972656 1.714357018470764 L 34.00819396972656 -3.679502964019775 C 34.04171371459961 -6.605032920837402 34.43559265136719 -8.808333396911621 35.18984222412109 -10.28939247131348 C 35.944091796875 -11.77045249938965 37.04193115234375 -12.51098251342773 38.48338317871094 -12.51098251342773 M 22.85271263122559 12.96099662780762 C 24.93108177185059 12.96099662780762 26.50383186340332 11.99115753173828 27.57095336914063 10.05148696899414 C 28.63806343078613 8.111806869506836 29.17162322998047 5.251087188720703 29.17162322998047 1.469327092170715 L 29.17162322998047 -3.343262910842896 C 29.13810157775879 -6.954233169555664 28.58498191833496 -9.702113151550293 27.51228332519531 -11.58689308166504 C 26.43957328796387 -13.47167301177979 24.87521171569824 -14.4140625 22.81919288635254 -14.4140625 C 20.72965240478516 -14.4140625 19.15411186218262 -13.43812274932861 18.09258270263672 -11.486252784729 C 17.03105163574219 -9.53437328338623 16.50028228759766 -6.704153060913086 16.50028228759766 -2.995592832565308 L 16.50028228759766 1.68891704082489 C 16.52263259887695 5.336487293243408 17.07295227050781 8.127057075500488 18.15125274658203 10.06063747406006 C 19.22954177856445 11.99420738220215 20.79669189453125 12.96099662780762 22.85271263122559 12.96099662780762 M 22.81919288635254 -12.51098251342773 C 24.31651306152344 -12.51098251342773 25.43671226501465 -11.73695278167725 26.17978286743164 -10.18889331817627 C 26.9228515625 -8.640823364257813 27.29439163208008 -6.343032836914063 27.29439163208008 -3.295522928237915 L 27.29439163208008 1.952247023582458 C 27.27204322814941 4.938766956329346 26.88374328613281 7.203017234802246 26.12950325012207 8.744976997375488 C 25.37525177001953 10.28693675994873 24.28299331665039 11.05791664123535 22.85271263122559 11.05791664123535 C 21.37774276733398 11.05791664123535 20.25755310058594 10.24423694610596 19.49213218688965 8.616887092590332 C 18.72671318054199 6.989527225494385 18.34400177001953 4.688686847686768 18.34400177001953 1.714357018470764 L 18.34400177001953 -3.679502964019775 C 18.37752342224121 -6.605032920837402 18.77140235900879 -8.808333396911621 19.5256519317627 -10.28939247131348 C 20.27990341186523 -11.77045249938965 21.37774276733398 -12.51098251342773 22.81919288635254 -12.51098251342773 M 9.032242774963379 12.5950174331665 L 9.032242774963379 -14.13958263397217 L 8.71378231048584 -14.13958263397217 L 1.640622496604919 -10.75429248809814 L 1.640622496604919 -8.668232917785645 L 7.155002593994141 -11.35816287994385 L 7.155002593994141 12.5950174331665 L 9.032242774963379 12.5950174331665 M 54.18109130859375 13.21099662780762 C 52.03726196289063 13.21099662780762 50.38199234008789 12.19202709197998 49.26128387451172 10.18239688873291 C 48.16728210449219 8.220657348632813 47.60117340087891 5.363556861877441 47.57866287231445 1.690447092056274 L 47.57866287231445 -2.995592832565308 C 47.57866287231445 -6.729012966156006 48.12461090087891 -9.625863075256348 49.20134353637695 -11.60569286346436 C 50.30502319335938 -13.63508319854736 51.96918106079102 -14.6640625 54.1475715637207 -14.6640625 C 56.29044342041016 -14.6640625 57.94252395629883 -13.67036247253418 59.05793380737305 -11.71055316925049 C 60.14694213867188 -9.79713249206543 60.71623229980469 -6.982742786407471 60.74999237060547 -3.345582962036133 L 60.75000381469727 1.469327092170715 C 60.75000381469727 5.276037216186523 60.20104217529297 8.204036712646484 59.11836242675781 10.1719970703125 C 58.00895309448242 12.18852710723877 56.34781265258789 13.21099662780762 54.18109130859375 13.21099662780762 Z M 54.1475715637207 -12.26098251342773 C 52.79576110839844 -12.26098251342773 51.79130172729492 -11.57896327972412 51.07681274414063 -10.17594337463379 C 50.34369277954102 -8.736382484436035 49.95528411865234 -6.549703121185303 49.92236328125 -3.676642894744873 L 49.92238235473633 1.714357018470764 C 49.92238235473633 4.637717247009277 50.3006706237793 6.924267292022705 51.0467414855957 8.510486602783203 C 51.77386093139648 10.05641746520996 52.79912185668945 10.80791664123535 54.18109130859375 10.80791664123535 C 55.51975250244141 10.80791664123535 56.51814270019531 10.09718704223633 57.23330307006836 8.635127067565918 C 57.96744155883789 7.13426685333252 58.35081100463867 4.885197162628174 58.37277221679688 1.950377106666565 L 58.37276077270508 -3.295522928237915 C 58.37276077270508 -6.29105281829834 58.00603103637695 -8.573923110961914 57.28277206420898 -10.08071327209473 C 56.57857131958008 -11.54781246185303 55.55304336547852 -12.26098251342773 54.1475715637207 -12.26098251342773 Z M 38.51690292358398 13.21099662780762 C 36.37307357788086 13.21099662780762 34.71780395507813 12.19202709197998 33.59709167480469 10.18239688873291 C 32.50309371948242 8.220657348632813 31.93698310852051 5.363556861877441 31.91447257995605 1.690447092056274 L 31.91447257995605 -2.995592832565308 C 31.91447257995605 -6.729012966156006 32.46042251586914 -9.625863075256348 33.53715133666992 -11.60569286346436 C 34.64083099365234 -13.63508319854736 36.30499267578125 -14.6640625 38.48338317871094 -14.6640625 C 40.62626266479492 -14.6640625 42.27834320068359 -13.67036247253418 43.39374160766602 -11.71055316925049 C 44.48275375366211 -9.79714298248291 45.05204391479492 -6.982762813568115 45.0858039855957 -3.345582962036133 L 45.08581161499023 1.469327092170715 C 45.08581161499023 5.276027202606201 44.5368537902832 8.20402717590332 43.45418167114258 10.17198753356934 C 42.34477233886719 12.18852710723877 40.68363189697266 13.21099662780762 38.51690292358398 13.21099662780762 Z M 38.48338317871094 -12.26098251342773 C 37.13158416748047 -12.26098251342773 36.12712097167969 -11.57896327972412 35.41262435913086 -10.17594337463379 C 34.67950439453125 -8.736382484436035 34.29109191894531 -6.549703121185303 34.25817108154297 -3.676642894744873 L 34.25819396972656 1.714357018470764 C 34.25819396972656 4.637717247009277 34.63648223876953 6.924267292022705 35.38255310058594 8.510486602783203 C 36.10967254638672 10.05641746520996 37.13493347167969 10.80791664123535 38.51690292358398 10.80791664123535 C 39.85556411743164 10.80791664123535 40.85395431518555 10.09718704223633 41.56912231445313 8.635127067565918 C 42.30325317382813 7.134276866912842 42.68662261962891 4.885197162628174 42.70859146118164 1.950377106666565 L 42.70858383178711 -3.295522928237915 C 42.70858383178711 -6.291032791137695 42.34185409545898 -8.57390308380127 41.61859130859375 -10.08071327209473 C 40.91438293457031 -11.54781246185303 39.88884353637695 -12.26098251342773 38.48338317871094 -12.26098251342773 Z M 22.85271263122559 13.21099662780762 C 20.70887184143066 13.21099662780762 19.05361175537109 12.19202709197998 17.93291282653809 10.18239688873291 C 16.83891296386719 8.220666885375977 16.27279281616211 5.363566875457764 16.25028228759766 1.690447092056274 L 16.25028228759766 -2.995592832565308 C 16.25028228759766 -6.729012966156006 16.79623222351074 -9.625863075256348 17.87296295166016 -11.60569286346436 C 18.97664260864258 -13.63508319854736 20.64080238342285 -14.6640625 22.81919288635254 -14.6640625 C 24.96206283569336 -14.6640625 26.61414337158203 -13.67036247253418 27.72955322265625 -11.71055316925049 C 28.81856155395508 -9.79713249206543 29.38785171508789 -6.982742786407471 29.42161178588867 -3.345582962036133 L 29.42162322998047 1.469327092170715 C 29.42162322998047 5.276027202606201 28.87266159057617 8.20402717590332 27.78999328613281 10.17198753356934 C 26.68058204650879 12.18852710723877 25.01944160461426 13.21099662780762 22.85271263122559 13.21099662780762 Z M 22.81919288635254 -12.26098251342773 C 21.46739196777344 -12.26098251342773 20.46293258666992 -11.57896327972412 19.74843215942383 -10.17594337463379 C 19.01531219482422 -8.736382484436035 18.62690162658691 -6.549703121185303 18.5939826965332 -3.676642894744873 L 18.59400177001953 1.714357018470764 C 18.59400177001953 4.637717247009277 18.97229194641113 6.924267292022705 19.71836280822754 8.510486602783203 C 20.44548225402832 10.05641746520996 21.47074317932129 10.80791664123535 22.85271263122559 10.80791664123535 C 24.19137191772461 10.80791664123535 25.18976211547852 10.09718704223633 25.90493202209473 8.635127067565918 C 26.63906288146973 7.134276866912842 27.02243232727051 4.885197162628174 27.04440307617188 1.950377106666565 L 27.04439163208008 -3.295522928237915 C 27.04439163208008 -6.291032791137695 26.67766189575195 -8.57390308380127 25.95440292358398 -10.08071327209473 C 25.25019264221191 -11.54781246185303 24.22465324401855 -12.26098251342773 22.81919288635254 -12.26098251342773 Z M 9.282242774963379 12.8450174331665 L 9.032242774963379 12.8450174331665 L 7.155002593994141 12.8450174331665 L 6.905002593994141 12.8450174331665 L 6.905002593994141 12.5950174331665 L 6.905002593994141 -10.9580545425415 L 1.750232458114624 -8.44354248046875 L 1.390622496604919 -8.268122673034668 L 1.390622496604919 -8.668232917785645 L 1.390622496604919 -10.75429248809814 L 1.390622496604919 -10.91180324554443 L 1.532692551612854 -10.97979259490967 L 8.605852127075195 -14.36508274078369 L 8.657042503356934 -14.38958263397217 L 8.71378231048584 -14.38958263397217 L 9.032242774963379 -14.38958263397217 L 9.282242774963379 -14.38958263397217 L 9.282242774963379 -14.13958263397217 L 9.282242774963379 12.5950174331665 L 9.282242774963379 12.8450174331665 Z" stroke="none" fill="#1863e4"/>
          </g>
          <path id="Path-3" data-name="Path" d="M83.071,37.621H63.6a1.287,1.287,0,0,1,0-2.541h19.47a1.287,1.287,0,0,1,0,2.541Z" transform="translate(69.847 18.484)" fill="#1863e4"/>
          <path id="Path-4" data-name="Path" d="M20.551,2.541H1.082A1.189,1.189,0,0,1,0,1.27,1.189,1.189,0,0,1,1.082,0h19.47a1.189,1.189,0,0,1,1.082,1.27A1.189,1.189,0,0,1,20.551,2.541Z" transform="translate(144.454 44.018) rotate(90)" fill="#1863e4"/>
        </g>
      </g>
      <g id="icons_spite_technology_icon_speed-2" data-name="icons_spite_technology_icon_speed" transform="translate(201)">
        <rect id="Rectangle_2-5" data-name="Rectangle 2" width="200" height="100" transform="translate(-1)" fill="#e2e2e2" opacity="0"/>
        <g id="Icn_Speed-2" data-name="Icn_Speed" transform="translate(13 1)">
          <path id="Circle-5" data-name="Circle" d="M.294,81.157a1.309,1.309,0,1,1,2.032-1.651A43.349,43.349,0,1,0,4.343,23.051a1.265,1.265,0,0,1-.943.42,1.315,1.315,0,0,1-.971-2.2A45.849,45.849,0,0,1,34.864,6.509V2.621H29.622a1.311,1.311,0,0,1,0-2.621h13.1a1.311,1.311,0,0,1,0,2.621H37.485V6.509c.274.008.55.018.825.03A45.975,45.975,0,1,1,.294,81.157Z" transform="translate(49.137)" fill="#8c8c8c"/>
          <path id="Color_Shape-3" data-name="Color_Shape" d="M17.337,45.225a1.311,1.311,0,0,1,0-2.621H41.909a1.311,1.311,0,0,1,0,2.621ZM25.161,34.57a1.31,1.31,0,1,1,0-2.62h25.8a1.31,1.31,0,0,1,0,2.62Zm57.875-.7L71.006,21.844A1.306,1.306,0,1,1,72.854,20L83.967,31.109l21.44-21.426a1.306,1.306,0,0,1,1.847,1.847L84.9,33.888a1.346,1.346,0,0,1-.931.38A1.272,1.272,0,0,1,83.036,33.874ZM23.588,23.916a1.311,1.311,0,0,1,0-2.621H43.639a1.311,1.311,0,0,1,0,2.621Zm-13.1-10.641a1.31,1.31,0,1,1,0-2.62H50.964a1.31,1.31,0,0,1,0,2.62ZM1.311,2.621A1.311,1.311,0,0,1,1.311,0h45.04a1.311,1.311,0,1,1,0,2.621Z" transform="translate(0 29.905)" fill="#1863e4"/>
        </g>
      </g>
      <g id="icons_spite_technology_icon_price-2" data-name="icons_spite_technology_icon_price" transform="translate(415 -1)">
        <rect id="Rectangle_2-6" data-name="Rectangle 2" width="200" height="100" transform="translate(-15 1)" fill="#e2e2e2" opacity="0"/>
        <g id="Icn_Price-2" data-name="Icn_Price" transform="translate(39 9)">
          <path id="Circle-6" data-name="Circle" d="M42.475,91.544A45.851,45.851,0,0,1,36.274.978a1.271,1.271,0,0,1,.509,2.491,43.341,43.341,0,1,0,18.07,0,1.263,1.263,0,0,1-1.017-1.233A1.292,1.292,0,0,1,55.373.966a45.85,45.85,0,0,1-9.519,90.7C44.738,91.666,43.609,91.626,42.475,91.544Zm2.5-57.26a3.153,3.153,0,0,1-2.16-2.122,3.185,3.185,0,0,1,1.766-3.85V1.271a1.271,1.271,0,1,1,2.542,0l-.013,27.042a3.224,3.224,0,0,1,1.919,2.91,3.174,3.174,0,0,1-3.173,3.18A3.4,3.4,0,0,1,44.979,34.285Z" transform="translate(0)" fill="#8c8c8c"/>
          <path id="Color_Shape-4" data-name="Color_Shape" d="M2.364,46.109A2.359,2.359,0,0,1,0,43.746V11.685A4.122,4.122,0,0,1,1.156,8.813L9.391.147a.461.461,0,0,1,.789.318V2.828a.5.5,0,0,1-.127.317L3,10.566a1.66,1.66,0,0,0-.444,1.118V43.568h21.6V11.685a1.6,1.6,0,0,0-.445-1.118L16.66,3.145a.5.5,0,0,1-.127-.317V.465A.455.455,0,0,1,17.32.147l8.234,8.667A4.139,4.139,0,0,1,26.7,11.685V43.746a2.359,2.359,0,0,1-2.364,2.363ZM12.455,39.4v-.918a4.711,4.711,0,0,1-3.733-4.606.97.97,0,0,1,.977-.989.988.988,0,0,1,.99.989,2.756,2.756,0,0,0,1.766,2.556V31.01a4.714,4.714,0,0,1,0-9.222v-.906a.981.981,0,0,1,.99-.99,1,1,0,0,1,.989.99v.895a4.725,4.725,0,0,1,3.733,4.617.989.989,0,1,1-1.978,0,2.756,2.756,0,0,0-1.767-2.556v5.418a4.713,4.713,0,0,1,.012,9.222V39.4a.99.99,0,1,1-1.979,0Zm1.967-2.968a2.74,2.74,0,0,0,0-5.123ZM10.689,26.394a2.761,2.761,0,0,0,1.766,2.567V23.839A2.728,2.728,0,0,0,10.689,26.394Z" transform="translate(32.5 17.796)" fill="#1863e4"/>
        </g>
      </g>
    </g>
  </g>
  <g id="icons_spite_technology_200_02" transform="translate(600)">
    <g id="icons_spite_technology_200-3" data-name="icons_spite_technology_200" transform="translate(0 100)">
      <g id="icons_spite_technology_icon_norequotes">
        <rect id="Rectangle_2-7" data-name="Rectangle 2" width="200" height="99.558" fill="#e2e2e2" opacity="0"/>
        <g id="Icn_No_Requotes" transform="translate(50 0)">
          <path id="Grey_Shape" d="M53.042,99.646l-5.616-5.614a1.2,1.2,0,0,1,0-1.7l5.616-5.615a1.209,1.209,0,0,1,2.061.856,1.2,1.2,0,0,1-.35.855L51.077,92.1h.013A41.086,41.086,0,0,0,89.9,64.359a1.212,1.212,0,0,1,2.3.759A43.448,43.448,0,0,1,51.318,94.5l3.434,3.433a1.247,1.247,0,0,1,.35.856A1.209,1.209,0,0,1,53.883,100,1.174,1.174,0,0,1,53.042,99.646ZM34.885,92.2A43.451,43.451,0,0,1,5.5,51.323L2.065,54.756a1.245,1.245,0,0,1-.856.35,1.208,1.208,0,0,1-.855-2.06l5.614-5.614a1.2,1.2,0,0,1,1.7,0l5.613,5.614a1.208,1.208,0,0,1-.855,2.06,1.189,1.189,0,0,1-.856-.35L7.9,51.082v.013A41.085,41.085,0,0,0,35.643,89.9a1.215,1.215,0,0,1-.379,2.364A1.179,1.179,0,0,1,34.885,92.2ZM92.33,52.564,86.716,46.95a1.208,1.208,0,0,1,.855-2.06,1.193,1.193,0,0,1,.855.35L92.1,48.914V48.9A41.085,41.085,0,0,0,64.354,10.1a1.206,1.206,0,0,1,.76-2.289A43.447,43.447,0,0,1,94.5,48.685l3.434-3.434a1.24,1.24,0,0,1,.855-.348,1.2,1.2,0,0,1,.855,2.047l-5.614,5.614a1.2,1.2,0,0,1-1.7,0ZM7.813,34.891a43.43,43.43,0,0,1,40.867-29.4L45.247,2.061a1.242,1.242,0,0,1-.35-.855,1.2,1.2,0,0,1,2.06-.844l5.614,5.614a1.2,1.2,0,0,1,0,1.7l-5.614,5.614a1.208,1.208,0,0,1-2.06-.855,1.191,1.191,0,0,1,.35-.855L48.921,7.9h-.011A41.087,41.087,0,0,0,10.1,35.65a1.206,1.206,0,0,1-2.288-.759Z" fill="#5f5f5f"/>
          <path id="Color_Shape-5" data-name="Color_Shape" d="M60.335,28.01a1.414,1.414,0,0,0-2.41-1L43.467,41.467,29.01,27.01a1.414,1.414,0,0,0-2,2L41.467,43.466,27.01,57.923a1.425,1.425,0,0,0,0,2,1.392,1.392,0,0,0,1,.41,1.413,1.413,0,0,0,1-.41L43.467,45.466,57.925,59.923a1.392,1.392,0,0,0,1,.41,1.414,1.414,0,0,0,1-2.409L45.467,43.466,59.925,29.009A1.392,1.392,0,0,0,60.335,28.01Z" transform="translate(6.531 6.538)" fill="#1863e4"/>
        </g>
      </g>
      <g id="icons_spite_technology_icon_speed2" transform="translate(200)">
        <rect id="Rectangle_2-8" data-name="Rectangle 2" width="200" height="99.558" fill="#e2e2e2" opacity="0"/>
        <g id="Icn_Speed-3" data-name="Icn_Speed" transform="translate(14 1.991)">
          <path id="Grey_Shape-2" data-name="Grey_Shape" d="M.294,81.157a1.309,1.309,0,1,1,2.032-1.651A43.349,43.349,0,1,0,4.343,23.051a1.265,1.265,0,0,1-.943.42,1.315,1.315,0,0,1-.971-2.2A45.849,45.849,0,0,1,34.864,6.509V2.621H29.622a1.311,1.311,0,0,1,0-2.621h13.1a1.311,1.311,0,0,1,0,2.621H37.485V6.509c.274.008.55.018.825.03A45.975,45.975,0,1,1,.294,81.157Z" transform="translate(49.137)" fill="#5f5f5f"/>
          <path id="Color_Shape-6" data-name="Color_Shape" d="M17.337,45.225a1.311,1.311,0,0,1,0-2.621H41.909a1.311,1.311,0,0,1,0,2.621ZM25.161,34.57a1.31,1.31,0,1,1,0-2.62h25.8a1.31,1.31,0,0,1,0,2.62Zm57.875-.7L71.006,21.844A1.306,1.306,0,1,1,72.854,20L83.967,31.109l21.44-21.426a1.306,1.306,0,0,1,1.847,1.847L84.9,33.888a1.346,1.346,0,0,1-.931.38A1.272,1.272,0,0,1,83.036,33.874ZM23.588,23.916a1.311,1.311,0,0,1,0-2.621H43.639a1.311,1.311,0,0,1,0,2.621Zm-13.1-10.641a1.31,1.31,0,1,1,0-2.62H50.964a1.31,1.31,0,0,1,0,2.62ZM1.311,2.621A1.311,1.311,0,0,1,1.311,0h45.04a1.311,1.311,0,1,1,0,2.621Z" transform="translate(0 29.905)" fill="#1863e4"/>
        </g>
      </g>
      <g id="icons_spite_technology_icon_deep" transform="translate(400)">
        <rect id="Rectangle_2-9" data-name="Rectangle 2" width="200" height="99.558" fill="#e2e2e2" opacity="0"/>
        <g id="Icn_Deep_Liquidity" transform="translate(54 7.559)">
          <path id="Grey_Shape-3" data-name="Grey_Shape" d="M.471,56.15l-.01,0c-.038-.162-.062-.332-.1-.5C.3,55.385.24,55.125.189,54.861H.207C.139,54.516.062,54.175,0,53.829a1.207,1.207,0,0,1,.575-.159c6.069,0,9.229,2.825,12.02,5.318,2.693,2.409,5.237,4.682,10.353,4.682S30.609,61.4,33.3,58.988c2.788-2.493,5.947-5.318,12.02-5.318s9.232,2.825,12.021,5.318c2.7,2.409,5.24,4.682,10.354,4.682s7.663-2.273,10.358-4.682C80.843,56.5,84,53.67,90.075,53.67a1.237,1.237,0,0,1,.574.156c-.061.349-.139.69-.206,1.035h.017c-.054.274-.121.541-.179.812-.034.159-.058.318-.092.474l-.01,0a45.986,45.986,0,0,1-89.709,0ZM45.325,89.5A43.214,43.214,0,0,0,69.99,81.8a17.343,17.343,0,0,1-2.294.162c-6.068,0-9.231-2.825-12.02-5.318-2.7-2.405-5.24-4.682-10.355-4.682s-7.658,2.273-10.354,4.682c-2.788,2.493-5.947,5.318-12.02,5.318A16.668,16.668,0,0,1,20.66,81.8,43.224,43.224,0,0,0,45.325,89.5ZM57.342,74.78c2.7,2.409,5.24,4.682,10.354,4.682a12.871,12.871,0,0,0,9.161-3.626,1.237,1.237,0,0,1,.213-.146A43.446,43.446,0,0,0,87.564,56.38c-3.519.612-5.633,2.5-7.845,4.472C76.932,63.346,73.769,66.17,67.7,66.17s-9.231-2.825-12.02-5.318c-2.7-2.409-5.24-4.682-10.355-4.682s-7.658,2.273-10.354,4.682c-2.788,2.493-5.947,5.318-12.02,5.318s-9.232-2.825-12.02-5.318C8.715,58.877,6.6,56.992,3.086,56.38A43.5,43.5,0,0,0,13.59,75.7a1.332,1.332,0,0,1,.21.139,12.855,12.855,0,0,0,9.147,3.62c5.114,0,7.662-2.273,10.354-4.682,2.788-2.493,5.947-5.318,12.02-5.318S54.554,72.287,57.342,74.78ZM85.8,30.233a43.488,43.488,0,0,0-81.068,0,1.243,1.243,0,0,1-2.324-.88,45.968,45.968,0,0,1,85.721,0,1.244,1.244,0,0,1-2.328.88Z" transform="translate(0.675)" fill="#5f5f5f"/>
          <path id="Color_Shape-7" data-name="Color_Shape" d="M2748.373,2355.135c-6.071,0-9.232-2.825-12.021-5.318-2.7-2.408-5.239-4.682-10.356-4.682s-7.66,2.274-10.353,4.682c-2.789,2.493-5.95,5.318-12.021,5.318s-9.231-2.825-12.019-5.318c-2.694-2.408-5.238-4.682-10.353-4.682a1.25,1.25,0,0,1,0-2.5c6.07,0,9.23,2.825,12.019,5.318,2.693,2.408,5.237,4.682,10.353,4.682s7.661-2.274,10.355-4.682c2.788-2.493,5.949-5.318,12.019-5.318s9.233,2.825,12.022,5.318c2.694,2.408,5.238,4.682,10.355,4.682s7.661-2.274,10.356-4.682c2.789-2.493,5.95-5.318,12.021-5.318a1.25,1.25,0,0,1,0,2.5c-5.117,0-7.661,2.274-10.355,4.682C2757.6,2352.31,2754.444,2355.135,2748.373,2355.135Z" transform="translate(-2680 -2304.756)" fill="#1863e4"/>
        </g>
      </g>
    </g>
    <g id="icons_spite_technology_200_hover-2" data-name="icons_spite_technology_200_hover">
      <g id="icons_spite_technology_icon_norequotes-2" data-name="icons_spite_technology_icon_norequotes">
        <rect id="Rectangle_2-10" data-name="Rectangle 2" width="200" height="99.558" fill="#e2e2e2" opacity="0"/>
        <g id="Icn_No_Requotes-2" data-name="Icn_No_Requotes" transform="translate(50 0)">
          <path id="Grey_Shape-4" data-name="Grey_Shape" d="M53.042,99.646l-5.616-5.614a1.2,1.2,0,0,1,0-1.7l5.616-5.615a1.209,1.209,0,0,1,2.061.856,1.2,1.2,0,0,1-.35.855L51.077,92.1h.013A41.086,41.086,0,0,0,89.9,64.359a1.212,1.212,0,0,1,2.3.759A43.448,43.448,0,0,1,51.318,94.5l3.434,3.433a1.247,1.247,0,0,1,.35.856A1.209,1.209,0,0,1,53.883,100,1.174,1.174,0,0,1,53.042,99.646ZM34.885,92.2A43.451,43.451,0,0,1,5.5,51.323L2.065,54.756a1.245,1.245,0,0,1-.856.35,1.208,1.208,0,0,1-.855-2.06l5.614-5.614a1.2,1.2,0,0,1,1.7,0l5.613,5.614a1.208,1.208,0,0,1-.855,2.06,1.189,1.189,0,0,1-.856-.35L7.9,51.082v.013A41.085,41.085,0,0,0,35.643,89.9a1.215,1.215,0,0,1-.379,2.364A1.179,1.179,0,0,1,34.885,92.2ZM92.33,52.564,86.716,46.95a1.208,1.208,0,0,1,.855-2.06,1.193,1.193,0,0,1,.855.35L92.1,48.914V48.9A41.085,41.085,0,0,0,64.354,10.1a1.206,1.206,0,0,1,.76-2.289A43.447,43.447,0,0,1,94.5,48.685l3.434-3.434a1.24,1.24,0,0,1,.855-.348,1.2,1.2,0,0,1,.855,2.047l-5.614,5.614a1.2,1.2,0,0,1-1.7,0ZM7.813,34.891a43.43,43.43,0,0,1,40.867-29.4L45.247,2.061a1.242,1.242,0,0,1-.35-.855,1.2,1.2,0,0,1,2.06-.844l5.614,5.614a1.2,1.2,0,0,1,0,1.7l-5.614,5.614a1.208,1.208,0,0,1-2.06-.855,1.191,1.191,0,0,1,.35-.855L48.921,7.9h-.011A41.087,41.087,0,0,0,10.1,35.65a1.206,1.206,0,0,1-2.288-.759Z" fill="#5f5f5f"/>
          <path id="Color_Shape-8" data-name="Color_Shape" d="M60.335,28.01a1.414,1.414,0,0,0-2.41-1L43.467,41.467,29.01,27.01a1.414,1.414,0,0,0-2,2L41.467,43.466,27.01,57.923a1.425,1.425,0,0,0,0,2,1.392,1.392,0,0,0,1,.41,1.413,1.413,0,0,0,1-.41L43.467,45.466,57.925,59.923a1.392,1.392,0,0,0,1,.41,1.414,1.414,0,0,0,1-2.409L45.467,43.466,59.925,29.009A1.392,1.392,0,0,0,60.335,28.01Z" transform="translate(6.531 6.538)" fill="#1863e4"/>
        </g>
      </g>
      <g id="icons_spite_technology_icon_speed2-2" data-name="icons_spite_technology_icon_speed2" transform="translate(200)">
        <rect id="Rectangle_2-11" data-name="Rectangle 2" width="200" height="99.558" fill="#e2e2e2" opacity="0"/>
        <g id="Icn_Speed-4" data-name="Icn_Speed" transform="translate(14 1.991)">
          <path id="Grey_Shape-5" data-name="Grey_Shape" d="M.294,81.157a1.309,1.309,0,1,1,2.032-1.651A43.349,43.349,0,1,0,4.343,23.051a1.265,1.265,0,0,1-.943.42,1.315,1.315,0,0,1-.971-2.2A45.849,45.849,0,0,1,34.864,6.509V2.621H29.622a1.311,1.311,0,0,1,0-2.621h13.1a1.311,1.311,0,0,1,0,2.621H37.485V6.509c.274.008.55.018.825.03A45.975,45.975,0,1,1,.294,81.157Z" transform="translate(49.137)" fill="#5f5f5f"/>
          <path id="Color_Shape-9" data-name="Color_Shape" d="M17.337,45.225a1.311,1.311,0,0,1,0-2.621H41.909a1.311,1.311,0,0,1,0,2.621ZM25.161,34.57a1.31,1.31,0,1,1,0-2.62h25.8a1.31,1.31,0,0,1,0,2.62Zm57.875-.7L71.006,21.844A1.306,1.306,0,1,1,72.854,20L83.967,31.109l21.44-21.426a1.306,1.306,0,0,1,1.847,1.847L84.9,33.888a1.346,1.346,0,0,1-.931.38A1.272,1.272,0,0,1,83.036,33.874ZM23.588,23.916a1.311,1.311,0,0,1,0-2.621H43.639a1.311,1.311,0,0,1,0,2.621Zm-13.1-10.641a1.31,1.31,0,1,1,0-2.62H50.964a1.31,1.31,0,0,1,0,2.62ZM1.311,2.621A1.311,1.311,0,0,1,1.311,0h45.04a1.311,1.311,0,1,1,0,2.621Z" transform="translate(0 29.905)" fill="#1863e4"/>
        </g>
      </g>
      <g id="icons_spite_technology_icon_deep-2" data-name="icons_spite_technology_icon_deep" transform="translate(400)">
        <rect id="Rectangle_2-12" data-name="Rectangle 2" width="200" height="99.558" fill="#e2e2e2" opacity="0"/>
        <g id="Icn_Deep_Liquidity-2" data-name="Icn_Deep_Liquidity" transform="translate(54 7.559)">
          <path id="Grey_Shape-6" data-name="Grey_Shape" d="M.471,56.15l-.01,0c-.038-.162-.062-.332-.1-.5C.3,55.385.24,55.125.189,54.861H.207C.139,54.516.062,54.175,0,53.829a1.207,1.207,0,0,1,.575-.159c6.069,0,9.229,2.825,12.02,5.318,2.693,2.409,5.237,4.682,10.353,4.682S30.609,61.4,33.3,58.988c2.788-2.493,5.947-5.318,12.02-5.318s9.232,2.825,12.021,5.318c2.7,2.409,5.24,4.682,10.354,4.682s7.663-2.273,10.358-4.682C80.843,56.5,84,53.67,90.075,53.67a1.237,1.237,0,0,1,.574.156c-.061.349-.139.69-.206,1.035h.017c-.054.274-.121.541-.179.812-.034.159-.058.318-.092.474l-.01,0a45.986,45.986,0,0,1-89.709,0ZM45.325,89.5A43.214,43.214,0,0,0,69.99,81.8a17.343,17.343,0,0,1-2.294.162c-6.068,0-9.231-2.825-12.02-5.318-2.7-2.405-5.24-4.682-10.355-4.682s-7.658,2.273-10.354,4.682c-2.788,2.493-5.947,5.318-12.02,5.318A16.668,16.668,0,0,1,20.66,81.8,43.224,43.224,0,0,0,45.325,89.5ZM57.342,74.78c2.7,2.409,5.24,4.682,10.354,4.682a12.871,12.871,0,0,0,9.161-3.626,1.237,1.237,0,0,1,.213-.146A43.446,43.446,0,0,0,87.564,56.38c-3.519.612-5.633,2.5-7.845,4.472C76.932,63.346,73.769,66.17,67.7,66.17s-9.231-2.825-12.02-5.318c-2.7-2.409-5.24-4.682-10.355-4.682s-7.658,2.273-10.354,4.682c-2.788,2.493-5.947,5.318-12.02,5.318s-9.232-2.825-12.02-5.318C8.715,58.877,6.6,56.992,3.086,56.38A43.5,43.5,0,0,0,13.59,75.7a1.332,1.332,0,0,1,.21.139,12.855,12.855,0,0,0,9.147,3.62c5.114,0,7.662-2.273,10.354-4.682,2.788-2.493,5.947-5.318,12.02-5.318S54.554,72.287,57.342,74.78ZM85.8,30.233a43.488,43.488,0,0,0-81.068,0,1.243,1.243,0,0,1-2.324-.88,45.968,45.968,0,0,1,85.721,0,1.244,1.244,0,0,1-2.328.88Z" transform="translate(0.675)" fill="#5f5f5f"/>
          <path id="Color_Shape-10" data-name="Color_Shape" d="M2748.373,2355.135c-6.071,0-9.232-2.825-12.021-5.318-2.7-2.408-5.239-4.682-10.356-4.682s-7.66,2.274-10.353,4.682c-2.789,2.493-5.95,5.318-12.021,5.318s-9.231-2.825-12.019-5.318c-2.694-2.408-5.238-4.682-10.353-4.682a1.25,1.25,0,0,1,0-2.5c6.07,0,9.23,2.825,12.019,5.318,2.693,2.408,5.237,4.682,10.353,4.682s7.661-2.274,10.355-4.682c2.788-2.493,5.949-5.318,12.019-5.318s9.233,2.825,12.022,5.318c2.694,2.408,5.238,4.682,10.355,4.682s7.661-2.274,10.356-4.682c2.789-2.493,5.95-5.318,12.021-5.318a1.25,1.25,0,0,1,0,2.5c-5.117,0-7.661,2.274-10.355,4.682C2757.6,2352.31,2754.444,2355.135,2748.373,2355.135Z" transform="translate(-2680 -2304.756)" fill="#1863e4"/>
        </g>
      </g>
    </g>
  </g>
</svg>
