<svg id="icons_spite_headtitle_100" xmlns="http://www.w3.org/2000/svg" width="1200" height="80" viewBox="0 0 1200 80">
  <g id="deal">
    <rect id="Rectangle_5" data-name="Rectangle 5" width="100" height="80" fill="#dfdfdf" opacity="0"/>
    <g id="Icn_Deal" transform="translate(265 73.998) rotate(90)">
      <path id="Color_Shape" d="M980.518,538.919a3.558,3.558,0,0,0-1.6-2.609l-1.013-.606.173-.33a5.139,5.139,0,0,0-.244-5.16l-.052-.069-1.524-1.669-.112-.115-.1-.078a3.826,3.826,0,0,0-.825-.53,4.188,4.188,0,0,0-1.119-3.722l-1.717-1.733-.1-.1a2.922,2.922,0,0,0-1.09-.616,4.049,4.049,0,0,0-1.15-3.084l-1.712-1.938-.107-.113-.1-.084a2.889,2.889,0,0,0-.932-.533,4.174,4.174,0,0,0-1.167-3.681l-1.733-1.7-.083-.078a3.073,3.073,0,0,0-1.231-.639l.068-14.274a1.179,1.179,0,1,0-2.358-.012l-.072,14.772-15,24.476a2.407,2.407,0,0,0-.235,2.01l.792,2.415a2.624,2.624,0,0,0,1.18,1.456l3.789,2.2a1.58,1.58,0,0,1,.6,2.119l-.867,1.626a1.582,1.582,0,0,1-1.4.84,1.56,1.56,0,0,1-.728-.18L944,544.7a6.133,6.133,0,0,1-2.4-2.232l-2.675-4.361a5.6,5.6,0,0,1-.413-5.027l6.7-14.068V507.233a1.179,1.179,0,1,0-2.358,0v11.3l-6.862,14.493a6.088,6.088,0,0,0-.02,4.579v3.846a8.335,8.335,0,0,0,1.172,4.263l5.781,9.726a5,5,0,0,1,.7,2.551v16.105a1.179,1.179,0,1,0,2.358,0V557.488a5.545,5.545,0,0,0-.777-2.829l-5.782-9.726a7.8,7.8,0,0,1-1.058-3.233l1.493,2.434a6.676,6.676,0,0,0,2.607,2.43l5.424,2.822a3.692,3.692,0,0,0,4.963-1.541l1.095-2.053a3.69,3.69,0,0,0-1.409-4.946l-3.4-1.968a2.085,2.085,0,0,1-.936-1.154l-.313-.956a1.858,1.858,0,0,1,.181-1.555l14.279-23.3a.825.825,0,0,1,.364.167l1.777,1.745a1.953,1.953,0,0,1,.277,2.217l-1.6,2.831-4.979,8.633a1.14,1.14,0,1,0,1.975,1.141l6.159-10.678a.577.577,0,0,1,.319.121l1.744,1.975.065.067c.7.669.816,1.234.377,1.853l-4.554,7.9a1.141,1.141,0,0,0,1.98,1.135l4.188-7.262a.6.6,0,0,1,.339.155l1.8,1.808a1.224,1.224,0,0,1,.317,1.7c-.022.032-.046.064-.1.134l-2.834,4.916a1.077,1.077,0,0,0-.044,1,.893.893,0,0,0,.417.558.774.774,0,0,0,.347.109h.013a1.131,1.131,0,0,0,1.242-.529l2.2-3.82a1,1,0,0,1,.443.245l1.416,1.536a2.9,2.9,0,0,1,.072,2.747l-.232.435a3.413,3.413,0,0,0-1.289,0,3.338,3.338,0,0,0-2.205,1.478l-1.26,2.023a2.014,2.014,0,0,0-.1.21,2.952,2.952,0,0,0-.141.289c-.042.105-.078.213-.111.323-.026.091-.045.188-.084.367a1.29,1.29,0,0,0-.038.178l-.015.2.008,0v.015a3.566,3.566,0,0,0-.622.062,3.326,3.326,0,0,0-2.2,1.472l-1.324,2a3.335,3.335,0,0,0-.518,2.119l.007.167.024.014a3.514,3.514,0,0,0,.8,1.767c-.018.015-.133.1-.133.1a3.34,3.34,0,0,0-.361.285,2.781,2.781,0,0,0-.5.568l-1.33,2a3.383,3.383,0,0,0-.52,2.15,3.51,3.51,0,0,0,1.457,2.515,3.313,3.313,0,0,0-.69.738l-.07.114-1.159,2.058A3.318,3.318,0,0,0,963,560.04a3.55,3.55,0,0,0,1.6,2.619l.055.044v5.652a1.14,1.14,0,0,0,2.28,0v-5.031a3.566,3.566,0,0,0,.4-.053,3.337,3.337,0,0,0,2.179-1.44l.069-.111,1.146-2.064a3.2,3.2,0,0,1,1.914-3.942l1.329-2a3.379,3.379,0,0,0,.519-2.154,3.5,3.5,0,0,0-.258-.984,3.3,3.3,0,0,0,1.484-1.24l1.322-2a3.366,3.366,0,0,0,.517-2.153,3.467,3.467,0,0,0-.231-.9,3.307,3.307,0,0,0,1.449-1.232l1.251-2.008A3.317,3.317,0,0,0,980.518,538.919Zm-11.511,19.7h0l-1.179,2.089a1.334,1.334,0,0,1-.876.573,1.546,1.546,0,0,1-1.1-.213l-.091-.07-.05-.036a1.537,1.537,0,0,1-.713-1.136,1.312,1.312,0,0,1,.2-.848l1.179-2.089a1.4,1.4,0,0,1,.187-.214,1.694,1.694,0,0,1,.218-.16l.136-.084a1.425,1.425,0,0,1,.614-.139,1.544,1.544,0,0,1,.322.045l.775.406a1.532,1.532,0,0,1,.58,1.029A1.319,1.319,0,0,1,969.008,558.621ZM972.3,552.6h0l-1.342,2.018a1.33,1.33,0,0,1-.884.587,1.529,1.529,0,0,1-.28.026,1.6,1.6,0,0,1-.341-.05l-.013-.011-.08-.064-.091-.054a3.283,3.283,0,0,0-.644-.285l-1.981-1.306a1.536,1.536,0,0,1-.712-1.136,1.306,1.306,0,0,1,.194-.839l1.341-2.018a1.3,1.3,0,0,1,.233-.235c.038-.03.071-.059.117-.091l.163-.109a1.354,1.354,0,0,1,.373-.151,1.5,1.5,0,0,1,.278-.026,1.561,1.561,0,0,1,.845.251l2.3,1.518a1.529,1.529,0,0,1,.712,1.137A1.3,1.3,0,0,1,972.3,552.6Zm3.06-6.371h0l-1.335,2.015a1.33,1.33,0,0,1-.884.587,1.518,1.518,0,0,1-.28.026A1.573,1.573,0,0,1,972,548.6l-3.355-2.157a1.538,1.538,0,0,1-.713-1.137,1.312,1.312,0,0,1,.194-.839l1.334-2.015a1.333,1.333,0,0,1,.885-.587,1.446,1.446,0,0,1,.279-.026,1.565,1.565,0,0,1,.851.255l.256.164a1.56,1.56,0,0,0,.14.109l.012.013.024.015a2.869,2.869,0,0,0,.239.182l.677.4.7.449.025.016.026.015.462.272.8.511a1.534,1.534,0,0,1,.712,1.137A1.31,1.31,0,0,1,975.358,546.228Zm2.957-6.253h0l-1.239,1.99a1.333,1.333,0,0,1-.885.587,1.51,1.51,0,0,1-.278.026,1.572,1.572,0,0,1-.851-.255l-.1-.062-.7-.449-.025-.016-.026-.016-.463-.272-.736-.474a1.513,1.513,0,0,1-.411-.886,1.361,1.361,0,0,1,.024-.374,1.2,1.2,0,0,1,.1-.294,1.287,1.287,0,0,1,.079-.182l1.24-1.99a1.334,1.334,0,0,1,.885-.587,1.441,1.441,0,0,1,.272-.025,1.552,1.552,0,0,1,.222.032,1.368,1.368,0,0,1,.15.022l.109.027a1.649,1.649,0,0,1,.377.173L977.813,538a1.558,1.558,0,0,1,.7,1.131A1.319,1.319,0,0,1,978.316,539.975Z" transform="translate(-991.535 -320.274)" fill="#0474b2"/>
    </g>
  </g>
  <g id="thankyou" transform="translate(100)">
    <rect id="Rectangle_5-2" data-name="Rectangle 5" width="100" height="80" fill="#dfdfdf" opacity="0"/>
    <g id="Icn_Thank_You" transform="translate(-905 -395)">
      <line id="Line" x1="37" y2="37" stroke-width="3" transform="translate(944 417)" stroke="#0474b2" stroke-linecap="round" stroke-linejoin="round" fill="none"/>
      <line id="Line-2" data-name="Line" x2="15" y2="15" transform="translate(929 439)" fill="none" stroke="#0474b2" stroke-linecap="round" stroke-linejoin="round" stroke-width="3"/>
    </g>
  </g>
  <g id="forex" transform="translate(200)">
    <rect id="Rectangle_5-3" data-name="Rectangle 5" width="100" height="80" fill="#dfdfdf" opacity="0"/>
    <path id="Icn_Forex" d="M23.614,46.6v-33.8H18.342a1.327,1.327,0,1,1,0-2.654h5.271v-3.3a1.327,1.327,0,1,1,2.655,0V38.677h5.192a1.325,1.325,0,1,1,0,2.649H26.269V46.6a1.327,1.327,0,0,1-2.655,0Zm-16.8-2.248V38.792H1.327a1.327,1.327,0,1,1,0-2.654H6.809V3.941a1.327,1.327,0,0,1,2.655,0v14.44h5.05a1.324,1.324,0,1,1,.006,2.648H9.47V44.354a1.327,1.327,0,1,1-2.654,0Zm34.1-2.892V10.646H35.641a1.327,1.327,0,0,1,0-2.655h5.266V1.327a1.327,1.327,0,1,1,2.654,0V25.239h5.106a1.324,1.324,0,1,1,.006,2.648h-5.1V41.461a1.327,1.327,0,1,1-2.655,0Z" transform="translate(25 16)" fill="#0474b2"/>
  </g>
  <g id="indicies" transform="translate(300)">
    <rect id="Rectangle_5-4" data-name="Rectangle 5" width="100" height="80" fill="#dfdfdf" opacity="0"/>
    <path id="Icn_Indicies" d="M14067.549,4486.642a1.331,1.331,0,0,1-1.04-.494,1.364,1.364,0,0,1-.307-.858V4443a1.351,1.351,0,0,1,2.7,0v6.944h3.661a1.354,1.354,0,1,1,0,2.707h-3.661v5.789h3.661a1.356,1.356,0,0,1,.006,2.712h-3.667v5.789h3.661a1.354,1.354,0,1,1,0,2.708h-3.661v5.793h3.661a1.354,1.354,0,1,1,0,2.707h-3.661v5.789h40.943a1.354,1.354,0,1,1,0,2.708Zm8.976-14.778c0-.447.123-.611.69-1.41.187-.265,1.2-1.663,1.2-1.663s2.61-3.579,3.588-4.912c2.584-3.534,5.159-7.035,5.214-7.109a1.343,1.343,0,0,1,.9-.538,1.235,1.235,0,0,1,.191-.014,1.325,1.325,0,0,1,.817.279l10.848,8.336,8.673-17.116a1.349,1.349,0,0,1,2.487.16,1.326,1.326,0,0,1-.067,1.026l-9.414,18.6a1.342,1.342,0,0,1-1.808.593,1.581,1.581,0,0,1-.214-.137l-11.054-8.482-.108.151c-4.233,5.766-8.927,12.18-9.41,12.9a1.356,1.356,0,0,1-1.178.693l.09.032A1.422,1.422,0,0,1,14076.524,4471.864Z" transform="translate(-14038.202 -4423.646)" fill="#0474b2" stroke="rgba(0,0,0,0)" stroke-width="1"/>
  </g>
  <g id="commodities" transform="translate(400)">
    <rect id="Rectangle_5-5" data-name="Rectangle 5" width="100" height="80" fill="#dfdfdf" opacity="0"/>
    <path id="Icn_Commodities" d="M994.343,2302.431l-2.69-3.219-2.746,3.169a80.186,80.186,0,0,0-6.509,8.73l-.638.99-.312-1.136c-1.145-4.18-4.925-8.885-5.669-9.784l-1.035-1.237-1.06,1.219c-.616.708-6,7.061-6,11.938a7.049,7.049,0,0,0,9.193,6.657l1.073-.343-.426,1.042a22.992,22.992,0,0,0-1.711,8.079,15.853,15.853,0,0,0,15.806,15.671h.14a15.882,15.882,0,0,0,15.671-15.666C1007.435,2318.463,995.682,2304.042,994.343,2302.431Zm-19.611,15.031a4.385,4.385,0,0,1-4.393-4.357c0-2.437,2.062-6.08,4.367-9.016,2.045,2.7,4.418,6.63,4.418,9.017A4.383,4.383,0,0,1,974.732,2317.462Zm16.889,24.119h0a13.115,13.115,0,0,1-13.15-13.044c0-7.418,6.7-17.8,12.451-24.441l.693-.8.681.815c4.633,5.543,12.486,16.927,12.486,24.427A13.115,13.115,0,0,1,991.621,2341.581Z" transform="translate(-937.684 -2281.212)" fill="#0474b2"/>
  </g>
  <g id="crypto" transform="translate(500)">
    <rect id="Rectangle_5-6" data-name="Rectangle 5" width="100" height="80" fill="#dfdfdf" opacity="0"/>
    <path id="Icn_Crypto" d="M47.662,42.624c-5.778,0-13.406-6.024-18.984-15.437a38.483,38.483,0,0,1-5.524-15.734A18.218,18.218,0,0,1,23.3,6.7L21.7,7.878c-4.418,3.722-3.413,13.179,2.411,23.031a40.149,40.149,0,0,0,7.635,9.5l2.31,2.108H0v-8.48H6.023V21.986H11.8V15.955h4.725c-.2-4.316,1-7.843,3.567-10L20.14,5.9,25.765,1.74a5.414,5.414,0,0,1,1.2-.882C32.8-2.425,42.64,3.994,49.417,15.417,56.149,26.883,56.9,38.4,51.078,41.742a6.651,6.651,0,0,1-3.307.883ZM28.229,2.962l-.852.637c-1.457,1.424-2.11,4.117-1.806,7.6A36.617,36.617,0,0,0,30.787,25.91c5.876,9.947,14.565,16.173,19.035,13.673l.006,0c4.466-2.5,3.258-13.037-2.615-22.944C42.239,8.206,35.159,2.424,30.438,2.424h-.024A4.718,4.718,0,0,0,28.229,2.962ZM2.513,40.073H27.925a36.674,36.674,0,0,1-3.016-3.579H2.513ZM8.54,34.045l0,.048H23.155c-.4-.637-.806-1.274-1.207-1.962-.3-.585-.6-1.127-.9-1.665H8.54Zm0-6.032h11.3a27.5,27.5,0,0,1-1.508-3.575l-9.791,0Zm5.825-6.031h3.213a24.529,24.529,0,0,1-.8-3.579h-2.41ZM44.38,33.124,42.986,30.8l-2.018,1.151c-.338.194-.906-.135-1.265-.731s-.373-1.242-.037-1.436l1.053-.6-7.9-13.167-1.05.6c-.339.194-.907-.135-1.265-.736s-.376-1.242-.037-1.435L32.487,13.3l-1.394-2.322c-.358-.6-.373-1.242-.033-1.435s.909.134,1.265.732l1.391,2.321.7-.4L33.032,9.871c-.362-.6-.373-1.242-.037-1.436s.909.134,1.268.732l1.391,2.318.352-.2c1.408-.807,3.761.558,5.245,3.034a7.782,7.782,0,0,1,1.155,3.489,8.2,8.2,0,0,1,4.219,3.738c1.767,2.946,1.845,6.123.171,7.079l-.64.364,1.394,2.326c.356.6.373,1.242.033,1.436s-.909-.135-1.264-.736l-1.4-2.322-.705.4,1.4,2.322c.359.6.372,1.242.035,1.436a.441.441,0,0,1-.22.055A1.443,1.443,0,0,1,44.38,33.124Zm-2.748-13.1-3.676,2.1,3.866,6.439,3.676-2.1c1.066-.61,1.131-2.445,0-4.328a4.143,4.143,0,0,0-3.1-2.308A1.53,1.53,0,0,0,41.632,20.02Zm-4.325-6.565-3.388,1.934,2.854,4.758,3.388-1.934c.8-.455.871-1.8.024-3.207A3.027,3.027,0,0,0,37.9,13.3,1.167,1.167,0,0,0,37.307,13.455Z" transform="translate(23 19)" fill="#0474b2"/>
  </g>
  <g id="mt5" transform="translate(600)">
    <rect id="Rectangle_5-7" data-name="Rectangle 5" width="100" height="80" fill="#dfdfdf" opacity="0"/>
    <g id="Icn_Mt5" transform="translate(-1304.62 -701.226)">
      <path id="Path_17" data-name="Path 17" d="M1381.268,753.889l.2-1.009c2.623-10.7-4.742-16.144-8.879-17.456h-.1a16.589,16.589,0,0,0-1.009-9.384c-1.715-3.632-4.843-6.155-9.485-7.568l-1.11-.3c-1.009-2.926-3.33-4.944-6.054-4.944-2.825,0-5.146,2.119-6.155,5.045l-.807.1c-10.7,2.926-11.805,11.906-10.9,16.245v.1a16.134,16.134,0,0,0-6.962,4.843c-2.422,3.128-3.229,7.164-2.321,11.906l.2,1.009c-2.22,2.22-2.926,5.247-1.614,7.769a6.513,6.513,0,0,0,5.751,3.229,5.331,5.331,0,0,0,1.312-.1l.908.908a14.47,14.47,0,0,0,10.393,4.641,15.382,15.382,0,0,0,9.182-3.431l.3-.3a15.241,15.241,0,0,0,9.989,4.036c3.532,0,6.861-1.513,9.989-4.339l.807-.807a11.119,11.119,0,0,0,1.816.2,6.06,6.06,0,0,0,5.348-2.724C1383.993,759.438,1383.387,756.209,1381.268,753.889Zm-10.191-13.42a17.269,17.269,0,0,0,.908-3.027c2.018.807,9.787,4.641,7.467,14.832h0l-.1-.1a9.671,9.671,0,0,0-4.036-1.413,5.754,5.754,0,0,0-1.312-.1,8.675,8.675,0,0,0-3.935.908l-1.211-.706a13.225,13.225,0,0,0,.706-6.559l3.733,2.119s1.614-3.229-2.522-4.843C1370.775,741.68,1370.875,741.175,1371.077,740.469Zm-9.687-19.978c14.53,4.339,7.568,19.676,7.568,19.676a6.677,6.677,0,0,0-2.724-4.238c1.11-6.861-2.825-7.164-2.825-7.164V733.1a14.791,14.791,0,0,0-6.054-2.623v-1.413A9.714,9.714,0,0,0,1361.391,720.49Zm5.953,24.721a12.613,12.613,0,1,1-12.613-12.613A12.617,12.617,0,0,1,1367.344,745.211Zm-12.512-29.867h0c2.422,0,4.44,2.523,4.44,5.65s-1.917,5.65-4.44,5.65-4.44-2.523-4.44-5.65S1352.411,715.345,1354.832,715.345Zm-6.458,5.247h0v.5a9.036,9.036,0,0,0,1.009,4.238,9.237,9.237,0,0,0,3.128,3.935v1.413a14.934,14.934,0,0,0-4.641,1.614l-1.513.908v-4.137s-3.531.2-3.027,4.541h-.2a25.982,25.982,0,0,0-4.036.807C1338.991,733,1337.78,723.719,1348.375,720.591Zm-4.742,14.933c-.2.2-.4.5-.605.706a7.156,7.156,0,0,0-1.009,1.413,16.4,16.4,0,0,0-1.11,2.321c-6.054,2.22-4.641,5.65-4.641,5.65L1340,743.7v.605a14.828,14.828,0,0,0,.605,5.953l-1.211.605a8.757,8.757,0,0,0-4.238-1.009,10.641,10.641,0,0,0-4.944,1.312h0c-.1.1-.2.1-.3.2C1327.286,737.543,1341.513,735.727,1343.632,735.525Zm-11.4,26.032a4.424,4.424,0,0,1-3.935-2.018h0c-1.11-2.119.2-5.045,2.926-6.559a6.867,6.867,0,0,1,3.128-.807,4.316,4.316,0,0,1,3.935,2.018c1.11,2.119-.2,5.045-2.926,6.559A6.868,6.868,0,0,1,1332.23,761.557Zm12.613,5.549c-2.624,0-5.751-1.009-8.879-4.036a10.122,10.122,0,0,0,5.55-7.769l1.211-.706a13.363,13.363,0,0,0,5.247,3.935l-3.733,2.119a3.171,3.171,0,0,0,2.623,1.413,4.336,4.336,0,0,0,2.825-1.11c.908,1.11,1.917,2.22,2.926,3.229a12.975,12.975,0,0,1-7.769,2.926Zm19.575.3c-7.063,0-12.209-7.366-12.209-7.366a5.27,5.27,0,0,0,2.119.4,6.773,6.773,0,0,0,2.825-.605c2.22,1.816,3.834,2.321,5.045,2.321a3.279,3.279,0,0,0,2.522-1.11l-3.733-2.22a12.993,12.993,0,0,0,5.348-3.935l1.211.706a10.217,10.217,0,0,0,5.348,7.87c-2.926,2.926-5.852,3.935-8.476,3.935Zm16.245-6.659a3.828,3.828,0,0,1-3.531,1.715,6.117,6.117,0,0,1-3.532-1.11c-2.623-1.715-3.733-4.742-2.422-6.76a3.828,3.828,0,0,1,3.532-1.715h.4a9.667,9.667,0,0,1,3.229,1.211l1.009.706c1.715,1.816,2.422,4.238,1.312,5.953Z" fill="#0474b2"/>
      <path id="Path-2" d="M1360.419,755.979l.807-9.888h8.879l-.3,3.128-5.348-.1-.3,3.532s6.559-.908,6.559,4.944-6.962,7.668-11,6.054l.2-2.22s6.559,1.917,7.164-3.33C1367.179,753.355,1360.419,755.979,1360.419,755.979Z" transform="translate(-10.228 -9.859)" fill="#0474b2"/>
    </g>
  </g>
  <g id="etp" transform="translate(700)">
    <rect id="Rectangle_5-8" data-name="Rectangle 5" width="100" height="80" fill="#dfdfdf" opacity="0"/>
    <g id="Icn_Etp" transform="translate(-1322.864 -1385.962)">
      <path id="Path" d="M1386.123,1405.007l-.995-.045-17.385.068-.877,2.108h18.294a11.672,11.672,0,0,1-.032,23.345v0h-3.436v12.986h-6.223l-1.071,2.179h9.473v-12.986l2.251-.052a13.837,13.837,0,0,0,0-27.605Z" transform="translate(1.883 1)" fill="#0474b2"/>
      <path id="Path-2-2" data-name="Path" d="M1384.326,1415.048h0l-20.514.072-.877,2.108h21.391a.982.982,0,1,1,0,1.964h0l-11.988.071-.878,2.11h12.867a3.161,3.161,0,1,0,0-6.322Z" transform="translate(1.929 1.915)" fill="#0474b2"/>
      <path id="Path-3" data-name="Path" d="M1363.6,1407.2l-3.534,8.736h-3.3v6.382h2.179l9.154,0-3.534,7.363h-7.8v6.444h18.076l-3.534,7.363h-23.271V1407.2h15.56m3.232-2.179h-20.971v40.643h26.821l5.626-11.721h-19.36v-2.086h6.991l5.627-11.722-12.618,0v-2.024h2.588l5.3-13.094Z" transform="translate(0 0.937)" fill="#0474b2"/>
    </g>
  </g>
  <g id="aggregation" transform="translate(800)">
    <rect id="Rectangle_5-9" data-name="Rectangle 5" width="100" height="80" fill="#dfdfdf" opacity="0"/>
    <g id="Icn_Aggregation" transform="translate(-1445.039 -1365.485)">
      <line id="Line-3" data-name="Line" y2="6" transform="translate(1495.038 1402.484)" fill="none" stroke="#0474b2" stroke-miterlimit="10" stroke-width="2"/>
      <path id="Path-4" data-name="Path" d="M1484.243,1430.125v-7h30v7" transform="translate(-4.205 -13.64)" fill="none" stroke="#0474b2" stroke-miterlimit="10" stroke-width="2"/>
      <path id="Path-5" data-name="Path" d="M1484.243,1400.743v7h30v-7" transform="translate(-4.205 -5.259)" fill="none" stroke="#0474b2" stroke-miterlimit="10" stroke-width="2"/>
      <rect id="Rectangle" width="19" height="12" rx="2" transform="translate(1500.039 1415.485)" fill="none" stroke="#0474b2" stroke-linecap="round" stroke-miterlimit="10" stroke-width="2"/>
      <rect id="Rectangle-2" data-name="Rectangle" width="19" height="12" rx="2" transform="translate(1471.038 1415.485)" fill="none" stroke="#0474b2" stroke-linecap="round" stroke-miterlimit="10" stroke-width="2"/>
      <rect id="Rectangle-3" data-name="Rectangle" width="19" height="12" rx="2" transform="translate(1500.039 1384.485)" fill="none" stroke="#0474b2" stroke-linecap="round" stroke-miterlimit="10" stroke-width="2"/>
      <rect id="Rectangle-4" data-name="Rectangle" width="19" height="12" rx="2" transform="translate(1471.038 1384.485)" fill="none" stroke="#0474b2" stroke-linecap="round" stroke-miterlimit="10" stroke-width="2"/>
    </g>
  </g>
  <g id="risk" transform="translate(900)">
    <rect id="Rectangle_5-10" data-name="Rectangle 5" width="100" height="80" fill="#dfdfdf" opacity="0"/>
    <g id="Icn_Risk" transform="translate(-1211.074 -1335.564)">
      <path id="Path-6" data-name="Path" d="M1259.84,1380.6l.005.006v22.92a4.269,4.269,0,0,1-4.264,4.264h-.3a4.269,4.269,0,0,1-4.264-4.264v-2.608a1.047,1.047,0,0,0-2.094,0v2.608a6.365,6.365,0,0,0,6.358,6.358h.3a6.365,6.365,0,0,0,6.358-6.358v-22.92l.005-.006Z" fill="#0474b2"/>
      <g id="Path-7" data-name="Path" fill="none" stroke-linecap="round" stroke-linejoin="round">
        <path d="M1261.892,1356.366h-2a28.818,28.818,0,0,0-27.819,28.8h.238a7.924,7.924,0,0,1,14.625-1.683,7.924,7.924,0,0,1,12.951-1.449h2.009a7.923,7.923,0,0,1,12.95,1.449,7.924,7.924,0,0,1,14.625,1.683h.238A28.818,28.818,0,0,0,1261.892,1356.366Z" stroke="none"/>
        <path d="M 1259.927734375 1358.365966796875 C 1252.974487304688 1358.611572265625 1246.475830078125 1361.503784179688 1241.625244140625 1366.512084960938 C 1238.280395507813 1369.965698242188 1235.9677734375 1374.173095703125 1234.847412109375 1378.738037109375 C 1236.355224609375 1377.830322265625 1238.112060546875 1377.316040039063 1239.9599609375 1377.316040039063 C 1242.614013671875 1377.316040039063 1245.1064453125 1378.370727539063 1246.93701171875 1380.181396484375 C 1248.767822265625 1378.370727539063 1251.260620117188 1377.316040039063 1253.9150390625 1377.316040039063 C 1256.463623046875 1377.316040039063 1258.9013671875 1378.296508789063 1260.737060546875 1380.034057617188 L 1261.047607421875 1380.034057617188 C 1262.882690429688 1378.296508789063 1265.320556640625 1377.316040039063 1267.869995117188 1377.316040039063 C 1270.523803710938 1377.316040039063 1273.016479492188 1378.370971679688 1274.847045898438 1380.181396484375 C 1276.677612304688 1378.370971679688 1279.170166015625 1377.316040039063 1281.823974609375 1377.316040039063 C 1283.672119140625 1377.316040039063 1285.428588867188 1377.829956054688 1286.936279296875 1378.737548828125 C 1285.816040039063 1374.172607421875 1283.503540039063 1369.965698242188 1280.158813476563 1366.512084960938 C 1275.308349609375 1361.503784179688 1268.81005859375 1358.611572265625 1261.857177734375 1358.365966796875 L 1259.927734375 1358.365966796875 M 1259.892944335938 1356.365966796875 L 1261.891967773438 1356.365966796875 C 1277.343994140625 1356.892944335938 1289.7099609375 1369.5849609375 1289.7099609375 1385.166015625 L 1289.472045898438 1385.166015625 C 1288.56201171875 1381.796020507813 1285.483032226563 1379.316040039063 1281.823974609375 1379.316040039063 C 1278.807983398438 1379.316040039063 1276.18505859375 1381.001953125 1274.847045898438 1383.483032226563 C 1273.509033203125 1381.001953125 1270.885986328125 1379.316040039063 1267.869995117188 1379.316040039063 C 1265.485961914063 1379.316040039063 1263.348999023438 1380.369018554688 1261.89697265625 1382.034057617188 L 1259.887939453125 1382.034057617188 C 1258.43505859375 1380.369018554688 1256.297973632813 1379.316040039063 1253.9150390625 1379.316040039063 C 1250.89794921875 1379.316040039063 1248.275024414063 1381.001953125 1246.93701171875 1383.483032226563 C 1245.598999023438 1381.001953125 1242.97705078125 1379.316040039063 1239.9599609375 1379.316040039063 C 1236.302001953125 1379.316040039063 1233.223022460938 1381.796020507813 1232.31201171875 1385.166015625 L 1232.073974609375 1385.166015625 C 1232.073974609375 1369.5849609375 1244.43994140625 1356.892944335938 1259.892944335938 1356.365966796875 Z" stroke="none" fill="#0474b2"/>
      </g>
      <line id="Line-4" data-name="Line" y2="7" transform="translate(1285.798 1351.769)" fill="none" stroke="#0474b2" stroke-linecap="round" stroke-miterlimit="10" stroke-width="2"/>
      <line id="Line-5" data-name="Line" y2="12" transform="translate(1273.159 1343.265)" fill="none" stroke="#0474b2" stroke-linecap="round" stroke-miterlimit="10" stroke-width="2"/>
      <line id="Line-6" data-name="Line" y2="6" transform="translate(1260.52 1345.816)" fill="none" stroke="#0474b2" stroke-linecap="round" stroke-miterlimit="10" stroke-width="2"/>
      <line id="Line-7" data-name="Line" y2="13" transform="translate(1247.882 1341.564)" fill="none" stroke="#0474b2" stroke-linecap="round" stroke-miterlimit="10" stroke-width="2"/>
      <line id="Line-8" data-name="Line" y2="9" transform="translate(1235.243 1352.619)" fill="none" stroke="#0474b2" stroke-linecap="round" stroke-miterlimit="10" stroke-width="2"/>
    </g>
  </g>
  <g id="company" transform="translate(1000)">
    <rect id="Rectangle_5-11" data-name="Rectangle 5" width="100" height="80" fill="#dfdfdf" opacity="0"/>
    <g id="Icn_Company" transform="translate(-904 -339)">
      <path id="Path-8" data-name="Path" d="M1358.437,1403.4h-1.925v-46.332a1.185,1.185,0,0,0-.517-.979l-17.183-11.741a.78.78,0,0,0-.321-.07.739.739,0,0,0-.222.033l-9.106,2.748a.774.774,0,0,0-.572.7v10.143l8.343-2.222v4.954l18.114,9.224v2.977l-11.613-5.906v1.495l11.613,5.648v2.944l-11.613-4.991v1.5l11.613,4.725v2.851l-11.613-3.968v1.519l11.613,3.7,0,2.767-11.608-2.9v1.534l11.613,2.659v2.718l-11.613-1.778v1.524l11.613,1.518v3.03l-11.613-.959v1.526l11.613.959-.019,2.9-11.594-.25v1.5l11.49.275v4.031h-39.069l-.481,0v-3.594l14.045-1.051,10.731.588a.9.9,0,0,0,.9-.711c.011-.181,0-.77-.512-.8l-11.174-.59-13.989,1.051v-3.84l14.014-1.921,10.755,1.749a.8.8,0,0,0,.107.007.814.814,0,0,0,.8-.656.706.706,0,0,0-.567-.855l-11-1.76h-.1l-14.018,1.912v-3.821l14.05-2.841,10.717,2.8a.731.731,0,0,0,.1.007.816.816,0,0,0,.808-.655.718.718,0,0,0-.61-.863l-11.021-2.792-14.048,2.819v-3.952l14.04-3.618,10.76,3.8a.776.776,0,0,0,.154.016.754.754,0,0,0,.73-.6.786.786,0,0,0-.654-.914l-10.907-3.813-.051.008-14.072,3.592v-4.079l14.039-4.22,10.792,4.521a.733.733,0,0,0,.2.028.7.7,0,0,0,.664-.556.656.656,0,0,0-.076-.5,1,1,0,0,0-.615-.453l-10.818-4.575-.094.025-14.09,4.172v-3.724l14.058-5.168,10.811,5.176a.741.741,0,0,0,.165.019.7.7,0,0,0,.659-.548.667.667,0,0,0-.106-.544.962.962,0,0,0-.532-.391l-.039-.011-10.828-5.21-.023-.006-14.166,5.112v-3.71l14.083-6.255,10.8,5.7a.718.718,0,0,0,.177.022.687.687,0,0,0,.637-.531c.119-.381-.253-.823-.652-.948l-.043-.013-10.788-5.754-14.746,6.337a1.547,1.547,0,0,0-1.113,1.579V1403.4h-1.78a.826.826,0,0,0,0,1.646h46.487a.826.826,0,0,0,0-1.646Zm-21.5-49.3-6.958,1.951v-3.073l6.958-1.952Zm0-4.646-6.958,1.951v-3.055l6.958-2.075Zm18.114,19.168-16.729-8.688v-3.81l16.729,9.583Zm0-4.181-16.729-9.87v-3.6l16.729,10.439Zm0-4.3-16.729-10.73v-3.758l16.729,11.446Z" transform="translate(-381.192 -995.283)" fill="#0474b2"/>
    </g>
  </g>
  <g id="contact" transform="translate(1100)">
    <rect id="Rectangle_5-12" data-name="Rectangle 5" width="100" height="80" fill="#dfdfdf" opacity="0"/>
    <g id="Icn_Contact" transform="translate(-1388.478 -1340.982)">
      <g id="Path-9" data-name="Path" fill="none" stroke-linecap="square" stroke-miterlimit="10">
        <path d="M1464.685,1368.933H1439.55V1362.2a3.219,3.219,0,0,0-3.215-3.216h-24.64a3.22,3.22,0,0,0-3.216,3.216v15.266a3.219,3.219,0,0,0,3.216,3.216h1.732v4.893a.9.9,0,0,0,1.478.687l6.175-5.21a1.559,1.559,0,0,1,1.007-.37h8v11.132a3.8,3.8,0,0,0,3.794,3.8h17.807a2.191,2.191,0,0,1,1.407.513l7.715,6.514a.9.9,0,0,0,1.478-.687v-6.34h2.393a3.8,3.8,0,0,0,3.793-3.8v-19.085A3.8,3.8,0,0,0,1464.685,1368.933Z" stroke="none"/>
        <path d="M 1411.694458007813 1360.982055664063 C 1411.023681640625 1360.982055664063 1410.47802734375 1361.527709960938 1410.47802734375 1362.198364257813 L 1410.47802734375 1377.464477539063 C 1410.47802734375 1378.135131835938 1411.023681640625 1378.680786132813 1411.694458007813 1378.680786132813 L 1413.426879882813 1378.680786132813 L 1415.426879882813 1378.680786132813 L 1415.426879882813 1380.680786132813 L 1415.426879882813 1383.203247070313 L 1419.785888671875 1379.525390625 C 1420.427124023438 1378.980712890625 1421.244018554688 1378.680786132813 1422.086669921875 1378.680786132813 L 1430.091552734375 1378.680786132813 L 1432.091552734375 1378.680786132813 L 1432.091552734375 1380.680786132813 L 1432.091552734375 1391.8125 C 1432.091552734375 1392.802978515625 1432.896240234375 1393.608764648438 1433.885375976563 1393.608764648438 L 1451.6923828125 1393.608764648438 C 1452.67724609375 1393.608764648438 1453.63427734375 1393.957641601563 1454.389770507813 1394.593383789063 L 1460.29248046875 1399.577270507813 L 1460.29248046875 1395.608764648438 L 1460.29248046875 1393.608764648438 L 1462.29248046875 1393.608764648438 L 1464.685180664063 1393.608764648438 C 1465.673706054688 1393.608764648438 1466.47802734375 1392.802978515625 1466.47802734375 1391.8125 L 1466.47802734375 1372.72705078125 C 1466.47802734375 1371.737915039063 1465.673706054688 1370.933227539063 1464.685180664063 1370.933227539063 L 1439.549682617188 1370.933227539063 L 1437.549682617188 1370.933227539063 L 1437.549682617188 1368.933227539063 L 1437.549682617188 1362.198364257813 C 1437.549682617188 1361.527709960938 1437.00439453125 1360.982055664063 1436.334228515625 1360.982055664063 L 1411.694458007813 1360.982055664063 M 1411.694458007813 1358.982055664063 L 1436.334228515625 1358.982055664063 C 1438.107543945313 1358.982055664063 1439.549682617188 1360.424926757813 1439.549682617188 1362.198364257813 L 1439.549682617188 1368.933227539063 L 1464.685180664063 1368.933227539063 C 1466.776977539063 1368.933227539063 1468.47802734375 1370.635009765625 1468.47802734375 1372.72705078125 L 1468.47802734375 1391.8125 C 1468.47802734375 1393.904418945313 1466.776977539063 1395.608764648438 1464.685180664063 1395.608764648438 L 1462.29248046875 1395.608764648438 L 1462.29248046875 1401.948608398438 C 1462.29248046875 1402.296875 1462.08984375 1402.615356445313 1461.774658203125 1402.761840820313 C 1461.651245117188 1402.818115234375 1461.522583007813 1402.84619140625 1461.394775390625 1402.84619140625 C 1461.18701171875 1402.84619140625 1460.981689453125 1402.774780273438 1460.814697265625 1402.635864257813 L 1453.099487304688 1396.121459960938 C 1452.706909179688 1395.791137695313 1452.2060546875 1395.608764648438 1451.6923828125 1395.608764648438 L 1433.885375976563 1395.608764648438 C 1431.79345703125 1395.608764648438 1430.091552734375 1393.904418945313 1430.091552734375 1391.8125 L 1430.091552734375 1380.680786132813 L 1422.086669921875 1380.680786132813 C 1421.7197265625 1380.680786132813 1421.360229492188 1380.811889648438 1421.079833984375 1381.050415039063 L 1414.904541015625 1386.2607421875 C 1414.740234375 1386.399536132813 1414.534912109375 1386.471069335938 1414.324584960938 1386.471069335938 C 1414.19677734375 1386.471069335938 1414.068237304688 1386.445434570313 1413.947387695313 1386.389282226563 C 1413.629516601563 1386.240234375 1413.426879882813 1385.92431640625 1413.426879882813 1385.573364257813 L 1413.426879882813 1380.680786132813 L 1411.694458007813 1380.680786132813 C 1409.920166015625 1380.680786132813 1408.47802734375 1379.23876953125 1408.47802734375 1377.464477539063 L 1408.47802734375 1362.198364257813 C 1408.47802734375 1360.424926757813 1409.920166015625 1358.982055664063 1411.694458007813 1358.982055664063 Z" stroke="none" fill="#0474b2"/>
      </g>
      <line id="Line-9" data-name="Line" x2="16.184" transform="translate(1440.478 1385.982)" fill="none" stroke="#0474b2" stroke-linecap="round" stroke-miterlimit="10" stroke-width="2"/>
      <line id="Line-10" data-name="Line" x2="17.887" transform="translate(1440.478 1379.982)" fill="none" stroke="#0474b2" stroke-linecap="round" stroke-miterlimit="10" stroke-width="2"/>
      <line id="Line-11" data-name="Line" x2="10.221" transform="translate(1416.479 1371.982)" fill="none" stroke="#0474b2" stroke-linecap="round" stroke-miterlimit="10" stroke-width="2"/>
      <line id="Line-12" data-name="Line" x2="15.332" transform="translate(1416.479 1366.982)" fill="none" stroke="#0474b2" stroke-linecap="round" stroke-miterlimit="10" stroke-width="2"/>
    </g>
  </g>
</svg>
