<svg id="icons_spite_technology_200" xmlns="http://www.w3.org/2000/svg" width="1200" height="200.433" viewBox="0 0 1200 200.433">
  <g id="icons_spite_technology_200_01">
    <g id="icons_spite_technology_200-2" data-name="icons_spite_technology_200" transform="translate(0 100)">
      <g id="icons_spite_technology_icon_3000">
        <rect id="Rectangle_2" data-name="Rectangle 2" width="200" height="100" fill="#e2e2e2" opacity="0"/>
        <g id="Icn_3000" transform="translate(54 8)">
          <path id="Circle" d="M45.912,89.124A43.3,43.3,0,1,1,85.4,27.934a1.252,1.252,0,0,0,1.145.749h0A1.283,1.283,0,0,0,87.7,26.867a45.837,45.837,0,1,0,.013,37.893,1.271,1.271,0,0,0-1.171-1.778h0a1.252,1.252,0,0,0-1.145.749A43.434,43.434,0,0,1,45.912,89.124Z" transform="translate(0 0.002)" fill="#8c8c8c"/>
          <path id="Color_Shape" d="M45.677,19.473V7.838q0-7.832,6.35-7.838c4.276,0,6.426,2.616,6.426,7.838V19.473a9.857,9.857,0,0,1-1.489,5.818c-.992,1.385-2.634,2.084-4.937,2.084C47.8,27.375,45.677,24.746,45.677,19.473ZM49,3.455a8.519,8.519,0,0,0-.878,4.23V19.677c0,3.861,1.3,5.779,3.906,5.779a3.246,3.246,0,0,0,3.054-1.549,8.424,8.424,0,0,0,.891-4.23V7.685a8.506,8.506,0,0,0-.879-4.23,3.234,3.234,0,0,0-3.066-1.525A3.2,3.2,0,0,0,49,3.455ZM30.548,19.473V7.838Q30.548.006,36.9,0c4.276,0,6.426,2.616,6.426,7.838V19.473a9.865,9.865,0,0,1-1.488,5.818c-.993,1.385-2.635,2.084-4.938,2.084C32.672,27.375,30.548,24.746,30.548,19.473ZM33.869,3.455a8.506,8.506,0,0,0-.879,4.23V19.677c0,3.861,1.3,5.779,3.906,5.779a3.248,3.248,0,0,0,3.055-1.549,8.437,8.437,0,0,0,.89-4.23V7.685a8.519,8.519,0,0,0-.878-4.23A3.237,3.237,0,0,0,36.9,1.931,3.2,3.2,0,0,0,33.869,3.455ZM15.43,19.473V7.838Q15.43.006,21.78,0c4.275,0,6.426,2.616,6.426,7.838V19.473a9.865,9.865,0,0,1-1.489,5.818c-.992,1.385-2.635,2.084-4.937,2.084Q15.424,27.375,15.43,19.473ZM18.738,3.455a8.519,8.519,0,0,0-.878,4.23V19.677c0,3.861,1.3,5.779,3.906,5.779a3.233,3.233,0,0,0,3.054-1.549,8.424,8.424,0,0,0,.891-4.23V7.685a8.506,8.506,0,0,0-.879-4.23,3.234,3.234,0,0,0-3.066-1.525A3.2,3.2,0,0,0,18.738,3.455ZM1.451,25.647A7.2,7.2,0,0,1,0,20.859V20.2H2.354v.559A6.224,6.224,0,0,0,3.22,24.2a3.084,3.084,0,0,0,2.748,1.194A3.417,3.417,0,0,0,8.9,24.072a7.343,7.343,0,0,0,.979-4.293q0-5.545-4.008-5.679H5.205V11.788h.661a3.691,3.691,0,0,0,3.079-1.194,6.368,6.368,0,0,0,.929-3.9,6.286,6.286,0,0,0-.827-3.481A3.127,3.127,0,0,0,6.236,1.969,3.544,3.544,0,0,0,3.309,3.087a5.692,5.692,0,0,0-.942,3.531v.458H.013V6.453Q.013.012,6.2.013a5.778,5.778,0,0,1,4.619,1.8,7.26,7.26,0,0,1,1.54,4.878,7.609,7.609,0,0,1-1.044,4.281,4.623,4.623,0,0,1-2.8,1.994,4.659,4.659,0,0,1,2.735,2.1,8.568,8.568,0,0,1,1.094,4.662,9.077,9.077,0,0,1-1.551,5.6,5.7,5.7,0,0,1-4.836,2.033A5.577,5.577,0,0,1,1.451,25.647ZM73.1,23.428V14.964H64.631a1.188,1.188,0,0,1-1.081-1.27,1.189,1.189,0,0,1,1.081-1.271H73.1V3.959a1.287,1.287,0,0,1,2.541,0v8.464H84.1a1.189,1.189,0,0,1,1.081,1.271,1.188,1.188,0,0,1-1.081,1.27H75.637v8.464a1.287,1.287,0,0,1-2.541,0Z" transform="translate(14.818 32.141)" fill="#be0000"/>
        </g>
      </g>
      <g id="icons_spite_technology_icon_speed" transform="translate(201)">
        <rect id="Rectangle_2-2" data-name="Rectangle 2" width="200" height="100" transform="translate(-1)" fill="#e2e2e2" opacity="0"/>
        <g id="Icn_Speed" transform="translate(13 1)">
          <path id="Circle-2" data-name="Circle" d="M.294,81.157a1.309,1.309,0,1,1,2.032-1.651A43.349,43.349,0,1,0,4.343,23.051a1.265,1.265,0,0,1-.943.42,1.315,1.315,0,0,1-.971-2.2A45.849,45.849,0,0,1,34.864,6.509V2.621H29.622a1.311,1.311,0,0,1,0-2.621h13.1a1.311,1.311,0,0,1,0,2.621H37.485V6.509c.274.008.55.018.825.03A45.975,45.975,0,1,1,.294,81.157Z" transform="translate(49.137)" fill="#8c8c8c"/>
          <path id="Color_Shape-2" data-name="Color_Shape" d="M17.337,45.225a1.311,1.311,0,0,1,0-2.621H41.909a1.311,1.311,0,0,1,0,2.621ZM25.161,34.57a1.31,1.31,0,1,1,0-2.62h25.8a1.31,1.31,0,0,1,0,2.62Zm57.875-.7L71.006,21.844A1.306,1.306,0,1,1,72.854,20L83.967,31.109l21.44-21.426a1.306,1.306,0,0,1,1.847,1.847L84.9,33.888a1.346,1.346,0,0,1-.931.38A1.272,1.272,0,0,1,83.036,33.874ZM23.588,23.916a1.311,1.311,0,0,1,0-2.621H43.639a1.311,1.311,0,0,1,0,2.621Zm-13.1-10.641a1.31,1.31,0,1,1,0-2.62H50.964a1.31,1.31,0,0,1,0,2.62ZM1.311,2.621A1.311,1.311,0,0,1,1.311,0h45.04a1.311,1.311,0,1,1,0,2.621Z" transform="translate(0 29.905)" fill="#be0000"/>
        </g>
      </g>
      <g id="icons_spite_technology_icon_price" transform="translate(415 -1)">
        <rect id="Rectangle_2-3" data-name="Rectangle 2" width="200" height="100" transform="translate(-15 1)" fill="#e2e2e2" opacity="0"/>
        <g id="Icn_Price" transform="translate(39 9)">
          <path id="Circle-3" data-name="Circle" d="M42.475,91.544A45.851,45.851,0,0,1,36.274.978a1.271,1.271,0,0,1,.509,2.491,43.341,43.341,0,1,0,18.07,0,1.263,1.263,0,0,1-1.017-1.233A1.292,1.292,0,0,1,55.373.966a45.85,45.85,0,0,1-9.519,90.7C44.738,91.666,43.609,91.626,42.475,91.544Zm2.5-57.26a3.153,3.153,0,0,1-2.16-2.122,3.185,3.185,0,0,1,1.766-3.85V1.271a1.271,1.271,0,1,1,2.542,0l-.013,27.042a3.224,3.224,0,0,1,1.919,2.91,3.174,3.174,0,0,1-3.173,3.18A3.4,3.4,0,0,1,44.979,34.285Z" transform="translate(0)" fill="#8c8c8c"/>
          <path id="Color_Shape-3" data-name="Color_Shape" d="M2.364,46.109A2.359,2.359,0,0,1,0,43.746V11.685A4.122,4.122,0,0,1,1.156,8.813L9.391.147a.461.461,0,0,1,.789.318V2.828a.5.5,0,0,1-.127.317L3,10.566a1.66,1.66,0,0,0-.444,1.118V43.568h21.6V11.685a1.6,1.6,0,0,0-.445-1.118L16.66,3.145a.5.5,0,0,1-.127-.317V.465A.455.455,0,0,1,17.32.147l8.234,8.667A4.139,4.139,0,0,1,26.7,11.685V43.746a2.359,2.359,0,0,1-2.364,2.363ZM12.455,39.4v-.918a4.711,4.711,0,0,1-3.733-4.606.97.97,0,0,1,.977-.989.988.988,0,0,1,.99.989,2.756,2.756,0,0,0,1.766,2.556V31.01a4.714,4.714,0,0,1,0-9.222v-.906a.981.981,0,0,1,.99-.99,1,1,0,0,1,.989.99v.895a4.725,4.725,0,0,1,3.733,4.617.989.989,0,1,1-1.978,0,2.756,2.756,0,0,0-1.767-2.556v5.418a4.713,4.713,0,0,1,.012,9.222V39.4a.99.99,0,1,1-1.979,0Zm1.967-2.968a2.74,2.74,0,0,0,0-5.123ZM10.689,26.394a2.761,2.761,0,0,0,1.766,2.567V23.839A2.728,2.728,0,0,0,10.689,26.394Z" transform="translate(32.5 17.796)" fill="#be0000"/>
        </g>
      </g>
    </g>
    <g id="icons_spite_technology_200_hover">
      <g id="icons_spite_technology_icon_3000-2" data-name="icons_spite_technology_icon_3000">
        <rect id="Rectangle_2-4" data-name="Rectangle 2" width="200" height="100" fill="#e2e2e2" opacity="0"/>
        <g id="Icn_3000-2" data-name="Icn_3000" transform="translate(54 8)">
          <path id="Circle-4" data-name="Circle" d="M45.912,89.124A43.3,43.3,0,1,1,85.4,27.934a1.252,1.252,0,0,0,1.145.749h0A1.283,1.283,0,0,0,87.7,26.867a45.837,45.837,0,1,0,.013,37.893,1.271,1.271,0,0,0-1.171-1.778h0a1.252,1.252,0,0,0-1.145.749A43.434,43.434,0,0,1,45.912,89.124Z" transform="translate(0 0.002)" fill="#8c8c8c"/>
          <path id="Color_Shape-4" data-name="Color_Shape" d="M45.677,19.473V7.838q0-7.832,6.35-7.838c4.276,0,6.426,2.616,6.426,7.838V19.473a9.857,9.857,0,0,1-1.489,5.818c-.992,1.385-2.634,2.084-4.937,2.084C47.8,27.375,45.677,24.746,45.677,19.473ZM49,3.455a8.519,8.519,0,0,0-.878,4.23V19.677c0,3.861,1.3,5.779,3.906,5.779a3.246,3.246,0,0,0,3.054-1.549,8.424,8.424,0,0,0,.891-4.23V7.685a8.506,8.506,0,0,0-.879-4.23,3.234,3.234,0,0,0-3.066-1.525A3.2,3.2,0,0,0,49,3.455ZM30.548,19.473V7.838Q30.548.006,36.9,0c4.276,0,6.426,2.616,6.426,7.838V19.473a9.865,9.865,0,0,1-1.488,5.818c-.993,1.385-2.635,2.084-4.938,2.084C32.672,27.375,30.548,24.746,30.548,19.473ZM33.869,3.455a8.506,8.506,0,0,0-.879,4.23V19.677c0,3.861,1.3,5.779,3.906,5.779a3.248,3.248,0,0,0,3.055-1.549,8.437,8.437,0,0,0,.89-4.23V7.685a8.519,8.519,0,0,0-.878-4.23A3.237,3.237,0,0,0,36.9,1.931,3.2,3.2,0,0,0,33.869,3.455ZM15.43,19.473V7.838Q15.43.006,21.78,0c4.275,0,6.426,2.616,6.426,7.838V19.473a9.865,9.865,0,0,1-1.489,5.818c-.992,1.385-2.635,2.084-4.937,2.084Q15.424,27.375,15.43,19.473ZM18.738,3.455a8.519,8.519,0,0,0-.878,4.23V19.677c0,3.861,1.3,5.779,3.906,5.779a3.233,3.233,0,0,0,3.054-1.549,8.424,8.424,0,0,0,.891-4.23V7.685a8.506,8.506,0,0,0-.879-4.23,3.234,3.234,0,0,0-3.066-1.525A3.2,3.2,0,0,0,18.738,3.455ZM1.451,25.647A7.2,7.2,0,0,1,0,20.859V20.2H2.354v.559A6.224,6.224,0,0,0,3.22,24.2a3.084,3.084,0,0,0,2.748,1.194A3.417,3.417,0,0,0,8.9,24.072a7.343,7.343,0,0,0,.979-4.293q0-5.545-4.008-5.679H5.205V11.788h.661a3.691,3.691,0,0,0,3.079-1.194,6.368,6.368,0,0,0,.929-3.9,6.286,6.286,0,0,0-.827-3.481A3.127,3.127,0,0,0,6.236,1.969,3.544,3.544,0,0,0,3.309,3.087a5.692,5.692,0,0,0-.942,3.531v.458H.013V6.453Q.013.012,6.2.013a5.778,5.778,0,0,1,4.619,1.8,7.26,7.26,0,0,1,1.54,4.878,7.609,7.609,0,0,1-1.044,4.281,4.623,4.623,0,0,1-2.8,1.994,4.659,4.659,0,0,1,2.735,2.1,8.568,8.568,0,0,1,1.094,4.662,9.077,9.077,0,0,1-1.551,5.6,5.7,5.7,0,0,1-4.836,2.033A5.577,5.577,0,0,1,1.451,25.647ZM73.1,23.428V14.964H64.631a1.188,1.188,0,0,1-1.081-1.27,1.189,1.189,0,0,1,1.081-1.271H73.1V3.959a1.287,1.287,0,0,1,2.541,0v8.464H84.1a1.189,1.189,0,0,1,1.081,1.271,1.188,1.188,0,0,1-1.081,1.27H75.637v8.464a1.287,1.287,0,0,1-2.541,0Z" transform="translate(14.818 32.141)" fill="#be0000"/>
        </g>
      </g>
      <g id="icons_spite_technology_icon_speed-2" data-name="icons_spite_technology_icon_speed" transform="translate(201)">
        <rect id="Rectangle_2-5" data-name="Rectangle 2" width="200" height="100" transform="translate(-1)" fill="#e2e2e2" opacity="0"/>
        <g id="Icn_Speed-2" data-name="Icn_Speed" transform="translate(13 1)">
          <path id="Circle-5" data-name="Circle" d="M.294,81.157a1.309,1.309,0,1,1,2.032-1.651A43.349,43.349,0,1,0,4.343,23.051a1.265,1.265,0,0,1-.943.42,1.315,1.315,0,0,1-.971-2.2A45.849,45.849,0,0,1,34.864,6.509V2.621H29.622a1.311,1.311,0,0,1,0-2.621h13.1a1.311,1.311,0,0,1,0,2.621H37.485V6.509c.274.008.55.018.825.03A45.975,45.975,0,1,1,.294,81.157Z" transform="translate(49.137)" fill="#8c8c8c"/>
          <path id="Color_Shape-5" data-name="Color_Shape" d="M17.337,45.225a1.311,1.311,0,0,1,0-2.621H41.909a1.311,1.311,0,0,1,0,2.621ZM25.161,34.57a1.31,1.31,0,1,1,0-2.62h25.8a1.31,1.31,0,0,1,0,2.62Zm57.875-.7L71.006,21.844A1.306,1.306,0,1,1,72.854,20L83.967,31.109l21.44-21.426a1.306,1.306,0,0,1,1.847,1.847L84.9,33.888a1.346,1.346,0,0,1-.931.38A1.272,1.272,0,0,1,83.036,33.874ZM23.588,23.916a1.311,1.311,0,0,1,0-2.621H43.639a1.311,1.311,0,0,1,0,2.621Zm-13.1-10.641a1.31,1.31,0,1,1,0-2.62H50.964a1.31,1.31,0,0,1,0,2.62ZM1.311,2.621A1.311,1.311,0,0,1,1.311,0h45.04a1.311,1.311,0,1,1,0,2.621Z" transform="translate(0 29.905)" fill="#be0000"/>
        </g>
      </g>
      <g id="icons_spite_technology_icon_price-2" data-name="icons_spite_technology_icon_price" transform="translate(415 -1)">
        <rect id="Rectangle_2-6" data-name="Rectangle 2" width="200" height="100" transform="translate(-15 1)" fill="#e2e2e2" opacity="0"/>
        <g id="Icn_Price-2" data-name="Icn_Price" transform="translate(39 9)">
          <path id="Circle-6" data-name="Circle" d="M42.475,91.544A45.851,45.851,0,0,1,36.274.978a1.271,1.271,0,0,1,.509,2.491,43.341,43.341,0,1,0,18.07,0,1.263,1.263,0,0,1-1.017-1.233A1.292,1.292,0,0,1,55.373.966a45.85,45.85,0,0,1-9.519,90.7C44.738,91.666,43.609,91.626,42.475,91.544Zm2.5-57.26a3.153,3.153,0,0,1-2.16-2.122,3.185,3.185,0,0,1,1.766-3.85V1.271a1.271,1.271,0,1,1,2.542,0l-.013,27.042a3.224,3.224,0,0,1,1.919,2.91,3.174,3.174,0,0,1-3.173,3.18A3.4,3.4,0,0,1,44.979,34.285Z" transform="translate(0)" fill="#8c8c8c"/>
          <path id="Color_Shape-6" data-name="Color_Shape" d="M2.364,46.109A2.359,2.359,0,0,1,0,43.746V11.685A4.122,4.122,0,0,1,1.156,8.813L9.391.147a.461.461,0,0,1,.789.318V2.828a.5.5,0,0,1-.127.317L3,10.566a1.66,1.66,0,0,0-.444,1.118V43.568h21.6V11.685a1.6,1.6,0,0,0-.445-1.118L16.66,3.145a.5.5,0,0,1-.127-.317V.465A.455.455,0,0,1,17.32.147l8.234,8.667A4.139,4.139,0,0,1,26.7,11.685V43.746a2.359,2.359,0,0,1-2.364,2.363ZM12.455,39.4v-.918a4.711,4.711,0,0,1-3.733-4.606.97.97,0,0,1,.977-.989.988.988,0,0,1,.99.989,2.756,2.756,0,0,0,1.766,2.556V31.01a4.714,4.714,0,0,1,0-9.222v-.906a.981.981,0,0,1,.99-.99,1,1,0,0,1,.989.99v.895a4.725,4.725,0,0,1,3.733,4.617.989.989,0,1,1-1.978,0,2.756,2.756,0,0,0-1.767-2.556v5.418a4.713,4.713,0,0,1,.012,9.222V39.4a.99.99,0,1,1-1.979,0Zm1.967-2.968a2.74,2.74,0,0,0,0-5.123ZM10.689,26.394a2.761,2.761,0,0,0,1.766,2.567V23.839A2.728,2.728,0,0,0,10.689,26.394Z" transform="translate(32.5 17.796)" fill="#be0000"/>
        </g>
      </g>
    </g>
  </g>
  <g id="icons_spite_technology_200_02" transform="translate(600)">
    <g id="icons_spite_technology_200-3" data-name="icons_spite_technology_200" transform="translate(0 100)">
      <g id="icons_spite_technology_icon_norequotes">
        <rect id="Rectangle_2-7" data-name="Rectangle 2" width="200" height="99.558" fill="#e2e2e2" opacity="0"/>
        <g id="Icn_No_Requotes" transform="translate(50 0)">
          <path id="Grey_Shape" d="M53.042,99.646l-5.616-5.614a1.2,1.2,0,0,1,0-1.7l5.616-5.615a1.209,1.209,0,0,1,2.061.856,1.2,1.2,0,0,1-.35.855L51.077,92.1h.013A41.086,41.086,0,0,0,89.9,64.359a1.212,1.212,0,0,1,2.3.759A43.448,43.448,0,0,1,51.318,94.5l3.434,3.433a1.247,1.247,0,0,1,.35.856A1.209,1.209,0,0,1,53.883,100,1.174,1.174,0,0,1,53.042,99.646ZM34.885,92.2A43.451,43.451,0,0,1,5.5,51.323L2.065,54.756a1.245,1.245,0,0,1-.856.35,1.208,1.208,0,0,1-.855-2.06l5.614-5.614a1.2,1.2,0,0,1,1.7,0l5.613,5.614a1.208,1.208,0,0,1-.855,2.06,1.189,1.189,0,0,1-.856-.35L7.9,51.082v.013A41.085,41.085,0,0,0,35.643,89.9a1.215,1.215,0,0,1-.379,2.364A1.179,1.179,0,0,1,34.885,92.2ZM92.33,52.564,86.716,46.95a1.208,1.208,0,0,1,.855-2.06,1.193,1.193,0,0,1,.855.35L92.1,48.914V48.9A41.085,41.085,0,0,0,64.354,10.1a1.206,1.206,0,0,1,.76-2.289A43.447,43.447,0,0,1,94.5,48.685l3.434-3.434a1.24,1.24,0,0,1,.855-.348,1.2,1.2,0,0,1,.855,2.047l-5.614,5.614a1.2,1.2,0,0,1-1.7,0ZM7.813,34.891a43.43,43.43,0,0,1,40.867-29.4L45.247,2.061a1.242,1.242,0,0,1-.35-.855,1.2,1.2,0,0,1,2.06-.844l5.614,5.614a1.2,1.2,0,0,1,0,1.7l-5.614,5.614a1.208,1.208,0,0,1-2.06-.855,1.191,1.191,0,0,1,.35-.855L48.921,7.9h-.011A41.087,41.087,0,0,0,10.1,35.65a1.206,1.206,0,0,1-2.288-.759Z" fill="#5f5f5f"/>
          <path id="Color_Shape-7" data-name="Color_Shape" d="M60.335,28.01a1.414,1.414,0,0,0-2.41-1L43.467,41.467,29.01,27.01a1.414,1.414,0,0,0-2,2L41.467,43.466,27.01,57.923a1.425,1.425,0,0,0,0,2,1.392,1.392,0,0,0,1,.41,1.413,1.413,0,0,0,1-.41L43.467,45.466,57.925,59.923a1.392,1.392,0,0,0,1,.41,1.414,1.414,0,0,0,1-2.409L45.467,43.466,59.925,29.009A1.392,1.392,0,0,0,60.335,28.01Z" transform="translate(6.531 6.538)" fill="#be0000"/>
        </g>
      </g>
      <g id="icons_spite_technology_icon_speed2" transform="translate(200)">
        <rect id="Rectangle_2-8" data-name="Rectangle 2" width="200" height="99.558" fill="#e2e2e2" opacity="0"/>
        <g id="Icn_Speed-3" data-name="Icn_Speed" transform="translate(14 1.991)">
          <path id="Grey_Shape-2" data-name="Grey_Shape" d="M.294,81.157a1.309,1.309,0,1,1,2.032-1.651A43.349,43.349,0,1,0,4.343,23.051a1.265,1.265,0,0,1-.943.42,1.315,1.315,0,0,1-.971-2.2A45.849,45.849,0,0,1,34.864,6.509V2.621H29.622a1.311,1.311,0,0,1,0-2.621h13.1a1.311,1.311,0,0,1,0,2.621H37.485V6.509c.274.008.55.018.825.03A45.975,45.975,0,1,1,.294,81.157Z" transform="translate(49.137)" fill="#5f5f5f"/>
          <path id="Color_Shape-8" data-name="Color_Shape" d="M17.337,45.225a1.311,1.311,0,0,1,0-2.621H41.909a1.311,1.311,0,0,1,0,2.621ZM25.161,34.57a1.31,1.31,0,1,1,0-2.62h25.8a1.31,1.31,0,0,1,0,2.62Zm57.875-.7L71.006,21.844A1.306,1.306,0,1,1,72.854,20L83.967,31.109l21.44-21.426a1.306,1.306,0,0,1,1.847,1.847L84.9,33.888a1.346,1.346,0,0,1-.931.38A1.272,1.272,0,0,1,83.036,33.874ZM23.588,23.916a1.311,1.311,0,0,1,0-2.621H43.639a1.311,1.311,0,0,1,0,2.621Zm-13.1-10.641a1.31,1.31,0,1,1,0-2.62H50.964a1.31,1.31,0,0,1,0,2.62ZM1.311,2.621A1.311,1.311,0,0,1,1.311,0h45.04a1.311,1.311,0,1,1,0,2.621Z" transform="translate(0 29.905)" fill="#be0000"/>
        </g>
      </g>
      <g id="icons_spite_technology_icon_deep" transform="translate(400)">
        <rect id="Rectangle_2-9" data-name="Rectangle 2" width="200" height="99.558" fill="#e2e2e2" opacity="0"/>
        <g id="Icn_Deep_Liquidity" transform="translate(54 7.559)">
          <path id="Grey_Shape-3" data-name="Grey_Shape" d="M.471,56.15l-.01,0c-.038-.162-.062-.332-.1-.5C.3,55.385.24,55.125.189,54.861H.207C.139,54.516.062,54.175,0,53.829a1.207,1.207,0,0,1,.575-.159c6.069,0,9.229,2.825,12.02,5.318,2.693,2.409,5.237,4.682,10.353,4.682S30.609,61.4,33.3,58.988c2.788-2.493,5.947-5.318,12.02-5.318s9.232,2.825,12.021,5.318c2.7,2.409,5.24,4.682,10.354,4.682s7.663-2.273,10.358-4.682C80.843,56.5,84,53.67,90.075,53.67a1.237,1.237,0,0,1,.574.156c-.061.349-.139.69-.206,1.035h.017c-.054.274-.121.541-.179.812-.034.159-.058.318-.092.474l-.01,0a45.986,45.986,0,0,1-89.709,0ZM45.325,89.5A43.214,43.214,0,0,0,69.99,81.8a17.343,17.343,0,0,1-2.294.162c-6.068,0-9.231-2.825-12.02-5.318-2.7-2.405-5.24-4.682-10.355-4.682s-7.658,2.273-10.354,4.682c-2.788,2.493-5.947,5.318-12.02,5.318A16.668,16.668,0,0,1,20.66,81.8,43.224,43.224,0,0,0,45.325,89.5ZM57.342,74.78c2.7,2.409,5.24,4.682,10.354,4.682a12.871,12.871,0,0,0,9.161-3.626,1.237,1.237,0,0,1,.213-.146A43.446,43.446,0,0,0,87.564,56.38c-3.519.612-5.633,2.5-7.845,4.472C76.932,63.346,73.769,66.17,67.7,66.17s-9.231-2.825-12.02-5.318c-2.7-2.409-5.24-4.682-10.355-4.682s-7.658,2.273-10.354,4.682c-2.788,2.493-5.947,5.318-12.02,5.318s-9.232-2.825-12.02-5.318C8.715,58.877,6.6,56.992,3.086,56.38A43.5,43.5,0,0,0,13.59,75.7a1.332,1.332,0,0,1,.21.139,12.855,12.855,0,0,0,9.147,3.62c5.114,0,7.662-2.273,10.354-4.682,2.788-2.493,5.947-5.318,12.02-5.318S54.554,72.287,57.342,74.78ZM85.8,30.233a43.488,43.488,0,0,0-81.068,0,1.243,1.243,0,0,1-2.324-.88,45.968,45.968,0,0,1,85.721,0,1.244,1.244,0,0,1-2.328.88Z" transform="translate(0.675)" fill="#5f5f5f"/>
          <path id="Color_Shape-9" data-name="Color_Shape" d="M2748.373,2355.135c-6.071,0-9.232-2.825-12.021-5.318-2.7-2.408-5.239-4.682-10.356-4.682s-7.66,2.274-10.353,4.682c-2.789,2.493-5.95,5.318-12.021,5.318s-9.231-2.825-12.019-5.318c-2.694-2.408-5.238-4.682-10.353-4.682a1.25,1.25,0,0,1,0-2.5c6.07,0,9.23,2.825,12.019,5.318,2.693,2.408,5.237,4.682,10.353,4.682s7.661-2.274,10.355-4.682c2.788-2.493,5.949-5.318,12.019-5.318s9.233,2.825,12.022,5.318c2.694,2.408,5.238,4.682,10.355,4.682s7.661-2.274,10.356-4.682c2.789-2.493,5.95-5.318,12.021-5.318a1.25,1.25,0,0,1,0,2.5c-5.117,0-7.661,2.274-10.355,4.682C2757.6,2352.31,2754.444,2355.135,2748.373,2355.135Z" transform="translate(-2680 -2304.756)" fill="#be0000"/>
        </g>
      </g>
    </g>
    <g id="icons_spite_technology_200_hover-2" data-name="icons_spite_technology_200_hover">
      <g id="icons_spite_technology_icon_norequotes-2" data-name="icons_spite_technology_icon_norequotes">
        <rect id="Rectangle_2-10" data-name="Rectangle 2" width="200" height="99.558" fill="#e2e2e2" opacity="0"/>
        <g id="Icn_No_Requotes-2" data-name="Icn_No_Requotes" transform="translate(50 0)">
          <path id="Grey_Shape-4" data-name="Grey_Shape" d="M53.042,99.646l-5.616-5.614a1.2,1.2,0,0,1,0-1.7l5.616-5.615a1.209,1.209,0,0,1,2.061.856,1.2,1.2,0,0,1-.35.855L51.077,92.1h.013A41.086,41.086,0,0,0,89.9,64.359a1.212,1.212,0,0,1,2.3.759A43.448,43.448,0,0,1,51.318,94.5l3.434,3.433a1.247,1.247,0,0,1,.35.856A1.209,1.209,0,0,1,53.883,100,1.174,1.174,0,0,1,53.042,99.646ZM34.885,92.2A43.451,43.451,0,0,1,5.5,51.323L2.065,54.756a1.245,1.245,0,0,1-.856.35,1.208,1.208,0,0,1-.855-2.06l5.614-5.614a1.2,1.2,0,0,1,1.7,0l5.613,5.614a1.208,1.208,0,0,1-.855,2.06,1.189,1.189,0,0,1-.856-.35L7.9,51.082v.013A41.085,41.085,0,0,0,35.643,89.9a1.215,1.215,0,0,1-.379,2.364A1.179,1.179,0,0,1,34.885,92.2ZM92.33,52.564,86.716,46.95a1.208,1.208,0,0,1,.855-2.06,1.193,1.193,0,0,1,.855.35L92.1,48.914V48.9A41.085,41.085,0,0,0,64.354,10.1a1.206,1.206,0,0,1,.76-2.289A43.447,43.447,0,0,1,94.5,48.685l3.434-3.434a1.24,1.24,0,0,1,.855-.348,1.2,1.2,0,0,1,.855,2.047l-5.614,5.614a1.2,1.2,0,0,1-1.7,0ZM7.813,34.891a43.43,43.43,0,0,1,40.867-29.4L45.247,2.061a1.242,1.242,0,0,1-.35-.855,1.2,1.2,0,0,1,2.06-.844l5.614,5.614a1.2,1.2,0,0,1,0,1.7l-5.614,5.614a1.208,1.208,0,0,1-2.06-.855,1.191,1.191,0,0,1,.35-.855L48.921,7.9h-.011A41.087,41.087,0,0,0,10.1,35.65a1.206,1.206,0,0,1-2.288-.759Z" fill="#5f5f5f"/>
          <path id="Color_Shape-10" data-name="Color_Shape" d="M60.335,28.01a1.414,1.414,0,0,0-2.41-1L43.467,41.467,29.01,27.01a1.414,1.414,0,0,0-2,2L41.467,43.466,27.01,57.923a1.425,1.425,0,0,0,0,2,1.392,1.392,0,0,0,1,.41,1.413,1.413,0,0,0,1-.41L43.467,45.466,57.925,59.923a1.392,1.392,0,0,0,1,.41,1.414,1.414,0,0,0,1-2.409L45.467,43.466,59.925,29.009A1.392,1.392,0,0,0,60.335,28.01Z" transform="translate(6.531 6.538)" fill="#be0000"/>
        </g>
      </g>
      <g id="icons_spite_technology_icon_speed2-2" data-name="icons_spite_technology_icon_speed2" transform="translate(200)">
        <rect id="Rectangle_2-11" data-name="Rectangle 2" width="200" height="99.558" fill="#e2e2e2" opacity="0"/>
        <g id="Icn_Speed-4" data-name="Icn_Speed" transform="translate(14 1.991)">
          <path id="Grey_Shape-5" data-name="Grey_Shape" d="M.294,81.157a1.309,1.309,0,1,1,2.032-1.651A43.349,43.349,0,1,0,4.343,23.051a1.265,1.265,0,0,1-.943.42,1.315,1.315,0,0,1-.971-2.2A45.849,45.849,0,0,1,34.864,6.509V2.621H29.622a1.311,1.311,0,0,1,0-2.621h13.1a1.311,1.311,0,0,1,0,2.621H37.485V6.509c.274.008.55.018.825.03A45.975,45.975,0,1,1,.294,81.157Z" transform="translate(49.137)" fill="#5f5f5f"/>
          <path id="Color_Shape-11" data-name="Color_Shape" d="M17.337,45.225a1.311,1.311,0,0,1,0-2.621H41.909a1.311,1.311,0,0,1,0,2.621ZM25.161,34.57a1.31,1.31,0,1,1,0-2.62h25.8a1.31,1.31,0,0,1,0,2.62Zm57.875-.7L71.006,21.844A1.306,1.306,0,1,1,72.854,20L83.967,31.109l21.44-21.426a1.306,1.306,0,0,1,1.847,1.847L84.9,33.888a1.346,1.346,0,0,1-.931.38A1.272,1.272,0,0,1,83.036,33.874ZM23.588,23.916a1.311,1.311,0,0,1,0-2.621H43.639a1.311,1.311,0,0,1,0,2.621Zm-13.1-10.641a1.31,1.31,0,1,1,0-2.62H50.964a1.31,1.31,0,0,1,0,2.62ZM1.311,2.621A1.311,1.311,0,0,1,1.311,0h45.04a1.311,1.311,0,1,1,0,2.621Z" transform="translate(0 29.905)" fill="#be0000"/>
        </g>
      </g>
      <g id="icons_spite_technology_icon_deep-2" data-name="icons_spite_technology_icon_deep" transform="translate(400)">
        <rect id="Rectangle_2-12" data-name="Rectangle 2" width="200" height="99.558" fill="#e2e2e2" opacity="0"/>
        <g id="Icn_Deep_Liquidity-2" data-name="Icn_Deep_Liquidity" transform="translate(54 7.559)">
          <path id="Grey_Shape-6" data-name="Grey_Shape" d="M.471,56.15l-.01,0c-.038-.162-.062-.332-.1-.5C.3,55.385.24,55.125.189,54.861H.207C.139,54.516.062,54.175,0,53.829a1.207,1.207,0,0,1,.575-.159c6.069,0,9.229,2.825,12.02,5.318,2.693,2.409,5.237,4.682,10.353,4.682S30.609,61.4,33.3,58.988c2.788-2.493,5.947-5.318,12.02-5.318s9.232,2.825,12.021,5.318c2.7,2.409,5.24,4.682,10.354,4.682s7.663-2.273,10.358-4.682C80.843,56.5,84,53.67,90.075,53.67a1.237,1.237,0,0,1,.574.156c-.061.349-.139.69-.206,1.035h.017c-.054.274-.121.541-.179.812-.034.159-.058.318-.092.474l-.01,0a45.986,45.986,0,0,1-89.709,0ZM45.325,89.5A43.214,43.214,0,0,0,69.99,81.8a17.343,17.343,0,0,1-2.294.162c-6.068,0-9.231-2.825-12.02-5.318-2.7-2.405-5.24-4.682-10.355-4.682s-7.658,2.273-10.354,4.682c-2.788,2.493-5.947,5.318-12.02,5.318A16.668,16.668,0,0,1,20.66,81.8,43.224,43.224,0,0,0,45.325,89.5ZM57.342,74.78c2.7,2.409,5.24,4.682,10.354,4.682a12.871,12.871,0,0,0,9.161-3.626,1.237,1.237,0,0,1,.213-.146A43.446,43.446,0,0,0,87.564,56.38c-3.519.612-5.633,2.5-7.845,4.472C76.932,63.346,73.769,66.17,67.7,66.17s-9.231-2.825-12.02-5.318c-2.7-2.409-5.24-4.682-10.355-4.682s-7.658,2.273-10.354,4.682c-2.788,2.493-5.947,5.318-12.02,5.318s-9.232-2.825-12.02-5.318C8.715,58.877,6.6,56.992,3.086,56.38A43.5,43.5,0,0,0,13.59,75.7a1.332,1.332,0,0,1,.21.139,12.855,12.855,0,0,0,9.147,3.62c5.114,0,7.662-2.273,10.354-4.682,2.788-2.493,5.947-5.318,12.02-5.318S54.554,72.287,57.342,74.78ZM85.8,30.233a43.488,43.488,0,0,0-81.068,0,1.243,1.243,0,0,1-2.324-.88,45.968,45.968,0,0,1,85.721,0,1.244,1.244,0,0,1-2.328.88Z" transform="translate(0.675)" fill="#5f5f5f"/>
          <path id="Color_Shape-12" data-name="Color_Shape" d="M2748.373,2355.135c-6.071,0-9.232-2.825-12.021-5.318-2.7-2.408-5.239-4.682-10.356-4.682s-7.66,2.274-10.353,4.682c-2.789,2.493-5.95,5.318-12.021,5.318s-9.231-2.825-12.019-5.318c-2.694-2.408-5.238-4.682-10.353-4.682a1.25,1.25,0,0,1,0-2.5c6.07,0,9.23,2.825,12.019,5.318,2.693,2.408,5.237,4.682,10.353,4.682s7.661-2.274,10.355-4.682c2.788-2.493,5.949-5.318,12.019-5.318s9.233,2.825,12.022,5.318c2.694,2.408,5.238,4.682,10.355,4.682s7.661-2.274,10.356-4.682c2.789-2.493,5.95-5.318,12.021-5.318a1.25,1.25,0,0,1,0,2.5c-5.117,0-7.661,2.274-10.355,4.682C2757.6,2352.31,2754.444,2355.135,2748.373,2355.135Z" transform="translate(-2680 -2304.756)" fill="#be0000"/>
        </g>
      </g>
    </g>
  </g>
</svg>
