<svg id="icons_spite_footer_contact_60" xmlns="http://www.w3.org/2000/svg" width="180" height="120" viewBox="0 0 180 120">
  <g id="icons_spite_footer_contact_60-2" data-name="icons_spite_footer_contact_60">
    <g id="mail">
      <rect id="Rectangle_4" data-name="Rectangle 4" width="60" height="60" transform="translate(0 60)" fill="#7d7d7d" opacity="0"/>
      <g id="Icn_Mail" transform="translate(-719 -4735)">
        <path id="Circle" d="M30,0A30,30,0,1,0,60,30,30,30,0,0,0,30,0Zm0,58A28,28,0,1,1,58,30,28.031,28.031,0,0,1,30,58Z" transform="translate(719 4795)" fill="#222b4c"/>
        <g id="Icn_Mail-2" data-name="Icn_Mail">
          <rect id="Path" width="33" height="22" rx="2" stroke-width="1.5" fill="none" stroke="#0474b2" transform="translate(733 4814)"/>
          <path id="Path-2" data-name="Path" d="M736.149,4818.28l12.685,8,12.315-8" transform="translate(0.851 0.72)" fill="none" stroke="#0474b2" stroke-linecap="round" stroke-width="1.5"/>
        </g>
      </g>
    </g>
    <g id="phone" transform="translate(60)">
      <rect id="Rectangle_4-2" data-name="Rectangle 4" width="60" height="60" transform="translate(0 60)" fill="#7d7d7d" opacity="0"/>
      <g id="Icn_Phone" transform="translate(-931 -4735)">
        <path id="Circle-2" data-name="Circle" d="M30,2A28,28,0,1,1,2,30,28.031,28.031,0,0,1,30,2m0-2A30,30,0,1,0,60,30,30,30,0,0,0,30,0Z" transform="translate(931 4795)" fill="#222b4c"/>
        <path id="Icn_Phone-2" data-name="Icn_Phone" d="M21.83,17.25a1.018,1.018,0,0,1,.83.36c.3.41,3.25,4.89,3.58,5.41a1.6,1.6,0,0,1-.16,1.5c-.3.56-1.53,2.71-1.53,2.71a26.689,26.689,0,0,0,3.8,4.42,26.548,26.548,0,0,0,4.42,3.81s2.15-1.23,2.71-1.53a2.2,2.2,0,0,1,1-.28,1,1,0,0,1,.5.12c.53.33,5.03,3.32,5.41,3.58a1.275,1.275,0,0,1,.04,1.76c-.52.74-2.88,3.64-3.9,3.64h-.02c-1.01-.03-5.23-.13-13.18-8.08S17.29,22.5,17.25,21.49s2.9-3.4,3.64-3.92a1.632,1.632,0,0,1,.94-.32m0-1.7h0a3.3,3.3,0,0,0-1.91.62c-.46.32-4.44,3.17-4.37,5.37.13,3.95,3.01,8.77,8.57,14.33s10.38,8.45,14.31,8.58h.09c2.18,0,4.99-3.92,5.3-4.37a3.376,3.376,0,0,0,.62-2.18,2.635,2.635,0,0,0-1.07-1.95c-.32-.22-4.89-3.27-5.49-3.64a2.7,2.7,0,0,0-1.39-.37,3.908,3.908,0,0,0-1.79.48c-.33.17-1.15.64-1.82,1.02a37.627,37.627,0,0,1-3.32-2.99,34.9,34.9,0,0,1-2.99-3.32c.38-.66.84-1.49,1.02-1.82a3.217,3.217,0,0,0,.09-3.2c-.34-.53-3.3-5.03-3.64-5.49a2.716,2.716,0,0,0-2.21-1.07Z" transform="translate(931 4795)" fill="#0474b2"/>
      </g>
    </g>
    <g id="map" transform="translate(120)">
      <rect id="Rectangle_4-3" data-name="Rectangle 4" width="60" height="60" transform="translate(0 60)" fill="#7d7d7d" opacity="0"/>
      <g id="Icn_Map" transform="translate(0 60)">
        <path id="Circle-3" data-name="Circle" d="M30,0A30,30,0,1,0,60,30,30,30,0,0,0,30,0Zm0,58A28,28,0,1,1,58,30,28.031,28.031,0,0,1,30,58Z" fill="#222b4c"/>
        <path id="Icn_Map-2" data-name="Icn_Map" d="M12779.2-2229.351c-.383-.52-10.2-12-10.2-18.868a10.8,10.8,0,0,1,10.782-10.779,10.848,10.848,0,0,1,10.779,10.779c0,6.869-9.81,18.419-10.2,18.868l-.578.709Zm-8.661-18.929c0,5.39,7.12,14.57,9.241,17.2,2.119-2.629,9.239-11.749,9.239-17.2a9.243,9.243,0,0,0-9.239-9.238A9.243,9.243,0,0,0,12770.54-2248.28Zm5.13.071a4.138,4.138,0,0,1,4.111-4.112,4.139,4.139,0,0,1,4.109,4.112,4.136,4.136,0,0,1-4.109,4.109A4.136,4.136,0,0,1,12775.67-2248.21Zm1.541-.01a2.58,2.58,0,0,0,2.57,2.568,2.574,2.574,0,0,0,2.568-2.568,2.581,2.581,0,0,0-2.568-2.571A2.581,2.581,0,0,0,12777.211-2248.219Z" transform="translate(-12749.78 2273.82)" fill="#0474b2"/>
      </g>
    </g>
  </g>
  <g id="icons_spite_footer_contact_60_hover" transform="translate(0 -60)">
    <g id="mail-2" data-name="mail">
      <rect id="Rectangle_4-4" data-name="Rectangle 4" width="60" height="60" transform="translate(0 60)" fill="#7d7d7d" opacity="0"/>
      <g id="Icn_Mail-3" data-name="Icn_Mail" transform="translate(-719 -4735)">
        <path id="Circle-4" data-name="Circle" d="M30,0A30,30,0,1,0,60,30,30,30,0,0,0,30,0Zm0,58A28,28,0,1,1,58,30,28.031,28.031,0,0,1,30,58Z" transform="translate(719 4795)" fill="#222b4c"/>
        <g id="Icn_Mail-4" data-name="Icn_Mail">
          <rect id="Path-3" data-name="Path" width="33" height="22" rx="2" transform="translate(733 4814)" fill="none" stroke="#fff" stroke-width="1.5"/>
          <path id="Path-4" data-name="Path" d="M736.149,4818.28l12.685,8,12.315-8" transform="translate(0.851 0.72)" fill="none" stroke="#fff" stroke-linecap="round" stroke-width="1.5"/>
        </g>
      </g>
    </g>
    <g id="phone-2" data-name="phone" transform="translate(60)">
      <rect id="Rectangle_4-5" data-name="Rectangle 4" width="60" height="60" transform="translate(0 60)" fill="#7d7d7d" opacity="0"/>
      <g id="Icn_Phone-3" data-name="Icn_Phone" transform="translate(-931 -4735)">
        <path id="Circle-5" data-name="Circle" d="M30,2A28,28,0,1,1,2,30,28.031,28.031,0,0,1,30,2m0-2A30,30,0,1,0,60,30,30,30,0,0,0,30,0Z" transform="translate(931 4795)" fill="#222b4c"/>
        <path id="Icn_Phone-4" data-name="Icn_Phone" d="M21.83,17.25a1.018,1.018,0,0,1,.83.36c.3.41,3.25,4.89,3.58,5.41a1.6,1.6,0,0,1-.16,1.5c-.3.56-1.53,2.71-1.53,2.71a26.689,26.689,0,0,0,3.8,4.42,26.548,26.548,0,0,0,4.42,3.81s2.15-1.23,2.71-1.53a2.2,2.2,0,0,1,1-.28,1,1,0,0,1,.5.12c.53.33,5.03,3.32,5.41,3.58a1.275,1.275,0,0,1,.04,1.76c-.52.74-2.88,3.64-3.9,3.64h-.02c-1.01-.03-5.23-.13-13.18-8.08S17.29,22.5,17.25,21.49s2.9-3.4,3.64-3.92a1.632,1.632,0,0,1,.94-.32m0-1.7h0a3.3,3.3,0,0,0-1.91.62c-.46.32-4.44,3.17-4.37,5.37.13,3.95,3.01,8.77,8.57,14.33s10.38,8.45,14.31,8.58h.09c2.18,0,4.99-3.92,5.3-4.37a3.376,3.376,0,0,0,.62-2.18,2.635,2.635,0,0,0-1.07-1.95c-.32-.22-4.89-3.27-5.49-3.64a2.7,2.7,0,0,0-1.39-.37,3.908,3.908,0,0,0-1.79.48c-.33.17-1.15.64-1.82,1.02a37.627,37.627,0,0,1-3.32-2.99,34.9,34.9,0,0,1-2.99-3.32c.38-.66.84-1.49,1.02-1.82a3.217,3.217,0,0,0,.09-3.2c-.34-.53-3.3-5.03-3.64-5.49a2.716,2.716,0,0,0-2.21-1.07Z" transform="translate(931 4795)" fill="#fff"/>
      </g>
    </g>
    <g id="map-2" data-name="map" transform="translate(120)">
      <rect id="Rectangle_4-6" data-name="Rectangle 4" width="60" height="60" transform="translate(0 60)" fill="#7d7d7d" opacity="0"/>
      <g id="Icn_Map-3" data-name="Icn_Map" transform="translate(0 60)">
        <path id="Circle-6" data-name="Circle" d="M30,0A30,30,0,1,0,60,30,30,30,0,0,0,30,0Zm0,58A28,28,0,1,1,58,30,28.031,28.031,0,0,1,30,58Z" fill="#222b4c"/>
        <path id="Icn_Map-4" data-name="Icn_Map" d="M12779.2-2229.351c-.383-.52-10.2-12-10.2-18.868a10.8,10.8,0,0,1,10.782-10.779,10.848,10.848,0,0,1,10.779,10.779c0,6.869-9.81,18.419-10.2,18.868l-.578.709Zm-8.661-18.929c0,5.39,7.12,14.57,9.241,17.2,2.119-2.629,9.239-11.749,9.239-17.2a9.243,9.243,0,0,0-9.239-9.238A9.243,9.243,0,0,0,12770.54-2248.28Zm5.13.071a4.138,4.138,0,0,1,4.111-4.112,4.139,4.139,0,0,1,4.109,4.112,4.136,4.136,0,0,1-4.109,4.109A4.136,4.136,0,0,1,12775.67-2248.21Zm1.541-.01a2.58,2.58,0,0,0,2.57,2.568,2.574,2.574,0,0,0,2.568-2.568,2.581,2.581,0,0,0-2.568-2.571A2.581,2.581,0,0,0,12777.211-2248.219Z" transform="translate(-12749.78 2273.82)" fill="#fff"/>
      </g>
    </g>
  </g>
</svg>
