<svg id="icons_spite_ourpartners_180" xmlns="http://www.w3.org/2000/svg" width="540" height="90" viewBox="0 0 540 90">
  <g id="icons_spite_ourpartners_180-2" data-name="icons_spite_ourpartners_180">
    <g id="logo01">
      <rect id="Rectangle_3" data-name="Rectangle 3" width="180" height="45" transform="translate(0 45)" fill="#c5c5c5" opacity="0"/>
      <path id="Dummy_Logo_01" d="M0,42.6V0H42.233V42.6ZM28.477,27a4.178,4.178,0,0,0,3.42,2.165c3.106,0,5.567-2.515,5.574-6.147,0-2.633-1.568-6.112-5.6-6.112a4,4,0,0,0-3.278,2.047h-.059V8.372a16.987,16.987,0,0,1-3.248.267h-.669v.674H26.27V28.08l-2.118.042h-1.4v-7.71c0-2.982-2.059-3.39-3.13-3.39-1.882,0-3.071,1.135-4,2.727h-.059a2.917,2.917,0,0,0-3.1-2.727c-2.112,0-2.9,1.13-3.911,2.751H8.491V17.022a13.619,13.619,0,0,1-3.249.29H4.781v.668H6.23V28.122H4.781v.668h5.331v-.668H8.491V22.643c0-2.2,1.45-4.781,3.248-4.781.923,0,1.621.668,1.621,2.03v8.236H11.821V28.8h5.337v-.668H15.614V22.039c0-1.6,1.449-4.177,3.248-4.177.923,0,1.621.668,1.621,2.03v8.23H18.862v.668H24.2c1.272-.024,2.958.148,4.218.231V27Zm34.4,14.382A3.373,3.373,0,0,1,60.2,42.594c-1.246,0-2.32-.474-2.32-1.942.059-1.846,1.942-2.876,4.974-2.876V35.893c0-.934-.734-1.208-1.424-1.208-.437,0-1.846.133-1.846.711,0,.156.593.26.593.912a.772.772,0,0,1-.808.83c-.533,0-.83-.392-.83-.948,0-.712.816-1.905,3.173-1.905,2.691,0,2.691,1.149,2.691,1.942V40.94c0,.593,0,.912.415.912s.593-.556.7-.9h.334a1.676,1.676,0,0,1-1.683,1.638A1.282,1.282,0,0,1,62.874,41.386Zm-3.5-1.127A1.446,1.446,0,0,0,60.9,41.823a2.078,2.078,0,0,0,1.527-.578,1.365,1.365,0,0,0,.437-1.209V38.2h-.008C61.569,38.22,59.375,38.435,59.375,40.259Zm-8.94.867H50.4V42.49c-.808-.052-1.594-.163-2.4-.163H47.8V41.86h1.127V29.139H47.8v-.452h.46a11.558,11.558,0,0,0,2.217-.178v7.176h.037A2.739,2.739,0,0,1,52.756,34.3a3.868,3.868,0,0,1,3.825,4.144,3.883,3.883,0,0,1-3.8,4.151A2.876,2.876,0,0,1,50.436,41.126Zm.082-4.492c-.06.533-.1,2.224-.1,2.713,0,2.5,1.764,2.839,2.357,2.839,1.979,0,2-2.239,2-3.825,0-1.5-.082-3.669-2-3.669A2.529,2.529,0,0,0,50.517,36.634Zm34.64,5.7H81.392v-.452h.993l-3.306-4.025L82.429,35v-.059H81.258v-.452h3.254v.452H83.3l-2.736,2.38,3.766,4.559h.831v.452Zm-4.922,0h.008Zm-3.759,0v-.452h1.031V29.139H76.476v-.452h.356a11.558,11.558,0,0,0,2.217-.178v13.38h1.186v.445Zm-4.684,0v-.452h1.03V36.53c0-1.446-.46-1.668-1.245-1.668-1.349,0-2.38,1.846-2.38,3.328v3.685h1.067v.452H66.558v-.452h1.09V34.936h-1.09v-.452h.416c.378,0,.748,0,1.112-.036a7.775,7.775,0,0,0,1.112-.156v2.1h.037a2.92,2.92,0,0,1,2.772-2.1c.712,0,2.358.156,2.358,1.979v5.612h1.075v.452ZM28.447,24.371c0-.734.053-3.219.142-4.006A3.7,3.7,0,0,1,31.9,17.5c2.816,0,2.929,3.218,2.929,5.408,0,2.342-.03,5.644-2.929,5.644C31.027,28.554,28.447,28.057,28.447,24.371Zm119.414-.8a6.153,6.153,0,0,1-4.9,2.239c-2.291,0-4.248-.882-4.248-3.6.111-3.417,3.559-5.33,9.118-5.33V13.387c0-1.727-1.341-2.239-2.617-2.239-.8,0-3.38.26-3.38,1.32,0,.3,1.09.474,1.09,1.69a1.427,1.427,0,0,1-1.49,1.541c-.979,0-1.527-.734-1.527-1.764,0-1.32,1.49-3.528,5.812-3.528,4.937,0,4.937,2.135,4.937,3.6v8.747c0,1.1,0,1.69.764,1.69.726,0,1.089-1.031,1.267-1.653h.616a3.1,3.1,0,0,1-3.084,3.017A2.355,2.355,0,0,1,147.862,23.573Zm-6.427-2.1a2.67,2.67,0,0,0,2.795,2.906,3.766,3.766,0,0,0,2.795-1.068,2.571,2.571,0,0,0,.8-2.239V17.649C145.46,17.687,141.435,18.087,141.435,21.475Zm-25.937-2.9c0-6.509,5.2-8.08,7.265-8.08,2.358,0,5.7,1.1,5.7,3.914a1.776,1.776,0,0,1-1.638,1.935,1.626,1.626,0,0,1-1.7-1.72c0-1.423,1.163-1.608,1.163-2.009,0-.986-2.29-1.386-3.091-1.386-3.484,0-4.4,2.558-4.4,7.346a12.34,12.34,0,0,0,.763,4.388,3.757,3.757,0,0,0,3.558,2.084c.067,0,.126.007.192.007,2.039,0,3.974-1.69,4.818-4.247h.764c-.823,2.587-2.276,4.855-6.056,5A7.125,7.125,0,0,1,115.5,18.576Zm-23.195,5A6.158,6.158,0,0,1,87.4,25.811c-2.291,0-4.248-.882-4.248-3.6.111-3.417,3.559-5.33,9.118-5.33V13.387c0-1.727-1.341-2.239-2.617-2.239-.8,0-3.38.26-3.38,1.32,0,.3,1.09.474,1.09,1.69a1.427,1.427,0,0,1-1.49,1.541c-.979,0-1.527-.734-1.527-1.764,0-1.32,1.49-3.528,5.812-3.528,4.937,0,4.937,2.135,4.937,3.6v8.747c0,1.1,0,1.69.763,1.69.726,0,1.089-1.031,1.267-1.653h.616a3.094,3.094,0,0,1-3.076,3.017A2.355,2.355,0,0,1,92.3,23.573Zm-6.434-2.1a2.669,2.669,0,0,0,2.795,2.906,3.768,3.768,0,0,0,2.795-1.068,2.573,2.573,0,0,0,.8-2.239V17.649C89.9,17.687,85.869,18.087,85.869,21.475Zm75.758,3.854H153.3v-.837h2.764V1.164H153.3V.326h1.541A21.469,21.469,0,0,0,158.87,0V24.5h2.765v.83Zm-24.4,0h-7.405v-.837h2.431V11.719h-2.431v-.838h1.2a17.039,17.039,0,0,0,4.069-.364V24.5h2.143v.83Zm-22.438,0h-6.665v-.837H110V14.655c0-2.661-.83-3.061-2.283-3.061-2.461,0-4.344,3.388-4.344,6.123v6.776h1.957v.837H98.559v-.837h1.994V11.742H98.559V10.9h.763a18.238,18.238,0,0,0,2.031-.074,13,13,0,0,0,2.031-.289V14.4h.074c1.016-2.3,2.424-3.862,5.07-3.862,1.3,0,4.314.289,4.314,3.647V24.5H114.8v.83Zm-32.565,0H75.558v-.837H77.44V14.655c0-2.661-.83-3.061-2.283-3.061-2.461,0-4.344,3.388-4.344,6.123v6.776h1.957v.837H66v-.837h1.994V11.742H66V10.9h.763a18.248,18.248,0,0,0,2.031-.074,12.99,12.99,0,0,0,2.031-.289V14.4h.074c1.016-2.3,2.424-3.862,5.07-3.862,1.3,0,4.307.289,4.307,3.647V24.5h1.957v.83Zm-25.107,0V24.5h2.446V11.831H57.115V11h1.208a17.2,17.2,0,0,0,4.092-.363V24.507h2.157v.822Zm-10.823,0v-.845h2.72V11.675h-2.72V10.83h2.72V9.036c0-6.263,2.505-8.9,5.9-8.9,1.378,0,2.965.66,2.965,2.38a1.291,1.291,0,0,1-1.3,1.208c-.956,0-1.445-.7-1.445-1.683,0-.4.282-.437.282-.912,0-.185-.6-.222-.845-.222-1.7,0-2.795,2.12-2.795,5.782V10.83h2.861v.845H51.77V24.492h2.861v.837ZM132.043,5.811a1.8,1.8,0,0,1,1.743-1.764,1.927,1.927,0,0,1,1.853,1.764,1.85,1.85,0,0,1-1.853,1.95A1.8,1.8,0,0,1,132.043,5.811ZM59.2,5.723a1.791,1.791,0,0,1,1.757-1.734,1.919,1.919,0,0,1,1.861,1.734,1.831,1.831,0,0,1-1.861,1.92A1.792,1.792,0,0,1,59.2,5.723Z" transform="translate(9 46)" fill="#737373"/>
    </g>
    <g id="logo02" transform="translate(180)">
      <rect id="Rectangle_3-2" data-name="Rectangle 3" width="180" height="45" transform="translate(0 45)" fill="#c5c5c5" opacity="0"/>
      <path id="Dummy_Logo_02" d="M13.781,38.6a29.783,29.783,0,0,1-5.343-3.75c-.089-.066-.208-.173-.072-.345a27.771,27.771,0,0,0,2.556-3.662,14.823,14.823,0,0,0,1.836-4.9c.03-.589-.184-.8-.309-.832a23.99,23.99,0,0,1-2.633,4.422c-1.563,2.08-2.96,3.115-3.555,3.115a.326.326,0,0,1-.178-.042c-.463-.273-.119-.8.137-1.242a16.343,16.343,0,0,0,1.3-2.954c.315-1.046.618-2.026.041-2.49a16.265,16.265,0,0,1-3.132,4.22.177.177,0,0,1-.107.048c-.066,0-.125-.048-.19-.131A25.042,25.042,0,0,1,.314,20.606c-.66-4.826-.44-10.021,2.258-13.587A5.7,5.7,0,0,1,7.1,4.809,5.162,5.162,0,0,1,8.515,5a2.827,2.827,0,0,1,2.271,2.425,1.865,1.865,0,0,1-1.242,1.9,2.321,2.321,0,0,0,1.872,1.046c.422.041.813.041.813.041,3.056-.023,3.8-2.247,3.918-4.237a2.427,2.427,0,0,0-2.366-2.918c-.172-.012-.333-.029-.481-.029-1.04,0-1.355.463-1.355.463a1.819,1.819,0,0,1,.832-2.371A5.022,5.022,0,0,1,15.594.577c.149,0,.3.006.434.012C16.379.2,16.6.006,17.686.006c.078,0,.167,0,.285-.006a4.745,4.745,0,0,1,3.192,1.07c.856.743,1.034,2.573,1.069,3.388s.024,3.21.856,4.38a3.251,3.251,0,0,0,2.9,1.569,6.026,6.026,0,0,0,.8-.048,2.293,2.293,0,0,0,1.884-1.046,1.85,1.85,0,0,1-1.236-1.9,2.82,2.82,0,0,1,2.258-2.437,5.242,5.242,0,0,1,1.4-.184,5.7,5.7,0,0,1,4.547,2.222c2.7,3.561,2.918,8.744,2.259,13.587a24.843,24.843,0,0,1-3.828,9.457c-.06.077-.119.124-.178.124a.166.166,0,0,1-.113-.054,16.016,16.016,0,0,1-3.127-4.214c-.588.452-.273,1.432.03,2.49a18.244,18.244,0,0,0,1.307,2.954c.262.44.595.969.149,1.242a.394.394,0,0,1-.184.042c-.6,0-1.985-1.041-3.554-3.121a24.008,24.008,0,0,1-2.645-4.422c-.119.054-.321.25-.3.845A14.506,14.506,0,0,0,27.3,30.841,28.2,28.2,0,0,0,29.841,34.5a.214.214,0,0,1-.071.345,29.389,29.389,0,0,1-5.343,3.768,24.108,24.108,0,0,1-5.32,2.306A24.117,24.117,0,0,1,13.781,38.6Zm78.865-8.965L87.194,22.06C86.765,21.48,86.436,21,85.755,21h-.126l-.1,1.465c-.126,1.993-.2,3.584-.2,4.772.026,1.313.178,2.12.529,2.449H80.58c.755-.681,1.032-2.952,1.464-8.911l.078-1.235c.2-2.926.355-5.2.329-6.788-.026-1.387-.174-2.249-.555-2.548h7.191c2.345,0,5.578.4,5.578,4.217,0,3.129-2.094,4.846-4.694,5.653a12.949,12.949,0,0,1,.984,1.162l3.962,5.249c2.475,3.255,2.675,3.407,3.559,3.861-1.11.118-2.6.17-3.559.17C93.479,30.516,93.127,30.287,92.647,29.633ZM86.366,12.62c-.152.832-.277,2.272-.456,4.594l-.1,1.365a4.709,4.709,0,0,0,.884.078c2.423,0,4.088-1.465,4.088-3.684,0-1.517-1.058-2.4-2.9-2.4C87.4,12.572,86.817,12.572,86.366,12.62Zm70.462,16.358.325-4.872a5.868,5.868,0,0,0,5.4,3.485c2.046,0,3.559-.984,3.559-2.7,0-1.464-1.24-2.371-2.749-3.281-3.181-1.916-5.2-3.459-5.2-6.233,0-4.165,3.481-5.552,7.091-5.552,2.094,0,3.407.377,4.742.377l-.507,4.617a5.193,5.193,0,0,0-4.442-2.574c-1.665,0-3.13.68-3.13,2.448,0,1.488,1.842,2.5,3.762,3.737,2.094,1.313,4.265,2.925,4.265,5.729,0,3.658-3.558,5.9-7.672,5.9A15.164,15.164,0,0,1,156.828,28.978Zm-59.465-7.7c0-6.459,3.507-11.46,10.2-11.46,2.094,0,3.081.377,4.768.377l-.5,4.971a5.184,5.184,0,0,0-4.617-2.93c-4.165,0-5.856,4.5-5.856,8.353,0,4.187,2.349,6.485,5.474,6.485,1.691,0,3.178-.456,5.678-2.194-1.006,3.236-3.351,5.179-7.213,5.179C100.267,30.062,97.363,25.922,97.363,21.28Zm39.145,3.936-.478-1.691a11.978,11.978,0,0,1-4.542.555h-2.324l-.4.858A11.847,11.847,0,0,0,127.4,28.8a3.147,3.147,0,0,0,.125.883H113.747c.784-.883,1.036-3.736,1.413-8.911l.078-1.236c.2-2.952.354-5.223.328-6.813a4.226,4.226,0,0,0-.5-2.523h5.328c-.759.581-1.036,3.71-1.387,8.886l-.1,1.236c-.125,1.92-.377,3.887-.377,5.8,0,.88.355,1.084,1.265,1.084,3.23,0,4.036-.074,5.5-1.058.909-1.665,1.946-3.762,2.952-5.93l1.365-2.9a39.691,39.691,0,0,0,2.548-6.034,2.727,2.727,0,0,0-.252-1.087h4.239s1.717,6.363,2.094,7.725l.832,3.081c1.439,5.175,2.349,7.7,3.559,8.682-1.025.122-2.464.17-2.993.17C137.973,29.859,137.847,29.81,136.508,25.216Zm-6.134-3.658h5.1L133.5,14.769ZM73.34,25.216l-.481-1.691a12.01,12.01,0,0,1-4.543.555H65.994l-.4.858c-.4.91-1.387,2.778-1.361,3.862a3.245,3.245,0,0,0,.126.883H59.687c1.336-1.339,3.03-4.442,5.375-9.462l1.365-2.9a46.1,46.1,0,0,0,2.549-6.034,2.742,2.742,0,0,0-.252-1.087h4.239s1.11,4.218,2.094,7.725l.832,3.081c1.438,5.175,2.345,7.7,3.558,8.682-1.083.122-2.449.17-2.977.17C74.806,29.859,74.679,29.81,73.34,25.216Zm-6.159-3.658H72.3l-1.968-6.788Zm78.1,8.127c.933-.883,1.313-6.307,1.261-8.027a41.575,41.575,0,0,0-3.129-7.646c-.932-1.79-2.016-3.485-2.7-3.81,1.184-.1,2.7-.177,3.434-.177,1.309,0,1.664.177,2.474,1.942,1.258,2.852,2.194,4.994,2.749,6.588,1.339-2.1,2.271-3.533,3.485-5.5a3.275,3.275,0,0,0,.555-1.665,2.043,2.043,0,0,0-.277-1.188h5.223c-1.006.226-5.549,7.369-6.507,8.986-.455.758-1.036,1.79-1.391,2.548a27.923,27.923,0,0,0-.455,5.475,4.342,4.342,0,0,0,.555,2.474Zm-99.985,0c.858-.758,1.087-3.71,1.465-8.911l.073-1.21c.2-2.952.355-5.223.329-6.813-.026-1.365-.177-2.249-.555-2.549h7.621c1.816,0,5.452.1,5.452,3.888,0,2.522-2.349,4.088-4.494,4.646,3.03.3,5.3,1.764,5.3,4.894,0,3.377-3.178,6.055-8.378,6.055Zm4.92-6.536c-.1,1.261-.152,2.323-.178,3.585,0,.177.555.554,1.865.554,2.726,0,4.52-1.361,4.52-3.61,0-2.5-2.042-3.407-4.616-3.407H50.424Zm.858-5.253c2.475,0,4.747-.858,4.747-3.126,0-1.313-1.084-2.223-3.382-2.223a12.841,12.841,0,0,0-1.361.052c-.2,1.361-.329,2.675-.43,4.114,0,0-.072,1.136-.077,1.183Z" transform="translate(5 47)" fill="#737373"/>
    </g>
    <g id="logo03" transform="translate(360)">
      <rect id="Rectangle_3-3" data-name="Rectangle 3" width="180" height="45" transform="translate(0 45)" fill="#c5c5c5" opacity="0"/>
      <path id="Dummy_Logo_03" d="M64.654,35.9H33.139l.148-.148L17.679,20.138,33.436,4.38V35.6L48.9,20.138,64.654,35.9V4.38L48.9,20.138,33.436,4.38H64.654l15.46,15.758L64.654,35.9Zm41.631-12.153h4.309c.052,2.077,1.155,3.448,3.448,3.448,1.694,0,3.878-1.108,3.878-3.017,0-1.53-1.693-1.931-3.878-2.586l-1.293-.431c-3.059-.875-6.033-2.107-6.033-5.6,0-4.314,4.1-5.6,7.757-5.6,3.767,0,6.839,1.289,6.895,5.6h-3.878c-.164-1.745-1.483-2.586-3.448-2.586-1.582,0-3.017.841-3.017,2.586,0,1.418,1.15,1.711,3.878,2.586l1.724.431c3.327,1.034,5.6,2.323,5.6,5.6-.052,4.366-4.366,6.034-8.188,6.034C109.84,30.208,106.341,28.385,106.285,23.743Zm34.907-3.878c0-5.792,3.047-9.913,9.049-9.913,3.775,0,7.219,1.785,7.327,6.034H153.69a3.276,3.276,0,0,0-3.448-3.017c-3.719,0-4.74,4.3-4.74,7.327s1.181,6.464,4.74,6.464a3.276,3.276,0,0,0,3.448-3.017H158c-.422,4.357-4.258,6.034-8.187,6.034C143.7,29.777,141.193,25.656,141.193,19.865Zm-16.807,9.481V10.383h6.465a18.743,18.743,0,0,1,3.878,0,4.657,4.657,0,0,1,3.879,4.74c0,2.461-1.633,3.724-3.879,4.31,2.564.482,4.745,1.913,4.74,4.74,0,4.327-4.447,5.171-7.757,5.171Zm3.879-3.017h3.016c1.939,0,3.879-.646,3.879-3.017s-1.884-2.586-3.879-2.586h-3.016Zm0-8.188h2.586c1.853,0,3.878-.353,3.878-2.586,0-2.017-1.706-2.586-3.448-2.586h-3.016Zm-28.444,11.2V21.157H92.064v8.188H87.755V10.383h4.309V18.14h7.757V10.383h4.31V29.345ZM33.139,4.38h0Z" transform="translate(2.321 47.62)" fill="#737373"/>
    </g>
  </g>
  <g id="icons_spite_ourpartners_180_hover" transform="translate(0 -45)">
    <g id="logo01-2" data-name="logo01">
      <rect id="Rectangle_3-4" data-name="Rectangle 3" width="180" height="45" transform="translate(0 45)" fill="#c5c5c5" opacity="0"/>
      <path id="Dummy_Logo_01-2" data-name="Dummy_Logo_01" d="M0,42.6V0H42.233V42.6ZM28.477,27a4.178,4.178,0,0,0,3.42,2.165c3.106,0,5.567-2.515,5.574-6.147,0-2.633-1.568-6.112-5.6-6.112a4,4,0,0,0-3.278,2.047h-.059V8.372a16.987,16.987,0,0,1-3.248.267h-.669v.674H26.27V28.08l-2.118.042h-1.4v-7.71c0-2.982-2.059-3.39-3.13-3.39-1.882,0-3.071,1.135-4,2.727h-.059a2.917,2.917,0,0,0-3.1-2.727c-2.112,0-2.9,1.13-3.911,2.751H8.491V17.022a13.619,13.619,0,0,1-3.249.29H4.781v.668H6.23V28.122H4.781v.668h5.331v-.668H8.491V22.643c0-2.2,1.45-4.781,3.248-4.781.923,0,1.621.668,1.621,2.03v8.236H11.821V28.8h5.337v-.668H15.614V22.039c0-1.6,1.449-4.177,3.248-4.177.923,0,1.621.668,1.621,2.03v8.23H18.862v.668H24.2c1.272-.024,2.958.148,4.218.231V27Zm34.4,14.382A3.373,3.373,0,0,1,60.2,42.594c-1.246,0-2.32-.474-2.32-1.942.059-1.846,1.942-2.876,4.974-2.876V35.893c0-.934-.734-1.208-1.424-1.208-.437,0-1.846.133-1.846.711,0,.156.593.26.593.912a.772.772,0,0,1-.808.83c-.533,0-.83-.392-.83-.948,0-.712.816-1.905,3.173-1.905,2.691,0,2.691,1.149,2.691,1.942V40.94c0,.593,0,.912.415.912s.593-.556.7-.9h.334a1.676,1.676,0,0,1-1.683,1.638A1.282,1.282,0,0,1,62.874,41.386Zm-3.5-1.127A1.446,1.446,0,0,0,60.9,41.823a2.078,2.078,0,0,0,1.527-.578,1.365,1.365,0,0,0,.437-1.209V38.2h-.008C61.569,38.22,59.375,38.435,59.375,40.259Zm-8.94.867H50.4V42.49c-.808-.052-1.594-.163-2.4-.163H47.8V41.86h1.127V29.139H47.8v-.452h.46a11.558,11.558,0,0,0,2.217-.178v7.176h.037A2.739,2.739,0,0,1,52.756,34.3a3.868,3.868,0,0,1,3.825,4.144,3.883,3.883,0,0,1-3.8,4.151A2.876,2.876,0,0,1,50.436,41.126Zm.082-4.492c-.06.533-.1,2.224-.1,2.713,0,2.5,1.764,2.839,2.357,2.839,1.979,0,2-2.239,2-3.825,0-1.5-.082-3.669-2-3.669A2.529,2.529,0,0,0,50.517,36.634Zm34.64,5.7H81.392v-.452h.993l-3.306-4.025L82.429,35v-.059H81.258v-.452h3.254v.452H83.3l-2.736,2.38,3.766,4.559h.831v.452Zm-4.922,0h.008Zm-3.759,0v-.452h1.031V29.139H76.476v-.452h.356a11.558,11.558,0,0,0,2.217-.178v13.38h1.186v.445Zm-4.684,0v-.452h1.03V36.53c0-1.446-.46-1.668-1.245-1.668-1.349,0-2.38,1.846-2.38,3.328v3.685h1.067v.452H66.558v-.452h1.09V34.936h-1.09v-.452h.416c.378,0,.748,0,1.112-.036a7.775,7.775,0,0,0,1.112-.156v2.1h.037a2.92,2.92,0,0,1,2.772-2.1c.712,0,2.358.156,2.358,1.979v5.612h1.075v.452ZM28.447,24.371c0-.734.053-3.219.142-4.006A3.7,3.7,0,0,1,31.9,17.5c2.816,0,2.929,3.218,2.929,5.408,0,2.342-.03,5.644-2.929,5.644C31.027,28.554,28.447,28.057,28.447,24.371Zm119.414-.8a6.153,6.153,0,0,1-4.9,2.239c-2.291,0-4.248-.882-4.248-3.6.111-3.417,3.559-5.33,9.118-5.33V13.387c0-1.727-1.341-2.239-2.617-2.239-.8,0-3.38.26-3.38,1.32,0,.3,1.09.474,1.09,1.69a1.427,1.427,0,0,1-1.49,1.541c-.979,0-1.527-.734-1.527-1.764,0-1.32,1.49-3.528,5.812-3.528,4.937,0,4.937,2.135,4.937,3.6v8.747c0,1.1,0,1.69.764,1.69.726,0,1.089-1.031,1.267-1.653h.616a3.1,3.1,0,0,1-3.084,3.017A2.355,2.355,0,0,1,147.862,23.573Zm-6.427-2.1a2.67,2.67,0,0,0,2.795,2.906,3.766,3.766,0,0,0,2.795-1.068,2.571,2.571,0,0,0,.8-2.239V17.649C145.46,17.687,141.435,18.087,141.435,21.475Zm-25.937-2.9c0-6.509,5.2-8.08,7.265-8.08,2.358,0,5.7,1.1,5.7,3.914a1.776,1.776,0,0,1-1.638,1.935,1.626,1.626,0,0,1-1.7-1.72c0-1.423,1.163-1.608,1.163-2.009,0-.986-2.29-1.386-3.091-1.386-3.484,0-4.4,2.558-4.4,7.346a12.34,12.34,0,0,0,.763,4.388,3.757,3.757,0,0,0,3.558,2.084c.067,0,.126.007.192.007,2.039,0,3.974-1.69,4.818-4.247h.764c-.823,2.587-2.276,4.855-6.056,5A7.125,7.125,0,0,1,115.5,18.576Zm-23.195,5A6.158,6.158,0,0,1,87.4,25.811c-2.291,0-4.248-.882-4.248-3.6.111-3.417,3.559-5.33,9.118-5.33V13.387c0-1.727-1.341-2.239-2.617-2.239-.8,0-3.38.26-3.38,1.32,0,.3,1.09.474,1.09,1.69a1.427,1.427,0,0,1-1.49,1.541c-.979,0-1.527-.734-1.527-1.764,0-1.32,1.49-3.528,5.812-3.528,4.937,0,4.937,2.135,4.937,3.6v8.747c0,1.1,0,1.69.763,1.69.726,0,1.089-1.031,1.267-1.653h.616a3.094,3.094,0,0,1-3.076,3.017A2.355,2.355,0,0,1,92.3,23.573Zm-6.434-2.1a2.669,2.669,0,0,0,2.795,2.906,3.768,3.768,0,0,0,2.795-1.068,2.573,2.573,0,0,0,.8-2.239V17.649C89.9,17.687,85.869,18.087,85.869,21.475Zm75.758,3.854H153.3v-.837h2.764V1.164H153.3V.326h1.541A21.469,21.469,0,0,0,158.87,0V24.5h2.765v.83Zm-24.4,0h-7.405v-.837h2.431V11.719h-2.431v-.838h1.2a17.039,17.039,0,0,0,4.069-.364V24.5h2.143v.83Zm-22.438,0h-6.665v-.837H110V14.655c0-2.661-.83-3.061-2.283-3.061-2.461,0-4.344,3.388-4.344,6.123v6.776h1.957v.837H98.559v-.837h1.994V11.742H98.559V10.9h.763a18.238,18.238,0,0,0,2.031-.074,13,13,0,0,0,2.031-.289V14.4h.074c1.016-2.3,2.424-3.862,5.07-3.862,1.3,0,4.314.289,4.314,3.647V24.5H114.8v.83Zm-32.565,0H75.558v-.837H77.44V14.655c0-2.661-.83-3.061-2.283-3.061-2.461,0-4.344,3.388-4.344,6.123v6.776h1.957v.837H66v-.837h1.994V11.742H66V10.9h.763a18.248,18.248,0,0,0,2.031-.074,12.99,12.99,0,0,0,2.031-.289V14.4h.074c1.016-2.3,2.424-3.862,5.07-3.862,1.3,0,4.307.289,4.307,3.647V24.5h1.957v.83Zm-25.107,0V24.5h2.446V11.831H57.115V11h1.208a17.2,17.2,0,0,0,4.092-.363V24.507h2.157v.822Zm-10.823,0v-.845h2.72V11.675h-2.72V10.83h2.72V9.036c0-6.263,2.505-8.9,5.9-8.9,1.378,0,2.965.66,2.965,2.38a1.291,1.291,0,0,1-1.3,1.208c-.956,0-1.445-.7-1.445-1.683,0-.4.282-.437.282-.912,0-.185-.6-.222-.845-.222-1.7,0-2.795,2.12-2.795,5.782V10.83h2.861v.845H51.77V24.492h2.861v.837ZM132.043,5.811a1.8,1.8,0,0,1,1.743-1.764,1.927,1.927,0,0,1,1.853,1.764,1.85,1.85,0,0,1-1.853,1.95A1.8,1.8,0,0,1,132.043,5.811ZM59.2,5.723a1.791,1.791,0,0,1,1.757-1.734,1.919,1.919,0,0,1,1.861,1.734,1.831,1.831,0,0,1-1.861,1.92A1.792,1.792,0,0,1,59.2,5.723Z" transform="translate(9 46)" fill="#b8b8b8"/>
    </g>
    <g id="logo02-2" data-name="logo02" transform="translate(180)">
      <rect id="Rectangle_3-5" data-name="Rectangle 3" width="180" height="45" transform="translate(0 45)" fill="#c5c5c5" opacity="0"/>
      <path id="Dummy_Logo_02-2" data-name="Dummy_Logo_02" d="M13.781,38.6a29.783,29.783,0,0,1-5.343-3.75c-.089-.066-.208-.173-.072-.345a27.771,27.771,0,0,0,2.556-3.662,14.823,14.823,0,0,0,1.836-4.9c.03-.589-.184-.8-.309-.832a23.99,23.99,0,0,1-2.633,4.422c-1.563,2.08-2.96,3.115-3.555,3.115a.326.326,0,0,1-.178-.042c-.463-.273-.119-.8.137-1.242a16.343,16.343,0,0,0,1.3-2.954c.315-1.046.618-2.026.041-2.49a16.265,16.265,0,0,1-3.132,4.22.177.177,0,0,1-.107.048c-.066,0-.125-.048-.19-.131A25.042,25.042,0,0,1,.314,20.606c-.66-4.826-.44-10.021,2.258-13.587A5.7,5.7,0,0,1,7.1,4.809,5.162,5.162,0,0,1,8.515,5a2.827,2.827,0,0,1,2.271,2.425,1.865,1.865,0,0,1-1.242,1.9,2.321,2.321,0,0,0,1.872,1.046c.422.041.813.041.813.041,3.056-.023,3.8-2.247,3.918-4.237a2.427,2.427,0,0,0-2.366-2.918c-.172-.012-.333-.029-.481-.029-1.04,0-1.355.463-1.355.463a1.819,1.819,0,0,1,.832-2.371A5.022,5.022,0,0,1,15.594.577c.149,0,.3.006.434.012C16.379.2,16.6.006,17.686.006c.078,0,.167,0,.285-.006a4.745,4.745,0,0,1,3.192,1.07c.856.743,1.034,2.573,1.069,3.388s.024,3.21.856,4.38a3.251,3.251,0,0,0,2.9,1.569,6.026,6.026,0,0,0,.8-.048,2.293,2.293,0,0,0,1.884-1.046,1.85,1.85,0,0,1-1.236-1.9,2.82,2.82,0,0,1,2.258-2.437,5.242,5.242,0,0,1,1.4-.184,5.7,5.7,0,0,1,4.547,2.222c2.7,3.561,2.918,8.744,2.259,13.587a24.843,24.843,0,0,1-3.828,9.457c-.06.077-.119.124-.178.124a.166.166,0,0,1-.113-.054,16.016,16.016,0,0,1-3.127-4.214c-.588.452-.273,1.432.03,2.49a18.244,18.244,0,0,0,1.307,2.954c.262.44.595.969.149,1.242a.394.394,0,0,1-.184.042c-.6,0-1.985-1.041-3.554-3.121a24.008,24.008,0,0,1-2.645-4.422c-.119.054-.321.25-.3.845A14.506,14.506,0,0,0,27.3,30.841,28.2,28.2,0,0,0,29.841,34.5a.214.214,0,0,1-.071.345,29.389,29.389,0,0,1-5.343,3.768,24.108,24.108,0,0,1-5.32,2.306A24.117,24.117,0,0,1,13.781,38.6Zm78.865-8.965L87.194,22.06C86.765,21.48,86.436,21,85.755,21h-.126l-.1,1.465c-.126,1.993-.2,3.584-.2,4.772.026,1.313.178,2.12.529,2.449H80.58c.755-.681,1.032-2.952,1.464-8.911l.078-1.235c.2-2.926.355-5.2.329-6.788-.026-1.387-.174-2.249-.555-2.548h7.191c2.345,0,5.578.4,5.578,4.217,0,3.129-2.094,4.846-4.694,5.653a12.949,12.949,0,0,1,.984,1.162l3.962,5.249c2.475,3.255,2.675,3.407,3.559,3.861-1.11.118-2.6.17-3.559.17C93.479,30.516,93.127,30.287,92.647,29.633ZM86.366,12.62c-.152.832-.277,2.272-.456,4.594l-.1,1.365a4.709,4.709,0,0,0,.884.078c2.423,0,4.088-1.465,4.088-3.684,0-1.517-1.058-2.4-2.9-2.4C87.4,12.572,86.817,12.572,86.366,12.62Zm70.462,16.358.325-4.872a5.868,5.868,0,0,0,5.4,3.485c2.046,0,3.559-.984,3.559-2.7,0-1.464-1.24-2.371-2.749-3.281-3.181-1.916-5.2-3.459-5.2-6.233,0-4.165,3.481-5.552,7.091-5.552,2.094,0,3.407.377,4.742.377l-.507,4.617a5.193,5.193,0,0,0-4.442-2.574c-1.665,0-3.13.68-3.13,2.448,0,1.488,1.842,2.5,3.762,3.737,2.094,1.313,4.265,2.925,4.265,5.729,0,3.658-3.558,5.9-7.672,5.9A15.164,15.164,0,0,1,156.828,28.978Zm-59.465-7.7c0-6.459,3.507-11.46,10.2-11.46,2.094,0,3.081.377,4.768.377l-.5,4.971a5.184,5.184,0,0,0-4.617-2.93c-4.165,0-5.856,4.5-5.856,8.353,0,4.187,2.349,6.485,5.474,6.485,1.691,0,3.178-.456,5.678-2.194-1.006,3.236-3.351,5.179-7.213,5.179C100.267,30.062,97.363,25.922,97.363,21.28Zm39.145,3.936-.478-1.691a11.978,11.978,0,0,1-4.542.555h-2.324l-.4.858A11.847,11.847,0,0,0,127.4,28.8a3.147,3.147,0,0,0,.125.883H113.747c.784-.883,1.036-3.736,1.413-8.911l.078-1.236c.2-2.952.354-5.223.328-6.813a4.226,4.226,0,0,0-.5-2.523h5.328c-.759.581-1.036,3.71-1.387,8.886l-.1,1.236c-.125,1.92-.377,3.887-.377,5.8,0,.88.355,1.084,1.265,1.084,3.23,0,4.036-.074,5.5-1.058.909-1.665,1.946-3.762,2.952-5.93l1.365-2.9a39.691,39.691,0,0,0,2.548-6.034,2.727,2.727,0,0,0-.252-1.087h4.239s1.717,6.363,2.094,7.725l.832,3.081c1.439,5.175,2.349,7.7,3.559,8.682-1.025.122-2.464.17-2.993.17C137.973,29.859,137.847,29.81,136.508,25.216Zm-6.134-3.658h5.1L133.5,14.769ZM73.34,25.216l-.481-1.691a12.01,12.01,0,0,1-4.543.555H65.994l-.4.858c-.4.91-1.387,2.778-1.361,3.862a3.245,3.245,0,0,0,.126.883H59.687c1.336-1.339,3.03-4.442,5.375-9.462l1.365-2.9a46.1,46.1,0,0,0,2.549-6.034,2.742,2.742,0,0,0-.252-1.087h4.239s1.11,4.218,2.094,7.725l.832,3.081c1.438,5.175,2.345,7.7,3.558,8.682-1.083.122-2.449.17-2.977.17C74.806,29.859,74.679,29.81,73.34,25.216Zm-6.159-3.658H72.3l-1.968-6.788Zm78.1,8.127c.933-.883,1.313-6.307,1.261-8.027a41.575,41.575,0,0,0-3.129-7.646c-.932-1.79-2.016-3.485-2.7-3.81,1.184-.1,2.7-.177,3.434-.177,1.309,0,1.664.177,2.474,1.942,1.258,2.852,2.194,4.994,2.749,6.588,1.339-2.1,2.271-3.533,3.485-5.5a3.275,3.275,0,0,0,.555-1.665,2.043,2.043,0,0,0-.277-1.188h5.223c-1.006.226-5.549,7.369-6.507,8.986-.455.758-1.036,1.79-1.391,2.548a27.923,27.923,0,0,0-.455,5.475,4.342,4.342,0,0,0,.555,2.474Zm-99.985,0c.858-.758,1.087-3.71,1.465-8.911l.073-1.21c.2-2.952.355-5.223.329-6.813-.026-1.365-.177-2.249-.555-2.549h7.621c1.816,0,5.452.1,5.452,3.888,0,2.522-2.349,4.088-4.494,4.646,3.03.3,5.3,1.764,5.3,4.894,0,3.377-3.178,6.055-8.378,6.055Zm4.92-6.536c-.1,1.261-.152,2.323-.178,3.585,0,.177.555.554,1.865.554,2.726,0,4.52-1.361,4.52-3.61,0-2.5-2.042-3.407-4.616-3.407H50.424Zm.858-5.253c2.475,0,4.747-.858,4.747-3.126,0-1.313-1.084-2.223-3.382-2.223a12.841,12.841,0,0,0-1.361.052c-.2,1.361-.329,2.675-.43,4.114,0,0-.072,1.136-.077,1.183Z" transform="translate(5 47)" fill="#b8b8b8"/>
    </g>
    <g id="logo03-2" data-name="logo03" transform="translate(360)">
      <rect id="Rectangle_3-6" data-name="Rectangle 3" width="180" height="45" transform="translate(0 45)" fill="#c5c5c5" opacity="0"/>
      <path id="Dummy_Logo_03-2" data-name="Dummy_Logo_03" d="M64.654,35.9H33.139l.148-.148L17.679,20.138,33.436,4.38V35.6L48.9,20.138,64.654,35.9V4.38L48.9,20.138,33.436,4.38H64.654l15.46,15.758L64.654,35.9Zm41.631-12.153h4.309c.052,2.077,1.155,3.448,3.448,3.448,1.694,0,3.878-1.108,3.878-3.017,0-1.53-1.693-1.931-3.878-2.586l-1.293-.431c-3.059-.875-6.033-2.107-6.033-5.6,0-4.314,4.1-5.6,7.757-5.6,3.767,0,6.839,1.289,6.895,5.6h-3.878c-.164-1.745-1.483-2.586-3.448-2.586-1.582,0-3.017.841-3.017,2.586,0,1.418,1.15,1.711,3.878,2.586l1.724.431c3.327,1.034,5.6,2.323,5.6,5.6-.052,4.366-4.366,6.034-8.188,6.034C109.84,30.208,106.341,28.385,106.285,23.743Zm34.907-3.878c0-5.792,3.047-9.913,9.049-9.913,3.775,0,7.219,1.785,7.327,6.034H153.69a3.276,3.276,0,0,0-3.448-3.017c-3.719,0-4.74,4.3-4.74,7.327s1.181,6.464,4.74,6.464a3.276,3.276,0,0,0,3.448-3.017H158c-.422,4.357-4.258,6.034-8.187,6.034C143.7,29.777,141.193,25.656,141.193,19.865Zm-16.807,9.481V10.383h6.465a18.743,18.743,0,0,1,3.878,0,4.657,4.657,0,0,1,3.879,4.74c0,2.461-1.633,3.724-3.879,4.31,2.564.482,4.745,1.913,4.74,4.74,0,4.327-4.447,5.171-7.757,5.171Zm3.879-3.017h3.016c1.939,0,3.879-.646,3.879-3.017s-1.884-2.586-3.879-2.586h-3.016Zm0-8.188h2.586c1.853,0,3.878-.353,3.878-2.586,0-2.017-1.706-2.586-3.448-2.586h-3.016Zm-28.444,11.2V21.157H92.064v8.188H87.755V10.383h4.309V18.14h7.757V10.383h4.31V29.345ZM33.139,4.38h0Z" transform="translate(2.321 47.62)" fill="#b8b8b8"/>
    </g>
  </g>
</svg>
