<svg id="icons_spite_red_contactus_50" xmlns="http://www.w3.org/2000/svg" width="150" height="100" viewBox="0 0 150 100">
  <g id="icons_spite_red_contactus_50-2" data-name="icons_spite_red_contactus_50">
    <g id="icon_phone" transform="translate(-574 -294)">
      <rect id="Rectangle_1" data-name="Rectangle 1" width="50" height="50" transform="translate(574 344)" fill="#d4d4d4" opacity="0"/>
      <path id="Icn_Phone" d="M25.18,18.157a1.561,1.561,0,0,1,1.273.552c.46.629,4.983,7.5,5.489,8.3a2.457,2.457,0,0,1-.245,2.3c-.46.859-2.346,4.155-2.346,4.155s1.334,2.269,5.827,6.777c4.508,4.508,6.777,5.842,6.777,5.842s3.3-1.886,4.155-2.346a3.373,3.373,0,0,1,1.533-.429,1.534,1.534,0,0,1,.767.184c.813.506,7.713,5.091,8.3,5.489a1.955,1.955,0,0,1,.061,2.7c-.8,1.135-4.416,5.581-5.98,5.581h-.031c-1.549-.046-8.019-.2-20.209-12.389S18.218,26.207,18.157,24.658c-.046-1.549,4.447-5.213,5.581-6.011a2.5,2.5,0,0,1,1.441-.491m0-2.607h0a5.053,5.053,0,0,0-2.929.951c-.705.491-6.808,4.861-6.7,8.234.2,6.057,4.615,13.447,13.141,21.973S44.607,59.664,50.633,59.863h.138c3.343,0,7.651-6.011,8.127-6.7a5.177,5.177,0,0,0,.951-3.343,4.04,4.04,0,0,0-1.641-2.99c-.491-.337-7.5-5.014-8.418-5.581a4.137,4.137,0,0,0-2.131-.567,5.992,5.992,0,0,0-2.745.736c-.506.261-1.763.981-2.791,1.564A57.694,57.694,0,0,1,37.032,38.4a53.514,53.514,0,0,1-4.585-5.091c.583-1.012,1.288-2.285,1.564-2.791a4.933,4.933,0,0,0,.138-4.907c-.521-.813-5.06-7.713-5.581-8.418A4.165,4.165,0,0,0,25.18,15.55Z" transform="translate(561.451 331.45)" fill="#1863e4"/>
    </g>
    <g id="icon_mail" transform="translate(-524 -294)">
      <path id="Path_1" data-name="Path 1" d="M0,0H50V50H0Z" transform="translate(574 344)" fill="#d4d4d4" opacity="0"/>
      <g id="Icn_Mail" transform="translate(574.467 352)">
        <g id="Path" transform="translate(-0.467)" fill="none" stroke="#1863e4" stroke-width="2">
          <rect width="50" height="33.333" rx="2" stroke="none"/>
          <rect x="1" y="1" width="48" height="31.333" rx="1" fill="none"/>
        </g>
        <path id="Path-2" data-name="Path" d="M736.149,4818.281l17.252,10.88,16.748-10.88" transform="translate(-728.116 -4810.705)" fill="none" stroke="#1863e4" stroke-linecap="round" stroke-width="2"/>
      </g>
    </g>
    <g id="icon_mail-2" data-name="icon_mail" transform="translate(-474 -294)">
      <rect id="Rectangle_1-2" data-name="Rectangle 1" width="50" height="50" transform="translate(574 344)" fill="#d4d4d4" opacity="0"/>
      <path id="Icn_Map" d="M15.643,45.46C15.055,44.663,0,27.062,0,16.528a16.531,16.531,0,0,1,33.063,0c0,10.533-15.043,28.242-15.643,28.932l-.887,1.088ZM2.361,16.435c0,8.264,10.918,22.341,14.17,26.372C19.781,38.776,30.7,24.792,30.7,16.435a14.168,14.168,0,0,0-28.336,0Zm7.865.108a6.3,6.3,0,1,1,6.3,6.3A6.346,6.346,0,0,1,10.227,16.543Zm2.363-.015a3.939,3.939,0,1,0,3.941-3.943A3.955,3.955,0,0,0,12.59,16.528Z" transform="translate(582.002 346)" fill="#1863e4"/>
    </g>
  </g>
  <g id="icons_spite_red_contactus_50_hover" transform="translate(0 -50)">
    <g id="icon_phone-2" data-name="icon_phone" transform="translate(-574 -294)">
      <rect id="Rectangle_1-3" data-name="Rectangle 1" width="50" height="50" transform="translate(574 344)" fill="#d4d4d4" opacity="0"/>
      <path id="Icn_Phone-2" data-name="Icn_Phone" d="M25.18,18.157a1.561,1.561,0,0,1,1.273.552c.46.629,4.983,7.5,5.489,8.3a2.457,2.457,0,0,1-.245,2.3c-.46.859-2.346,4.155-2.346,4.155s1.334,2.269,5.827,6.777c4.508,4.508,6.777,5.842,6.777,5.842s3.3-1.886,4.155-2.346a3.373,3.373,0,0,1,1.533-.429,1.534,1.534,0,0,1,.767.184c.813.506,7.713,5.091,8.3,5.489a1.955,1.955,0,0,1,.061,2.7c-.8,1.135-4.416,5.581-5.98,5.581h-.031c-1.549-.046-8.019-.2-20.209-12.389S18.218,26.207,18.157,24.658c-.046-1.549,4.447-5.213,5.581-6.011a2.5,2.5,0,0,1,1.441-.491m0-2.607h0a5.053,5.053,0,0,0-2.929.951c-.705.491-6.808,4.861-6.7,8.234.2,6.057,4.615,13.447,13.141,21.973S44.607,59.664,50.633,59.863h.138c3.343,0,7.651-6.011,8.127-6.7a5.177,5.177,0,0,0,.951-3.343,4.04,4.04,0,0,0-1.641-2.99c-.491-.337-7.5-5.014-8.418-5.581a4.137,4.137,0,0,0-2.131-.567,5.992,5.992,0,0,0-2.745.736c-.506.261-1.763.981-2.791,1.564A57.694,57.694,0,0,1,37.032,38.4a53.514,53.514,0,0,1-4.585-5.091c.583-1.012,1.288-2.285,1.564-2.791a4.933,4.933,0,0,0,.138-4.907c-.521-.813-5.06-7.713-5.581-8.418A4.165,4.165,0,0,0,25.18,15.55Z" transform="translate(561.451 331.45)" fill="#e8e8e8"/>
    </g>
    <g id="icon_mail-3" data-name="icon_mail" transform="translate(-524 -294)">
      <rect id="Rectangle_1-4" data-name="Rectangle 1" width="50" height="50" transform="translate(574 344)" fill="#d4d4d4" opacity="0"/>
      <g id="Icn_Mail-2" data-name="Icn_Mail" transform="translate(574.467 352)">
        <g id="Path-3" data-name="Path" transform="translate(-0.467)" fill="none" stroke="#e8e8e8" stroke-width="2">
          <rect width="50" height="33.333" rx="2" stroke="none"/>
          <rect x="1" y="1" width="48" height="31.333" rx="1" fill="none"/>
        </g>
        <path id="Path-4" data-name="Path" d="M736.149,4818.281l17.252,10.88,16.748-10.88" transform="translate(-728.116 -4810.705)" fill="none" stroke="#e8e8e8" stroke-linecap="round" stroke-width="2"/>
      </g>
    </g>
    <g id="icon_mail-4" data-name="icon_mail" transform="translate(-474 -294)">
      <rect id="Rectangle_1-5" data-name="Rectangle 1" width="50" height="50" transform="translate(574 344)" fill="#d4d4d4" opacity="0"/>
      <path id="Icn_Map-2" data-name="Icn_Map" d="M15.643,45.46C15.055,44.663,0,27.062,0,16.528a16.531,16.531,0,0,1,33.063,0c0,10.533-15.043,28.242-15.643,28.932l-.887,1.088ZM2.361,16.435c0,8.264,10.918,22.341,14.17,26.372C19.781,38.776,30.7,24.792,30.7,16.435a14.168,14.168,0,0,0-28.336,0Zm7.865.108a6.3,6.3,0,1,1,6.3,6.3A6.346,6.346,0,0,1,10.227,16.543Zm2.363-.015a3.939,3.939,0,1,0,3.941-3.943A3.955,3.955,0,0,0,12.59,16.528Z" transform="translate(582.002 346)" fill="#e8e8e8"/>
    </g>
  </g>
</svg>
