<svg xmlns="http://www.w3.org/2000/svg" xmlns:xlink="http://www.w3.org/1999/xlink" width="140" height="43.106" viewBox="0 0 140 43.106">
  <defs>
    <linearGradient id="linear-gradient" x1="0.5" x2="0.5" y2="1" gradientUnits="objectBoundingBox">
      <stop offset="0" stop-color="#e50000"/>
      <stop offset="1" stop-color="#890000"/>
    </linearGradient>
  </defs>
  <g id="E_Trade_Logo_Grey" transform="translate(-435 -344)">
    <path id="Type_02" d="M133.068,8.379l1.28-.887a2.593,2.593,0,0,0,2.263,1.056c1.335,0,1.757-.592,1.757-1.3,0-.775-.436-1.253-2.123-1.619-1.87-.394-2.925-1.3-2.925-2.943,0-1.464.957-2.69,3.234-2.69a3.617,3.617,0,0,1,3.318,1.592l-1.237.887a2.261,2.261,0,0,0-2.1-1.056c-1,0-1.588.451-1.588,1.267,0,.93.73,1.3,2.081,1.59C138.986,4.7,140,5.436,140,7.182c0,1.45-.97,2.788-3.3,2.788A4.143,4.143,0,0,1,133.068,8.379ZM100.25,5.6V4.435C100.25,1.31,101.714,0,103.878,0a3.323,3.323,0,0,1,3.529,3.141h-1.575a1.862,1.862,0,0,0-1.954-1.719c-1.294,0-2,.845-2,2.943V5.6c0,2.1.7,2.943,2,2.943,1.237,0,1.856-.732,1.968-2.267H103.92V4.858h3.529V5.6c0,3.056-1.392,4.366-3.571,4.366S100.25,8.66,100.25,5.6Zm-12.907,0V4.366C87.343,1.31,88.805,0,90.971,0s3.642,1.31,3.642,4.366V5.6c0,3.056-1.463,4.366-3.642,4.366S87.343,8.66,87.343,5.6Zm1.63-1.238V5.6c0,2.1.7,2.943,2,2.943S92.981,7.7,92.981,5.6V4.366c0-2.1-.718-2.943-2.011-2.943S88.974,2.267,88.974,4.366ZM63.4,5.6V4.366C63.4,1.31,64.861,0,67.026,0s3.641,1.31,3.641,4.366V5.6c0,3.056-1.462,4.366-3.641,4.366S63.4,8.66,63.4,5.6ZM65.03,4.366V5.6c0,2.1.7,2.943,2,2.943s2.01-.845,2.01-2.943V4.366c0-2.1-.717-2.943-2.01-2.943S65.03,2.267,65.03,4.366ZM24.058,5.6V4.366C24.058,1.31,25.52,0,27.685,0a3.308,3.308,0,0,1,3.528,3.141H29.638a1.847,1.847,0,0,0-1.953-1.719c-1.294,0-2,.845-2,2.943V5.6c0,2.07.7,2.943,2,2.943,1.11,0,1.7-.535,1.953-1.719H31.2A3.249,3.249,0,0,1,27.685,9.97C25.52,9.97,24.058,8.66,24.058,5.6Zm97.748,4.239V.127h5.947V1.549h-4.316V4.112h3.894V5.521h-3.894V8.435h4.316V9.844Zm-8.183,0V.127h1.631V9.844Zm-36.924,0V.127H78.33V8.435h4.315V9.844Zm-20.781,0-3.95-6.6v6.6H50.392V.127H51.8l3.994,6.688V.127h1.574V9.844Zm-13.582,0V5.521H38.624V9.844H36.993V.127h1.631V4.112h3.712V.127h1.63V9.844Zm-29.667,0V.127h5.946V1.549H14.3V4.112h3.895V5.521H14.3V8.435h4.315V9.844Zm-9.87,0V1.549H0V.127H7.213V1.549H4.429V9.844Z" transform="translate(435 377.136)" fill="#5f5f5f"/>
    <path id="Type_01" d="M122.2,28.6V.021H140V4.95H128v6.89h8.008v4.888H128v6.987h12V28.6Zm-33.922,0L81.742,8.223l-6.5,20.38H69.037L78.97.022h5.545L94.448,28.6Zm9-.021V0h10.14c6.457,0,10.967,3.314,10.967,12.427v3.728c0,9.072-4.51,12.427-10.967,12.427Zm5.794-4.888h4.346c3.85,0,5.173-2.609,5.173-7.539V12.427c0-4.929-1.323-7.5-5.173-7.5h-4.346ZM60.019,28.582,54.888,17.357H50.254V28.582H44.459V0H54.681c6.581,0,10.679,2.942,10.679,8.741,0,3.852-1.78,6.378-4.884,7.664l5.919,12.177ZM50.254,12.469h3.89c3.434,0,5.421-.746,5.421-3.728S57.577,4.93,54.144,4.93h-3.89ZM27.188,28.582V5.8H21.142L23.489,0h16.3V5.8H32.983V28.582ZM0,28.582V0H10.33L7.985,5.8H5.795v6.022l7.525,0-2.346,4.888H5.795v6.986h12l-2.346,4.888Z" transform="translate(435.001 344)" fill="#5f5f5f"/>
    <path id="Red_Shape" d="M458.119,343.758h-7.527l-2.414,5.8H455.7Z" transform="translate(-2.409 0.242)" fill="url(#linear-gradient)"/>
  </g>
</svg>
