<svg xmlns="http://www.w3.org/2000/svg" xmlns:xlink="http://www.w3.org/1999/xlink" width="169.001" height="52.036" viewBox="0 0 169.001 52.036">
  <defs>
    <linearGradient id="linear-gradient" x1="0.5" x2="0.5" y2="1" gradientUnits="objectBoundingBox">
      <stop offset="0" stop-color="#e50000"/>
      <stop offset="1" stop-color="#890000"/>
    </linearGradient>
  </defs>
  <g id="E_Trade_Logo_Ligth" transform="translate(-435 -344)">
    <path id="Type_02" d="M-256.366,148.114l1.545-1.071a3.13,3.13,0,0,0,2.732,1.275c1.612,0,2.122-.715,2.122-1.564,0-.935-.527-1.513-2.563-1.955-2.257-.476-3.531-1.564-3.531-3.552,0-1.768,1.155-3.247,3.9-3.247a4.367,4.367,0,0,1,4.006,1.921l-1.493,1.071a2.73,2.73,0,0,0-2.53-1.275c-1.2,0-1.917.544-1.917,1.53,0,1.122.882,1.564,2.512,1.92,2.359.51,3.581,1.395,3.581,3.5,0,1.751-1.171,3.366-3.989,3.366A5,5,0,0,1-256.366,148.114Zm-39.616-3.349v-1.411c0-3.773,1.767-5.354,4.38-5.354a4.012,4.012,0,0,1,4.26,3.792h-1.9a2.247,2.247,0,0,0-2.359-2.074c-1.562,0-2.411,1.02-2.411,3.553v1.495c0,2.533.849,3.553,2.411,3.553,1.493,0,2.24-.884,2.376-2.737h-2.326v-1.717h4.26v.9c0,3.689-1.68,5.27-4.311,5.27C-294.216,150.035-295.982,148.454-295.982,144.765Zm-15.581,0V143.27c0-3.689,1.765-5.27,4.379-5.27,2.63,0,4.4,1.581,4.4,5.27v1.495c0,3.689-1.766,5.27-4.4,5.27C-309.8,150.035-311.563,148.454-311.563,144.765Zm1.968-1.495v1.495c0,2.533.849,3.553,2.411,3.553s2.427-1.021,2.427-3.553V143.27c0-2.534-.866-3.553-2.427-3.553S-309.595,140.737-309.595,143.27Zm-30.873,1.495V143.27c0-3.689,1.765-5.27,4.379-5.27,2.63,0,4.395,1.581,4.395,5.27v1.495c0,3.689-1.765,5.27-4.395,5.27C-338.7,150.035-340.467,148.454-340.467,144.765Zm1.969-1.495v1.495c0,2.533.848,3.553,2.41,3.553s2.426-1.021,2.426-3.553V143.27c0-2.534-.865-3.553-2.426-3.553S-338.5,140.737-338.5,143.27Zm-49.46,1.495V143.27c0-3.689,1.765-5.27,4.379-5.27,2.325,0,3.868,1.241,4.259,3.792h-1.9a2.229,2.229,0,0,0-2.358-2.074c-1.562,0-2.41,1.02-2.41,3.553v1.495c0,2.5.848,3.553,2.41,3.553,1.34,0,2.052-.646,2.358-2.075h1.884c-.39,2.635-1.918,3.792-4.242,3.792C-386.194,150.035-387.958,148.454-387.958,144.765Zm118,5.117v-11.73h7.179v1.717h-5.21v3.093h4.7v1.7h-4.7v3.518h5.21v1.7Zm-9.878,0v-11.73h1.969v11.73Zm-44.572,0v-11.73h1.97v10.03h5.209v1.7Zm-25.086,0-4.769-7.972v7.972h-1.9v-11.73h1.7l4.821,8.074v-8.074h1.9v11.73Zm-16.4,0v-5.218h-4.481v5.218h-1.969v-11.73h1.969v4.811h4.481v-4.811h1.968v11.73Zm-35.813,0v-11.73h7.178v1.717h-5.209v3.093h4.7v1.7h-4.7v3.518h5.209v1.7Zm-11.915,0V139.87H-417v-1.717h8.707v1.717h-3.361v10.012Z" transform="translate(852 246)" fill="#737373"/>
    <path id="Type_01" d="M-269.482,172.527v-34.5H-248v5.951h-14.487v8.317h9.667v5.9h-9.667v8.434H-248v5.9Zm-40.949,0-7.894-24.6-7.843,24.6h-7.494l11.991-34.5h6.694l11.991,34.5Zm10.86-.025V138h12.24c7.794,0,13.239,4,13.239,15v4.5c0,10.951-5.445,15-13.239,15Zm6.994-5.9h5.246c4.647,0,6.244-3.15,6.244-9.1V153c0-5.95-1.6-9.049-6.244-9.049h-5.246Zm-51.97,5.9-6.195-13.55h-5.594V172.5h-6.995V138h12.339c7.944,0,12.891,3.551,12.891,10.552,0,4.649-2.149,7.7-5.9,9.251l7.145,14.7Zm-11.789-19.451h4.7c4.145,0,6.544-.9,6.544-4.5s-2.4-4.6-6.544-4.6h-4.7ZM-384.18,172.5V145h-7.3l2.833-7h19.677v7h-8.217v27.5Zm-32.82,0V138h12.47l-2.832,7H-410v7.269l9.084,0-2.833,5.9H-410V166.6h14.487l-2.832,5.9Z" transform="translate(852.001 206)" fill="#fff"/>
    <path id="Red_Shape" d="M460.178,343.758h-9.086l-2.914,7h9.086Z" transform="translate(-0.178 0.242)" fill="url(#linear-gradient)"/>
  </g>
</svg>
