<svg xmlns="http://www.w3.org/2000/svg" width="146.032" height="40" viewBox="0 0 146.032 40">
  <g id="Logo" transform="translate(-653 -152)">
    <g id="SubText" transform="translate(653 183.746)">
      <path id="Path_35" data-name="Path 35" d="M1.4,59.987V58.612H2.479v-5.3H1.4V52H8.321v2.422H6.86V53.309H4.511v1.9H6.225v1.309H4.511v2.095H5.717v1.375Z" transform="translate(-1.4 -51.866)" fill="#0090ff"/>
      <path id="Path_36" data-name="Path 36" d="M12.8,53.309V52h3.683v1.309h-.762v3.6a5.8,5.8,0,0,0,.063,1.047.9.9,0,0,0,.317.524,1.125,1.125,0,0,0,1.27,0,.757.757,0,0,0,.317-.458,7.333,7.333,0,0,0,.063-1.178V53.309H16.99V52H20.1v1.309h-.952V57.3a7.333,7.333,0,0,1-.063,1.178,1.575,1.575,0,0,1-.381.72,2.147,2.147,0,0,1-.889.589,3.152,3.152,0,0,1-1.333.2,3.625,3.625,0,0,1-1.46-.262,1.9,1.9,0,0,1-.889-.655,2.058,2.058,0,0,1-.381-.851,5,5,0,0,1-.063-1.375V53.309Z" transform="translate(-5.562 -51.866)" fill="#0090ff"/>
      <path id="Path_37" data-name="Path 37" d="M26.533,59.987V58.612H27.74v-5.3H26.533v1.9H25.2V52h7.048v3.208h-1.27v-1.9H29.771v5.3h1.143v1.375Z" transform="translate(-10.089 -51.866)" fill="#0090ff"/>
      <path id="Path_38" data-name="Path 38" d="M37.2,53.309V52h3.683v1.309h-.762v3.6a5.8,5.8,0,0,0,.063,1.047.9.9,0,0,0,.317.524,1.125,1.125,0,0,0,1.27,0,.757.757,0,0,0,.317-.458,7.334,7.334,0,0,0,.063-1.178V53.309H41.39V52H44.5v1.309h-.952V57.3a7.333,7.333,0,0,1-.063,1.178,1.575,1.575,0,0,1-.381.72,2.147,2.147,0,0,1-.889.589,3.152,3.152,0,0,1-1.333.2,3.625,3.625,0,0,1-1.46-.262,1.9,1.9,0,0,1-.889-.655,2.058,2.058,0,0,1-.381-.851,5,5,0,0,1-.063-1.375V53.309Z" transform="translate(-14.848 -51.866)" fill="#0090ff"/>
      <path id="Path_39" data-name="Path 39" d="M56.511,58.594l-1.27-2.422a2.105,2.105,0,0,0,1.333-1.964A2.389,2.389,0,0,0,56,52.637a2.113,2.113,0,0,0-1.9-.655H49.4v1.309h1.079v5.3H49.4v1.375h4.063V58.594h-.952v-2.16H53.4l1.778,3.535h2.349V58.594Zm-3.3-3.4h-.7v-1.9H53.4a1.25,1.25,0,0,1,.825.262,1.066,1.066,0,0,1,.317.72C54.479,54.863,54.1,55.19,53.21,55.19Z" transform="translate(-19.434 -51.848)" fill="#0090ff"/>
      <path id="Path_40" data-name="Path 40" d="M62.8,59.987V58.612h.889v-5.3H62.8V52h6.794v2.488h-1.46V53.309H65.721v1.9h1.968v1.309H65.721v2.095h2.413V57.434h1.46v2.553Z" transform="translate(-24.463 -51.866)" fill="#0090ff"/>
      <path id="Path_41" data-name="Path 41" d="M86.992,52.974A4.042,4.042,0,0,0,83.817,51.8a4.381,4.381,0,0,0-3.175,1.177A4.165,4.165,0,0,0,79.5,55.917a4.122,4.122,0,0,0,1.143,2.878,4.182,4.182,0,0,0,3.175,1.243,4.481,4.481,0,0,0,3.175-1.177,4.361,4.361,0,0,0,0-5.886ZM85.4,57.879a1.973,1.973,0,0,1-3.048,0,2.847,2.847,0,0,1-.635-1.9,2.97,2.97,0,0,1,.635-2.027,1.973,1.973,0,0,1,3.048,0,2.51,2.51,0,0,1,.571,1.9A2.919,2.919,0,0,1,85.4,57.879Z" transform="translate(-30.746 -51.789)" fill="#0090ff"/>
      <path id="Path_42" data-name="Path 42" d="M94.6,59.987V58.612h1.079v-5.3H94.6V52h6.921v2.422h-1.46V53.309H97.711v1.9h1.651v1.309H97.711v2.095h1.206v1.375Z" transform="translate(-36.408 -51.866)" fill="#0090ff"/>
      <path id="Path_43" data-name="Path 43" d="M110.6,59.987V58.612h1.143v-5.3H110.6V52h4.381v1.309h-1.206v5.3h1.206v1.375Z" transform="translate(-42.398 -51.866)" fill="#0090ff"/>
      <path id="Path_44" data-name="Path 44" d="M118.3,59.985V58.611h1.079v-5.3H118.3V52h3.3l2.857,4.974V53.309h-1.016V52h3.492v1.309h-1.079v6.742h-1.778l-3.3-5.956v4.516h.952v1.375Z" transform="translate(-45.326 -51.866)" fill="#0090ff"/>
      <path id="Path_45" data-name="Path 45" d="M135.338,60.051l-2.286-6.742H132.1V52h3.937v1.309h-.952l1.27,4.058,1.333-4.058h-1.016V52H140.1v1.309h-.952l-2.222,6.742Z" transform="translate(-50.505 -51.866)" fill="#0090ff"/>
      <path id="Path_46" data-name="Path 46" d="M145.3,59.987V58.612h.952v-5.3H145.3V52h6.857v2.488h-1.524V53.309h-2.413v1.9h1.968v1.309h-1.968v2.095h2.413V57.434h1.524v2.553Z" transform="translate(-55.452 -51.866)" fill="#0090ff"/>
      <path id="Path_47" data-name="Path 47" d="M157.421,59.912V57.165h1.333a1.811,1.811,0,0,0,.381,1.112,1.188,1.188,0,0,0,.825.327.612.612,0,0,0,.571-.262.988.988,0,0,0,.254-.589.646.646,0,0,0-.254-.589,2.655,2.655,0,0,0-.889-.589A8.015,8.015,0,0,1,157.8,55.4a2.148,2.148,0,0,1-.508-1.374,2.066,2.066,0,0,1,.635-1.636,1.98,1.98,0,0,1,1.46-.589,1.787,1.787,0,0,1,1.46.72v-.654h1.333v2.421h-1.27a1.068,1.068,0,0,0-.381-.85,1.037,1.037,0,0,0-.762-.327,1,1,0,0,0-.571.2.667.667,0,0,0-.254.458.6.6,0,0,0,.19.458,5.992,5.992,0,0,0,1.079.654,13.3,13.3,0,0,1,1.333.72,1.8,1.8,0,0,1,.7.85,2.631,2.631,0,0,1,.254,1.178,2.105,2.105,0,0,1-.7,1.766,2.4,2.4,0,0,1-1.587.589,1.906,1.906,0,0,1-1.587-.785v.654h-1.206Z" transform="translate(-59.935 -51.793)" fill="#0090ff"/>
      <path id="Path_48" data-name="Path 48" d="M168.133,59.987V58.612h1.143v-5.3h-1.143v1.9H166.8V52h7.048v3.208h-1.333v-1.9h-1.206v5.3h1.206v1.375Z" transform="translate(-63.53 -51.866)" fill="#0090ff"/>
      <path id="Path_49" data-name="Path 49" d="M178.9,59.987V58.612h1.016v-5.3H178.9V52h3.937l1.651,4.648L186.2,52h4v1.309h-1.016v5.3H190.2v1.375h-3.937V58.612h.952v-5.3h-.19l-2.413,6.678h-.825l-2.413-6.678h-.19v5.3H182.2v1.375Z" transform="translate(-68.133 -51.866)" fill="#0090ff"/>
      <path id="Path_50" data-name="Path 50" d="M197.8,59.987V58.612h.952v-5.3H197.8V52h6.857v2.488h-1.524V53.309h-2.413v1.9h1.968v1.309h-1.968v2.095h2.413V57.434h1.524v2.553Z" transform="translate(-75.451 -51.866)" fill="#0090ff"/>
      <path id="Path_51" data-name="Path 51" d="M209.7,59.985V58.611h1.016v-5.3H209.7V52h3.238l2.857,4.974V53.309h-1.016V52h3.492v1.309h-1.079v6.742h-1.714l-3.365-5.956v4.516h.952v1.375Z" transform="translate(-79.795 -51.866)" fill="#0090ff"/>
      <path id="Path_52" data-name="Path 52" d="M225.333,59.987V58.612h1.143v-5.3h-1.143v1.9H224V52h7.048v3.208h-1.333v-1.9h-1.206v5.3h1.206v1.375Z" transform="translate(-85.016 -51.866)" fill="#0090ff"/>
    </g>
    <g id="TopText" transform="translate(653 152)">
      <g id="Text" transform="translate(31.511 0)">
        <g id="Arrow" transform="translate(0.448 9.116)">
          <path id="Path_58" data-name="Path 58" d="M-818.656-284.422l-4.144,2.1h0c.064.127.064.255.128.382a8.55,8.55,0,0,0,1.147,2.614s1.594-1.02,3.634-2.359c3.825-2.486,9.307-6.12,9.307-6.12h-3.442Z" transform="translate(822.8 291.242)" fill="#0090ff"/>
          <path id="Path_61" data-name="Path 61" d="M-808.374-291.16h5.992v3.506l-1.147-1.147s-4.271,6.056-7.076,9.944c-1.275,1.785-2.231,3.187-2.295,3.251h0a6.635,6.635,0,0,0,2.231,1.02c.255.064.574.127.956.255,0,0,.829-1.466,1.849-3.315,1.912-3.442,4.654-8.351,4.654-8.351l2.869,2.869V-293.2h-10.072Z" transform="translate(819.211 293.2)" fill="#0090ff"/>
        </g>
        <g id="O">
          <path id="Path_63" data-name="Path 63" d="M-794.879-293.221a13.884,13.884,0,0,0-4.016-10.2,13.926,13.926,0,0,0-10.391-4.08,13.541,13.541,0,0,0-10.263,4.08,14.052,14.052,0,0,0-3.952,10.072,18.025,18.025,0,0,0,.191,2.614l4.335-2.231v-.383a11.265,11.265,0,0,1,1.721-6.247l-.064-.064h.128a14.706,14.706,0,0,1,.892-1.211,8.9,8.9,0,0,1,6.948-3,9.314,9.314,0,0,1,7.076,3.06,10.772,10.772,0,0,1,2.8,7.458,11.177,11.177,0,0,1-2.741,7.522,9.121,9.121,0,0,1-7.076,3.187,5.832,5.832,0,0,1-1.084-.064c-.383.7-.7,1.339-1.02,1.849l-.765,1.339c-.064.064-.064.191-.128.255a14.767,14.767,0,0,0,2.932.255,14.025,14.025,0,0,0,10.391-4.08A13.5,13.5,0,0,0-794.879-293.221Z" transform="translate(823.503 307.5)" fill="#fff"/>
        </g>
      </g>
      <g id="Text-2" data-name="Text" transform="translate(0 0)">
        <path id="Path_2" d="M843.257,313.423l3.635,2.04a11.821,11.821,0,0,1-4.91,7.14,14.433,14.433,0,0,1-8.481,2.55c-4.209,0-7.589-1.339-10.075-4.08A14.422,14.422,0,0,1,819.6,311q0-6.6,3.826-10.518a13.308,13.308,0,0,1,10.012-3.888,13.794,13.794,0,0,1,9.119,3v-2.55h3.571v8.924h-3.571a8.819,8.819,0,0,0-3.7-4.207,10.12,10.12,0,0,0-5.229-1.466,8.731,8.731,0,0,0-6.823,3,11.232,11.232,0,0,0-2.678,7.522,10.358,10.358,0,0,0,2.87,7.65,9.134,9.134,0,0,0,6.759,3,9.378,9.378,0,0,0,5.867-2.04A11.961,11.961,0,0,0,843.257,313.423Zm42.6,7.841V300.483h-3.316V297.04h9.5l7.27,19,7.4-19h9.565v3.442h-3.316v20.781h3.38v3.442H905.877v-3.442h3.316V300.483l-9.565,24.542H898.8l-9.438-24.542v20.781h3.061v3.442H882.6v-3.442Zm36.093,0V300.483h-3.571V297.04H941.4v8.351h-3.444v-4.908H926.092v8.223h10.331v3.442H926.092V321.2h11.861v-5.036H941.4v8.478h-23.02V321.2h3.571Zm30.418,0V300.483h-5.739v7.076h-3.444V297.04h22.447v10.518h-3.444v-7.076h-5.675v20.781h3.635v3.442H948.793v-3.442Z" transform="translate(-819.597 -296.584)" fill="#fff"/>
      </g>
    </g>
  </g>
</svg>
