<svg xmlns="http://www.w3.org/2000/svg" width="185" height="25" viewBox="0 0 185 25">
  <g id="MarketsAllLogoDark" transform="translate(-994.464 -424.369)">
    <g id="Group_2" data-name="Group 2" transform="translate(-9 -11.068)">
      <g id="Group_4" data-name="Group 4">
        <path id="Path_64" data-name="Path 64" d="M1400.49,522.37h-3.466v15.005h10.736v-3.043h-7.27Z" transform="translate(-231.66 -77.481)" fill="#f5f5f5"/>
        <path id="Path_65" data-name="Path 65" d="M1438.23,534.332V522.37h-3.466v15.005H1445.5v-3.043Z" transform="translate(-257.036 -77.481)" fill="#f5f5f5"/>
        <path id="Path_66" data-name="Path 66" d="M1355.017,522.37l-5.474,15.005h3.55l1.008-2.966h4.941l1.026,2.966h3.551l-5.474-15.005Zm-.232,9.256,1.8-5.3,1.754,5.3Z" transform="translate(-199.738 -77.481)" fill="#f5f5f5"/>
      </g>
      <g id="Group_3" data-name="Group 3">
        <path id="Path_67" data-name="Path 67" d="M1059.9,532.113l-5.431-9.743h-2.008v15.005h1.9v-11.6l5.009,8.9h1.078l4.988-8.9v11.6h1.9V522.37h-1.987Z" transform="translate(0 -77.481)" fill="#1197d3"/>
        <path id="Path_68" data-name="Path 68" d="M1110.16,522.369l-6.15,15.006h2.029l1.754-4.4h6.3l1.775,4.4h2.029l-6.129-15.006Zm-1.987,9.13,2.79-6.932,2.7,6.932Z" transform="translate(-34.66 -77.48)" fill="#1197d3"/>
        <path id="Path_69" data-name="Path 69" d="M1161.641,531.014a4.24,4.24,0,0,0,.993-1.014,4.677,4.677,0,0,0,.634-1.321,5.158,5.158,0,0,0,.222-1.511,4.71,4.71,0,0,0-.338-1.744,5.256,5.256,0,0,0-.941-1.543,4.6,4.6,0,0,0-1.437-1.1,4.074,4.074,0,0,0-1.828-.412h-6.425v15.005h1.9v-5.389h3.974l3.424,5.389h2.156l-3.635-5.749a3.863,3.863,0,0,0,1.3-.613m-2.673-.719h-4.544V524.06h4.417a2.355,2.355,0,0,1,1.047.243,2.7,2.7,0,0,1,.866.677,3.509,3.509,0,0,1,.592.993,3.212,3.212,0,0,1,.222,1.194,3.73,3.73,0,0,1-.19,1.184,3.32,3.32,0,0,1-.528,1,2.542,2.542,0,0,1-.814.687,2.238,2.238,0,0,1-1.067.253" transform="translate(-67.272 -77.481)" fill="#1197d3"/>
        <path id="Path_70" data-name="Path 70" d="M1206.593,522.37h-2.05l-7.735,8.306v-8.285h-1.9v14.984h1.9v-4.586l2.6-2.705,5.453,7.291h2.071l-6.362-8.39Z" transform="translate(-95.77 -77.481)" fill="#1197d3"/>
        <path id="Path_71" data-name="Path 71" d="M1238.871,530.507h7.038v-1.585h-7.038V524.06h8.094v-1.69h-10v15.005h10.187v-1.691h-8.285Z" transform="translate(-124.05 -77.481)" fill="#1197d3"/>
        <path id="Path_72" data-name="Path 72" d="M1271.612,524.06h5.178v13.315h1.9V524.06h5.178v-1.69h-12.258Z" transform="translate(-147.342 -77.481)" fill="#1197d3"/>
        <path id="Path_73" data-name="Path 73" d="M1323.209,531.409a3.257,3.257,0,0,0-1.015-1.183,6.119,6.119,0,0,0-1.606-.814,18.223,18.223,0,0,0-2.1-.581q-1.015-.232-1.755-.444a5.545,5.545,0,0,1-1.236-.5,1.907,1.907,0,0,1-.729-.687,2,2,0,0,1-.233-1.015,2.182,2.182,0,0,1,.813-1.8,4.081,4.081,0,0,1,2.568-.655,6.031,6.031,0,0,1,1.3.137,6.683,6.683,0,0,1,1.151.359,6.045,6.045,0,0,1,.951.5,3.138,3.138,0,0,1,.676.571l.887-1.543a8.031,8.031,0,0,0-7.08-1.426,4.879,4.879,0,0,0-1.712.856,3.982,3.982,0,0,0-1.12,1.395,4.283,4.283,0,0,0-.4,1.9,3.574,3.574,0,0,0,.3,1.522,2.87,2.87,0,0,0,.877,1.078,5.474,5.474,0,0,0,1.448.761,18.451,18.451,0,0,0,2.007.592q1.036.254,1.849.5a6.411,6.411,0,0,1,1.363.56,2.421,2.421,0,0,1,.835.75,2.11,2.11,0,0,1-.6,2.779,4.6,4.6,0,0,1-2.494.57,7.473,7.473,0,0,1-1.659-.179,9.1,9.1,0,0,1-1.479-.465,7.135,7.135,0,0,1-1.225-.645,5.041,5.041,0,0,1-.877-.718l-.909,1.606a9.178,9.178,0,0,0,2.822,1.574,9.949,9.949,0,0,0,3.286.539,9.072,9.072,0,0,0,2.156-.243,5,5,0,0,0,1.722-.761,3.753,3.753,0,0,0,1.151-1.31,3.923,3.923,0,0,0,.423-1.871,3.8,3.8,0,0,0-.349-1.712" transform="translate(-174.495 -77.263)" fill="#1197d3"/>
      </g>
    </g>
    <g id="Group_1" data-name="Group 1" transform="translate(-98.718 13)">
      <path id="Path_74" data-name="Path 74" d="M1263.251,435.784c-.3-.532-.709-1.305-1.214-2.3s-1.063-2.078-1.665-3.247-1.213-2.346-1.832-3.531q-.32-.615-.616-1.182c-.125.238-.256.485-.391.74-.549,1.031-1.114,2.119-1.682,3.233s-1.147,2.239-1.721,3.334-1.078,2.062-1.523,2.916l-.323.62h-7.358l12.99-25,13.047,25h-7.383Z" transform="translate(-132.782 0)" fill="#0474b2"/>
      <path id="Path_75" data-name="Path 75" d="M1232.225,435.784c-.3-.532-.717-1.305-1.227-2.3s-1.075-2.078-1.683-3.247-1.226-2.346-1.852-3.531l-.624-1.182c-.126.238-.259.485-.4.74-.555,1.031-1.127,2.119-1.7,3.233s-1.16,2.239-1.74,3.334-1.091,2.062-1.54,2.916l-.326.62H1213.7l13.136-25,13.193,25h-7.466Z" transform="translate(-111.179 0)" fill="#f5f5f5"/>
      <path id="Path_76" data-name="Path 76" d="M1200.788,435.784c-.3-.532-.708-1.305-1.214-2.3s-1.063-2.078-1.665-3.247-1.213-2.346-1.831-3.531l-.616-1.182q-.188.357-.392.74c-.549,1.031-1.114,2.119-1.681,3.233s-1.147,2.239-1.721,3.334-1.079,2.062-1.523,2.916l-.322.62h-7.358l12.99-25,13.047,25h-7.383Z" transform="translate(-89.283 0)" fill="#1197d3"/>
    </g>
  </g>
</svg>
