<svg xmlns="http://www.w3.org/2000/svg" width="163.769" height="46.5" viewBox="0 0 163.769 46.5">
  <g id="CometLogo" transform="translate(-654.5 -150.354)">
    <g id="SubText" transform="translate(655 189.777)">
      <path id="Path_89" data-name="Path 89" d="M135.167,411.231l.667-.142v-4.95l-.667-.142v-.834h4.985v1.89h-.963l-.056-.824H137.09v1.9h2.194v1.066H137.09v1.895l.671.142v.829h-2.594Z" transform="translate(-135.167 -405.074)" fill="#fff"/>
      <path id="Path_90" data-name="Path 90" d="M196.647,405.164V406l-.671.142v3.6a1.4,1.4,0,0,0,.333,1.019,1.225,1.225,0,0,0,.914.338,1.249,1.249,0,0,0,.925-.336,1.39,1.39,0,0,0,.336-1.022v-3.6l-.667-.142v-.833h2.594V406l-.671.142v3.6a2.289,2.289,0,0,1-.695,1.788,2.939,2.939,0,0,1-3.634,0,2.3,2.3,0,0,1-.69-1.788v-3.6l-.667-.142v-.833h2.593Z" transform="translate(-185.603 -405.074)" fill="#fff"/>
      <path id="Path_91" data-name="Path 91" d="M267.515,405.164V407h-.963l-.052-.772h-1.153v4.86l.671.142v.829h-2.6v-.829l.671-.142v-4.86h-1.148l-.052.772h-.959v-1.838Z" transform="translate(-243.741 -405.074)" fill="#fff"/>
      <path id="Path_92" data-name="Path 92" d="M327.248,405.164V406l-.671.142v3.6a1.4,1.4,0,0,0,.333,1.019,1.224,1.224,0,0,0,.914.338,1.249,1.249,0,0,0,.925-.336,1.39,1.39,0,0,0,.335-1.022v-3.6l-.667-.142v-.833h2.594V406l-.671.142v3.6a2.289,2.289,0,0,1-.695,1.788,2.939,2.939,0,0,1-3.634,0,2.3,2.3,0,0,1-.69-1.788v-3.6l-.667-.142v-.833h2.593Z" transform="translate(-297.03 -405.074)" fill="#fff"/>
      <path id="Path_93" data-name="Path 93" d="M395.825,405.164a2.436,2.436,0,0,1,1.673.538,1.882,1.882,0,0,1,.606,1.485,1.6,1.6,0,0,1-.254.9,1.806,1.806,0,0,1-.744.62,1.36,1.36,0,0,1,.8.6,2.045,2.045,0,0,1,.243,1.04v.35a.645.645,0,0,0,.082.353.355.355,0,0,0,.271.149l.155.024v.834h-.649a.971.971,0,0,1-.865-.365,1.635,1.635,0,0,1-.249-.943v-.393a1.182,1.182,0,0,0-.243-.789.891.891,0,0,0-.686-.3h-1.028v1.819l.671.142v.829h-2.594v-.829l.667-.142v-4.95l-.667-.142v-.834h2.813Zm-.89,3.041h.869a1.113,1.113,0,0,0,.787-.246.927.927,0,0,0,.262-.71,1.039,1.039,0,0,0-.26-.741,1,1,0,0,0-.768-.277h-.89Z" transform="translate(-355.424 -405.074)" fill="#fff"/>
      <path id="Path_94" data-name="Path 94" d="M456.245,411.231l.447-.071,1.905-6h1.286l1.892,6,.447.071v.829H460.09v-.829l.434-.085-.275-.947h-2.03l-.275.947.434.085v.829h-2.133Zm2.271-2.051h1.436l-.705-2.43h-.026Z" transform="translate(-409.438 -405.074)" fill="#fff"/>
      <path id="Path_95" data-name="Path 95" d="M526.472,408.125a3.884,3.884,0,0,1-.787,2.5,2.632,2.632,0,0,1-4.11,0,3.906,3.906,0,0,1-.781-2.5v-.1a3.918,3.918,0,0,1,.778-2.494,2.477,2.477,0,0,1,2.047-.992,2.51,2.51,0,0,1,2.062.992,3.881,3.881,0,0,1,.789,2.494Zm-1.252-.113a3.307,3.307,0,0,0-.4-1.734,1.312,1.312,0,0,0-1.2-.666,1.28,1.28,0,0,0-1.181.661,3.4,3.4,0,0,0-.389,1.739v.113a3.407,3.407,0,0,0,.394,1.75,1.285,1.285,0,0,0,1.181.664,1.307,1.307,0,0,0,1.2-.664,3.363,3.363,0,0,0,.4-1.75Z" transform="translate(-464.579 -404.535)" fill="#0090ff"/>
      <path id="Path_96" data-name="Path 96" d="M585.347,411.231l.667-.142v-4.95l-.667-.142v-.834h4.985v1.89h-.963l-.056-.824h-2.043v1.9h2.194v1.066h-2.194v1.895l.671.142v.829h-2.593Z" transform="translate(-519.726 -405.074)" fill="#0090ff"/>
      <path id="Path_97" data-name="Path 97" d="M644.713,406v-.834h2.594V406l-.671.142v4.95l.671.142v.829h-2.594v-.829l.671-.142v-4.95Z" transform="translate(-570.456 -405.074)" fill="#fff"/>
      <path id="Path_98" data-name="Path 98" d="M694,405.164V406l-.671.142v5.921h-1.252l-2.529-4.642-.026,0v3.666l.671.142v.829H687.6v-.829l.666-.142v-4.95L687.6,406v-.834h1.922l2.529,4.642.026,0V406.14L691.4,406v-.834H694Z" transform="translate(-607.059 -405.074)" fill="#fff"/>
      <path id="Path_99" data-name="Path 99" d="M758.121,406l-.477.095,1.11,4.135.077.379h.026l.073-.37,1.114-4.144-.473-.095v-.834h2.288V406l-.525.076-1.845,5.987H758.2l-1.849-5.987-.516-.076v-.834h2.288Z" transform="translate(-665.351 -405.074)" fill="#fff"/>
      <path id="Path_100" data-name="Path 100" d="M826.016,409.029H823.9V411h2.021l.056-.824h.955v1.885h-4.955v-.829l.667-.142v-4.95l-.667-.142v-.834h4.946v1.89h-.963l-.056-.824h-2v1.734h2.12Z" transform="translate(-721.86 -405.074)" fill="#fff"/>
      <path id="Path_101" data-name="Path 101" d="M885.471,405.164a2.435,2.435,0,0,1,1.673.538,1.882,1.882,0,0,1,.607,1.485,1.6,1.6,0,0,1-.254.9,1.806,1.806,0,0,1-.744.62,1.361,1.361,0,0,1,.8.6,2.047,2.047,0,0,1,.243,1.04v.35a.644.644,0,0,0,.082.353.354.354,0,0,0,.271.149l.155.024v.834h-.649a.972.972,0,0,1-.865-.365,1.636,1.636,0,0,1-.25-.943v-.393a1.181,1.181,0,0,0-.243-.789.89.89,0,0,0-.686-.3h-1.028v1.819l.671.142v.829h-2.593v-.829l.667-.142v-4.95l-.667-.142v-.834h2.813Zm-.89,3.041h.869a1.113,1.113,0,0,0,.787-.246.928.928,0,0,0,.262-.71,1.039,1.039,0,0,0-.26-.741,1,1,0,0,0-.768-.277h-.89Z" transform="translate(-773.692 -405.074)" fill="#fff"/>
      <path id="Path_102" data-name="Path 102" d="M952.148,406.856h-.942l-.164-.945a1.583,1.583,0,0,0-.477-.2,2.539,2.539,0,0,0-.667-.085,1.2,1.2,0,0,0-.8.238.771.771,0,0,0-.282.617.691.691,0,0,0,.295.574,3.89,3.89,0,0,0,1.017.475,3.843,3.843,0,0,1,1.572.836,1.817,1.817,0,0,1,.535,1.366,1.689,1.689,0,0,1-.636,1.394,2.6,2.6,0,0,1-1.677.51,3.347,3.347,0,0,1-1.344-.26,2.763,2.763,0,0,1-1-.718v-1.436h.972l.133.978a1.478,1.478,0,0,0,.514.281,2.23,2.23,0,0,0,.725.111,1.172,1.172,0,0,0,.785-.232.775.775,0,0,0,.269-.619.835.835,0,0,0-.256-.638,2.5,2.5,0,0,0-.9-.454,4.9,4.9,0,0,1-1.686-.841,1.655,1.655,0,0,1-.572-1.332,1.692,1.692,0,0,1,.645-1.368,2.527,2.527,0,0,1,1.622-.546,3.465,3.465,0,0,1,1.316.241,2.991,2.991,0,0,1,1,.642Z" transform="translate(-829.151 -404.56)" fill="#fff"/>
      <path id="Path_103" data-name="Path 103" d="M1011.09,406.959l-.026,0-1.677,5.106h-.843l-1.669-5.087-.026,0,.12,3.027v1.085l.671.142v.829h-2.594v-.829l.667-.142v-4.95l-.667-.142v-.834h2.305l1.6,5.082h.026l1.609-5.082h2.314V406l-.671.142v4.95l.671.142v.829H1010.3v-.829l.667-.142V410Z" transform="translate(-878.211 -405.074)" fill="#fff"/>
      <path id="Path_104" data-name="Path 104" d="M1088.387,409.029h-2.12V411h2.022l.056-.824h.955v1.885h-4.955v-.829l.667-.142v-4.95l-.667-.142v-.834h4.946v1.89h-.963l-.056-.824h-2v1.734h2.12Z" transform="translate(-945.685 -405.074)" fill="#fff"/>
      <path id="Path_105" data-name="Path 105" d="M1151.428,405.164V406l-.671.142v5.921h-1.252l-2.529-4.642-.026,0v3.666l.671.142v.829h-2.594v-.829l.667-.142v-4.95l-.667-.142v-.834h1.923l2.529,4.642.026,0V406.14l-.671-.142v-.834h2.594Z" transform="translate(-997.66 -405.074)" fill="#fff"/>
      <path id="Path_106" data-name="Path 106" d="M1219.029,405.164V407h-.963l-.052-.772h-1.153v4.86l.671.142v.829h-2.6v-.829l.671-.142v-4.86h-1.148l-.052.772h-.959v-1.838Z" transform="translate(-1056.26 -405.074)" fill="#fff"/>
    </g>
    <g id="TopText" transform="translate(655 150.854)">
      <g id="Group_1" data-name="Group 1" transform="translate(0 0)">
        <path id="Path_64" data-name="Path 64" d="M162.332,37.6h-2.086l-.381-5a9.5,9.5,0,0,0-3.387-2.521,11.417,11.417,0,0,0-4.823-.961,10.59,10.59,0,0,0-8.7,4.013,16.015,16.015,0,0,0-3.23,10.366v.475a16.223,16.223,0,0,0,3.2,10.388,10.2,10.2,0,0,0,8.4,4.035,12.534,12.534,0,0,0,5.014-.972,9.256,9.256,0,0,0,3.533-2.509l.381-5h2.086V55.7a11.543,11.543,0,0,1-4.453,3.549,14.8,14.8,0,0,1-6.561,1.424,12.875,12.875,0,0,1-10.274-4.691q-3.993-4.691-3.993-12.016v-.43q0-7.347,3.982-12.038a13.01,13.01,0,0,1,10.42-4.691,14.278,14.278,0,0,1,6.494,1.436,11.73,11.73,0,0,1,4.385,3.561Z" transform="translate(-137.052 -26.812)" fill="#fff" stroke="#fff" stroke-width="1"/>
        <path id="Path_69" data-name="Path 69" d="M381.239,31.48a15.914,15.914,0,0,0-11.885-4.668,15.484,15.484,0,0,0-11.689,4.668,16.682,16.682,0,0,0-4.488,12.061v.43a20.726,20.726,0,0,0,.419,4.246l2.9-1.486a20.67,20.67,0,0,1-.186-2.76V43.5q0-6.4,3.509-10.354a12.1,12.1,0,0,1,9.537-3.956,12.51,12.51,0,0,1,9.733,3.956,14.787,14.787,0,0,1,3.6,10.354v.475q0,6.466-3.562,10.411t-9.746,3.945a15.678,15.678,0,0,1-3.006-.282c-.468.852-.888,1.61-1.207,2.184a18.969,18.969,0,0,0,4.213.45,15.911,15.911,0,0,0,11.872-4.646,16.473,16.473,0,0,0,4.566-12.061v-.43A16.494,16.494,0,0,0,381.239,31.48Z" transform="translate(-322.848 -26.812)" fill="#fff" stroke="#fff" stroke-width="1"/>
        <path id="Path_65" data-name="Path 65" d="M639.842,34.149l-.134-.045L627.572,63.093h-1.862L613.6,34.239l-.135.023.247,14.291V60.809l3.656.294v1.99h-9.982V61.1l3.656-.294V32.475l-3.656-.294V30.169h7.178l12,28.989h.135l12.046-28.989h7.2v2.012l-3.656.294V60.809l3.656.294v1.99h-9.982V61.1l3.656-.294V48.553Z" transform="translate(-541.385 -29.698)" fill="#fff" stroke="#fff" stroke-width="1"/>
        <path id="Path_66" data-name="Path 66" d="M924.592,47.151H911.2V60.809h15.433l.2-4.93h2.378v7.213H904.875V61.1l3.656-.294V32.475l-3.656-.294V30.169H929.1v7.236h-2.378l-.2-4.93H911.2V44.844h13.392Z" transform="translate(-797.131 -29.698)" fill="#fff" stroke="#fff" stroke-width="1"/>
        <path id="Path_67" data-name="Path 67" d="M1137.864,30.169v6.942h-2.378l-.2-4.636h-9.063V60.809l3.657.294v1.99h-10V61.1l3.656-.294V32.475h-9.062l-.18,4.636h-2.4V30.169Z" transform="translate(-975.095 -29.698)" fill="#fff" stroke="#fff" stroke-width="1"/>
      </g>
      <g id="Arrow" transform="translate(30.573 14.755)">
        <path id="Path_68" data-name="Path 68" d="M412.795,113.028l1.632,1.633h6.542v4.657l-1.456-1.456c-.884,1.252-4.74,6.71-7.355,10.334-.743,1.04-1.384,1.958-1.824,2.587v0a16.99,16.99,0,0,0,2.78,1.127c.361-.644.9-1.615,1.51-2.714,2.038-3.668,4.959-8.9,4.959-8.9l.174-.312,2.848,2.848v-9.808Z" transform="translate(-403.682 -113.028)" fill="#0090ff"/>
        <path id="Path_70" data-name="Path 70" d="M368.661,141.825l-10.631,5.41a19.141,19.141,0,0,0,.991,2.682h0c.692-.446,1.845-1.192,3.179-2.068,3.172-2.061,7.458-4.894,9.166-6.024Z" transform="translate(-358.03 -138.278)" fill="#0090ff"/>
      </g>
    </g>
  </g>
</svg>
