<svg xmlns="http://www.w3.org/2000/svg" width="81" height="35" viewBox="0 0 81 35">
  <g id="Group_5" data-name="Group 5" transform="translate(-1209 -1213)">
    <g id="Chart" transform="translate(1209 1230)">
      <path id="Line" d="M1273.907,1235.483l6.019,8.1,10.972-1.93,6.6-9.155,10.491,6.005,5.486,8.254,8.026-6.248,6.451-3.149,6.984,9.4,8.965-5.257,8.026-10.057" transform="translate(-1272.5 -1230)" fill="none" stroke="#5f5f5f" stroke-linecap="round" stroke-width="1.3"/>
      <path id="Point" d="M61.5,27.5A1.5,1.5,0,1,1,63,29,1.5,1.5,0,0,1,61.5,27.5ZM40,27.5A1.5,1.5,0,1,1,41.5,29,1.5,1.5,0,0,1,40,27.5Zm-33.5-3A1.5,1.5,0,1,1,8,26,1.5,1.5,0,0,1,6.5,24.5Zm64-2A1.5,1.5,0,1,1,72,24,1.5,1.5,0,0,1,70.5,22.5Zm-53,0A1.5,1.5,0,1,1,19,24,1.5,1.5,0,0,1,17.5,22.5Zm30.5-1A1.5,1.5,0,1,1,49.5,23,1.5,1.5,0,0,1,48,21.5Zm-13.5-2A1.5,1.5,0,1,1,36,21,1.5,1.5,0,0,1,34.5,19.5Zm20-1A1.5,1.5,0,1,1,56,20,1.5,1.5,0,0,1,54.5,18.5Zm-54-2A1.5,1.5,0,1,1,2,18,1.5,1.5,0,0,1,.5,16.5Zm23.5-3A1.5,1.5,0,1,1,25.5,15,1.5,1.5,0,0,1,24,13.5Zm54.5-1A1.5,1.5,0,1,1,80,14,1.5,1.5,0,0,1,78.5,12.5Z" transform="translate(-0.5 -11)" fill="#5f5f5f"/>
    </g>
    <text id="Daily" transform="translate(1222 1223)" fill="#4caf50" font-size="11" font-family="RobotoCondensed-Regular, Roboto" letter-spacing="-0.03em"><tspan x="-12.413" y="0">0.01%</tspan></text>
  </g>
</svg>
